<svg width="26" height="25" viewBox="0 0 26 25" fill="none" xmlns="http://www.w3.org/2000/svg">
<path d="M5.29982 0.9037C2.74867 0.9037 0.680556 2.97182 0.680556 5.52297V19.9233C0.680556 22.4745 2.74867 24.5426 5.29982 24.5426H20.7002C23.2513 24.5426 25.3194 22.4745 25.3194 19.9233V5.52297C25.3194 2.97182 23.2513 0.9037 20.7002 0.9037H5.29982Z" fill="#6921F0"/>
<path d="M5.29982 0.9037C2.74867 0.9037 0.680556 2.97182 0.680556 5.52297V19.9233C0.680556 22.4745 2.74867 24.5426 5.29982 24.5426H20.7002C23.2513 24.5426 25.3194 22.4745 25.3194 19.9233V5.52297C25.3194 2.97182 23.2513 0.9037 20.7002 0.9037H5.29982Z" stroke="#6921F0" stroke-width="0.638889"/>
<path d="M18.6909 9.91706L13.338 5.63471C13.0372 5.39409 12.6098 5.39409 12.3091 5.63471L6.95613 9.91706C6.76078 10.0733 6.64706 10.31 6.64706 10.5601V17.5761C6.64706 18.4857 7.38447 19.2231 8.29412 19.2231H17.3529C18.2626 19.2231 19 18.4857 19 17.5761V10.5601C19 10.31 18.8863 10.0733 18.6909 9.91706Z" fill="#F7F7F7" stroke="#F7F7F7" stroke-width="0.77"/>
<path d="M15.9119 15.1055H9.73539" stroke="#6921F0" stroke-width="0.77"/>
</svg>
