<svg width="26" height="25" viewBox="0 0 26 25" fill="none" xmlns="http://www.w3.org/2000/svg">
<g clip-path="url(#clip0_65_1726)">
<path d="M20.7003 0.680542H5.29993C2.74878 0.680542 0.680664 2.74866 0.680664 5.29981V19.7002C0.680664 22.2513 2.74878 24.3194 5.29993 24.3194H20.7003C23.2514 24.3194 25.3196 22.2513 25.3196 19.7002V5.29981C25.3196 2.74866 23.2514 0.680542 20.7003 0.680542Z" stroke="#C8C8C8" stroke-width="0.638889"/>
<path d="M18.6908 9.6939L13.3379 5.41154C13.0371 5.17093 12.6097 5.17093 12.309 5.41154L6.95604 9.6939C6.76069 9.85018 6.64697 10.0868 6.64697 10.337V17.3529C6.64697 18.2626 7.38438 19 8.29403 19H17.3528C18.2625 19 18.9999 18.2626 18.9999 17.3529V10.337C18.9999 10.0868 18.8862 9.85018 18.6908 9.6939Z" fill="#D9D9DB" stroke="#A0A1A4" stroke-width="0.77"/>
<path d="M15.9121 14.8823H9.7356" stroke="#A0A1A4" stroke-width="0.77"/>
</g>
<defs>
<clipPath id="clip0_65_1726">
<rect width="26" height="25" fill="white"/>
</clipPath>
</defs>
</svg>
