<svg width="25" height="25" viewBox="0 0 25 25" fill="none" xmlns="http://www.w3.org/2000/svg">
<rect x="0.430556" y="0.680556" width="23.6389" height="23.6389" rx="4.61927" stroke="black" stroke-opacity="0.2" stroke-width="0.638889"/>
<path d="M5.75 16.882V8.11803C5.75 7.73926 5.964 7.393 6.30279 7.22361L9.30279 5.72361C9.96769 5.39116 10.75 5.87465 10.75 6.61803V18.382C10.75 19.1253 9.96769 19.6088 9.30278 19.2764L6.30279 17.7764C5.964 17.607 5.75 17.2607 5.75 16.882Z" fill="white" stroke="#A0A1A4" stroke-width="0.77"/>
<path d="M13.5 7.5H10.75V17.5H13.5C14.0523 17.5 14.5 17.0523 14.5 16.5V8.5C14.5 7.94772 14.0523 7.5 13.5 7.5Z" fill="#D9D9D9" stroke="#A0A1A4" stroke-width="0.77"/>
<path d="M12.865 11.975V13.025C12.865 13.2929 13.0821 13.51 13.35 13.51H17.75C17.8135 13.51 17.865 13.5615 17.865 13.625V15.3399C17.865 15.7984 18.4423 16.0009 18.7287 15.6429L20.9007 12.9279C21.1008 12.6777 21.1008 12.3223 20.9007 12.0721L18.7287 9.3571C18.4423 8.9991 17.865 9.20162 17.865 9.66008V11.375C17.865 11.4385 17.8135 11.49 17.75 11.49H13.35C13.0821 11.49 12.865 11.7071 12.865 11.975Z" fill="white" stroke="#A0A1A4" stroke-width="0.77"/>
<circle cx="0.5" cy="0.5" r="0.5" transform="matrix(-1 0 0 1 9.75 14)" fill="#A0A1A4"/>
</svg>
