<svg width="25" height="25" viewBox="0 0 25 25" fill="none" xmlns="http://www.w3.org/2000/svg">
<rect x="0.680556" y="0.9037" width="23.6389" height="23.6389" rx="4.61927" stroke="#C8C8C8" stroke-width="0.638889"/>
<path d="M14.2124 10.4934H18.6719L14.2124 5.22314V10.4934Z" fill="#D9D9DB"/>
<path d="M16.2394 20.2231H8.13133C7.23574 20.2231 6.50971 19.4971 6.50971 18.6015V6.84477C6.50971 5.94917 7.23574 5.22314 8.13133 5.22314L14.2124 5.22314M14.2124 5.22314L18.6719 10.4934M14.2124 5.22314V10.4934H18.6719M18.6719 10.4934V11.7096" stroke="#A0A1A4" stroke-width="0.77"/>
<line x1="8.94141" y1="11.3247" x2="12.1846" y2="11.3247" stroke="#A0A1A4" stroke-width="0.77"/>
<path d="M8.94141 14.1421H16.2387" stroke="#A0A1A4" stroke-width="0.77"/>
<path d="M8.94141 16.5745H16.2387" stroke="#A0A1A4" stroke-width="0.77"/>
<path d="M17.8613 13.3311V18.5203L18.6721 19.8176L19.4829 18.5203V13.3311H17.8613Z" fill="#D9D9DB" stroke="#A0A1A4" stroke-width="0.77"/>
</svg>
