<svg width="26" height="25" viewBox="0 0 26 25" fill="none" xmlns="http://www.w3.org/2000/svg">
<g clip-path="url(#clip0_65_1710)">
<path d="M20.7003 0.680542H5.29993C2.74878 0.680542 0.680664 2.74866 0.680664 5.29981V19.7002C0.680664 22.2513 2.74878 24.3194 5.29993 24.3194H20.7003C23.2514 24.3194 25.3196 22.2513 25.3196 19.7002V5.29981C25.3196 2.74866 23.2514 0.680542 20.7003 0.680542Z" fill="#6921F0"/>
<path d="M20.7003 0.680542H5.29993C2.74878 0.680542 0.680664 2.74866 0.680664 5.29981V19.7002C0.680664 22.2513 2.74878 24.3194 5.29993 24.3194H20.7003C23.2514 24.3194 25.3196 22.2513 25.3196 19.7002V5.29981C25.3196 2.74866 23.2514 0.680542 20.7003 0.680542Z" stroke="#6921F0" stroke-width="0.638889"/>
<path d="M14.6934 10.2703H18.6718L14.6934 5L14.6934 10.2703Z" fill="white"/>
<path d="M16.7297 20H8.62162C7.72603 20 7 19.274 7 18.3784V6.62162C7 5.72602 7.72603 5 8.62162 5H14.7027M14.7027 5L19.1622 10.2703M14.7027 5V10.2703H19.1622M19.1622 10.2703V11.4865" stroke="white" stroke-width="0.77"/>
<path d="M8.94141 11.1016H12.1846" stroke="white" stroke-width="0.77"/>
<path d="M8.94141 13.9189H16.2387" stroke="white" stroke-width="0.77"/>
<path d="M8.94141 16.3513H16.2387" stroke="white" stroke-width="0.77"/>
<path d="M17.8613 13.108V18.2972L18.6721 19.5945L19.4829 18.2972V13.108H17.8613Z" fill="white" stroke="white" stroke-width="0.77"/>
</g>
<defs>
<clipPath id="clip0_65_1710">
<rect width="26" height="25" fill="white"/>
</clipPath>
</defs>
</svg>
