<svg width="25" height="25" viewBox="0 0 25 25" fill="none" xmlns="http://www.w3.org/2000/svg">
<rect x="0.430556" y="0.680556" width="23.6389" height="23.6389" rx="4.61927" stroke="#C8C8C8" stroke-width="0.638889"/>
<g clip-path="url(#clip0_59_522)">
<path d="M10.3535 7.41064L10.8142 6.22136C10.8919 6.02 11.0286 5.8468 11.2064 5.72444C11.3842 5.60209 11.5948 5.53628 11.8106 5.53564H12.6892C12.905 5.53628 13.1157 5.60209 13.2935 5.72444C13.4712 5.8468 13.6079 6.02 13.6856 6.22136L14.1464 7.41064L15.7106 8.31064L16.9749 8.11779C17.1855 8.08921 17.3997 8.12387 17.5905 8.21735C17.7813 8.31083 17.9399 8.45891 18.0464 8.64279L18.4749 9.39279C18.5848 9.57959 18.6354 9.7953 18.62 10.0115C18.6047 10.2276 18.5243 10.434 18.3892 10.6035L17.6071 11.5999V13.3999L18.4106 14.3964C18.5457 14.5658 18.6262 14.7723 18.6415 14.9884C18.6568 15.2046 18.6062 15.4203 18.4964 15.6071L18.0678 16.3571C17.9614 16.5409 17.8027 16.689 17.6119 16.7825C17.4211 16.876 17.2069 16.9106 16.9964 16.8821L15.7321 16.6892L14.1678 17.5892L13.7071 18.7785C13.6294 18.9799 13.4927 19.1531 13.3149 19.2754C13.1371 19.3978 12.9265 19.4636 12.7106 19.4642H11.8106C11.5948 19.4636 11.3842 19.3978 11.2064 19.2754C11.0286 19.1531 10.8919 18.9799 10.8142 18.7785L10.3535 17.5892L8.78922 16.6892L7.52493 16.8821C7.31441 16.9106 7.10015 16.876 6.90938 16.7825C6.7186 16.689 6.55992 16.5409 6.4535 16.3571L6.02493 15.6071C5.91511 15.4203 5.86451 15.2046 5.87982 14.9884C5.89512 14.7723 5.9756 14.5658 6.11065 14.3964L6.89279 13.3999V11.5999L6.08922 10.6035C5.95417 10.434 5.87369 10.2276 5.85839 10.0115C5.84309 9.7953 5.89368 9.57959 6.0035 9.39279L6.43207 8.64279C6.53849 8.45891 6.69717 8.31083 6.88795 8.21735C7.07872 8.12387 7.29299 8.08921 7.5035 8.11779L8.76779 8.31064L10.3535 7.41064Z" fill="#D9D9DB" stroke="#A0A1A4" stroke-width="0.77" stroke-linecap="round" stroke-linejoin="round"/>
<path d="M12.2499 15.7142C14.0251 15.7142 15.4642 14.2751 15.4642 12.4999C15.4642 10.7247 14.0251 9.28564 12.2499 9.28564C10.4747 9.28564 9.03564 10.7247 9.03564 12.4999C9.03564 14.2751 10.4747 15.7142 12.2499 15.7142Z" fill="white" stroke="#A0A1A4" stroke-width="0.77" stroke-linecap="round" stroke-linejoin="round"/>
<path d="M12.25 9.28564V12.4999H15.4643" stroke="#A0A1A4" stroke-width="0.77" stroke-linecap="round" stroke-linejoin="round"/>
<path d="M12.2499 12.5L9.97852 14.7714" stroke="#A0A1A4" stroke-width="0.77" stroke-linecap="round" stroke-linejoin="round"/>
</g>
<defs>
<clipPath id="clip0_59_522">
<rect width="15" height="15" fill="white" transform="translate(4.75 5)"/>
</clipPath>
</defs>
</svg>
