<svg width="26" height="25" viewBox="0 0 26 25" fill="none" xmlns="http://www.w3.org/2000/svg">
<rect x="0.680556" y="0.9037" width="24.6389" height="23.6389" rx="4.61927" stroke="#C8C8C8" stroke-width="0.638889"/>
<path d="M7.33005 18.2096V7.23666C7.33005 6.40077 8.00767 5.72314 8.84356 5.72314L14.5192 5.72314L18.6814 10.6421V18.2096C18.6814 19.0455 18.0038 19.7231 17.1679 19.7231H8.84356C8.00767 19.7231 7.33005 19.0455 7.33005 18.2096Z" fill="#D9D9DB"/>
<path d="M14.5192 5.72314L8.84356 5.72314C8.00767 5.72314 7.33005 6.40077 7.33005 7.23666V18.2096C7.33005 19.0455 8.00767 19.7231 8.84356 19.7231H17.1679C18.0038 19.7231 18.6814 19.0455 18.6814 18.2096V10.6421M14.5192 5.72314L18.6814 10.6421M14.5192 5.72314V10.6421H18.6814" stroke="#A0A1A4" stroke-width="0.77"/>
<line x1="9.59937" y1="11.3922" x2="12.6264" y2="11.3922" stroke="#A0A1A4" stroke-width="0.77"/>
<path d="M9.59937 14.0475H16.4102" stroke="#A0A1A4" stroke-width="0.77"/>
<path d="M9.59937 16.3177H16.4102" stroke="#A0A1A4" stroke-width="0.77"/>
</svg>
