<svg width="26" height="25" viewBox="0 0 26 25" fill="none" xmlns="http://www.w3.org/2000/svg">
<g clip-path="url(#clip0_65_1702)">
<path d="M20.7003 0.680542H5.29993C2.74878 0.680542 0.680664 2.74866 0.680664 5.29981V19.7002C0.680664 22.2513 2.74878 24.3194 5.29993 24.3194H20.7003C23.2514 24.3194 25.3196 22.2513 25.3196 19.7002V5.29981C25.3196 2.74866 23.2514 0.680542 20.7003 0.680542Z" fill="#6921F0"/>
<path d="M20.7003 0.680542H5.29993C2.74878 0.680542 0.680664 2.74866 0.680664 5.29981V19.7002C0.680664 22.2513 2.74878 24.3194 5.29993 24.3194H20.7003C23.2514 24.3194 25.3196 22.2513 25.3196 19.7002V5.29981C25.3196 2.74866 23.2514 0.680542 20.7003 0.680542Z" stroke="#6921F0" stroke-width="0.638889"/>
<path d="M7.32056 17.9865V7.01351C7.32056 6.17762 7.99819 5.5 8.83408 5.5H14.5097L18.6719 10.4189V17.9865C18.6719 18.8224 17.9943 19.5 17.1584 19.5H8.83408C7.99819 19.5 7.32056 18.8224 7.32056 17.9865Z" fill="#C0C0FF"/>
<path d="M14.5097 5.5H8.83408C7.99819 5.5 7.32056 6.17762 7.32056 7.01351V17.9865C7.32056 18.8224 7.99819 19.5 8.83408 19.5H17.1584C17.9943 19.5 18.6719 18.8224 18.6719 17.9865V10.4189M14.5097 5.5L18.6719 10.4189M14.5097 5.5V10.4189H18.6719" stroke="white" stroke-width="0.77"/>
<path d="M9.58984 11.1691H12.6169" stroke="white" stroke-width="0.77"/>
<path d="M9.58984 13.8243H16.4007" stroke="white" stroke-width="0.77"/>
<path d="M9.58984 16.0946H16.4007" stroke="white" stroke-width="0.77"/>
</g>
<defs>
<clipPath id="clip0_65_1702">
<rect width="26" height="25" fill="white"/>
</clipPath>
</defs>
</svg>
