<svg width="25" height="25" viewBox="0 0 25 25" fill="none" xmlns="http://www.w3.org/2000/svg">
<rect x="0.680556" y="0.9037" width="23.6389" height="23.6389" rx="4.61927" stroke="#C8C8C8" stroke-width="0.638889"/>
<g clip-path="url(#clip0_59_583)">
<path d="M11 11.2231C12.2426 11.2231 13.25 10.2158 13.25 8.97314C13.25 7.7305 12.2426 6.72314 11 6.72314C9.75736 6.72314 8.75 7.7305 8.75 8.97314C8.75 10.2158 9.75736 11.2231 11 11.2231Z" fill="#D9D9DB" stroke="#A0A1A4" stroke-width="0.77" stroke-linecap="round" stroke-linejoin="round"/>
<path d="M15.5 18.7231H6.5V17.7231C6.5 16.5297 6.97411 15.3851 7.81802 14.5412C8.66193 13.6973 9.80653 13.2231 11 13.2231C12.1935 13.2231 13.3381 13.6973 14.182 14.5412C15.0259 15.3851 15.5 16.5297 15.5 17.7231V18.7231Z" fill="#D9D9DB" stroke="#A0A1A4" stroke-width="0.77" stroke-linecap="round" stroke-linejoin="round"/>
<path d="M15 6.72314C15.5967 6.72314 16.169 6.9602 16.591 7.38215C17.0129 7.80411 17.25 8.37641 17.25 8.97314C17.25 9.56988 17.0129 10.1422 16.591 10.5641C16.169 10.9861 15.5967 11.2231 15 11.2231" stroke="#A0A1A4" stroke-width="0.77" stroke-linecap="round" stroke-linejoin="round"/>
<path d="M16.6001 13.4131C17.4519 13.7371 18.1853 14.3122 18.7031 15.0622C19.221 15.8122 19.4989 16.7017 19.5001 17.6131V18.7231H18.0001" stroke="#A0A1A4" stroke-width="0.77" stroke-linecap="round" stroke-linejoin="round"/>
</g>
<defs>
<clipPath id="clip0_59_583">
<rect width="14" height="14" fill="white" transform="translate(6 5.22314)"/>
</clipPath>
</defs>
</svg>
