<svg width="26" height="25" viewBox="0 0 26 25" fill="none" xmlns="http://www.w3.org/2000/svg">
<g clip-path="url(#clip0_65_1719)">
<path d="M20.7003 0.680542H5.29993C2.74878 0.680542 0.680664 2.74866 0.680664 5.29981V19.7002C0.680664 22.2513 2.74878 24.3194 5.29993 24.3194H20.7003C23.2514 24.3194 25.3195 22.2513 25.3195 19.7002V5.29981C25.3195 2.74866 23.2514 0.680542 20.7003 0.680542Z" fill="#6921F0"/>
<path d="M20.7003 0.680542H5.29993C2.74878 0.680542 0.680664 2.74866 0.680664 5.29981V19.7002C0.680664 22.2513 2.74878 24.3194 5.29993 24.3194H20.7003C23.2514 24.3194 25.3195 22.2513 25.3195 19.7002V5.29981C25.3195 2.74866 23.2514 0.680542 20.7003 0.680542Z" stroke="#6921F0" stroke-width="0.638889"/>
<path d="M11 11C12.2426 11 13.25 9.99264 13.25 8.75C13.25 7.50736 12.2426 6.5 11 6.5C9.75736 6.5 8.75 7.50736 8.75 8.75C8.75 9.99264 9.75736 11 11 11Z" fill="white" stroke="white" stroke-width="0.77" stroke-linecap="round" stroke-linejoin="round"/>
<path d="M15.5 18.5H6.5V17.5C6.5 16.3065 6.97411 15.1619 7.81802 14.318C8.66193 13.4741 9.80653 13 11 13C12.1935 13 13.3381 13.4741 14.182 14.318C15.0259 15.1619 15.5 16.3065 15.5 17.5V18.5Z" fill="white" stroke="white" stroke-width="0.77" stroke-linecap="round" stroke-linejoin="round"/>
<path d="M15 6.5C15.5967 6.5 16.169 6.73705 16.591 7.15901C17.0129 7.58097 17.25 8.15326 17.25 8.75C17.25 9.34674 17.0129 9.91903 16.591 10.341C16.169 10.7629 15.5967 11 15 11" stroke="white" stroke-width="0.77" stroke-linecap="round" stroke-linejoin="round"/>
<path d="M16.5996 13.1899C17.4514 13.514 18.1848 14.0891 18.7026 14.839C19.2205 15.589 19.4984 16.4786 19.4996 17.3899V18.4999H17.9996" stroke="white" stroke-width="0.77" stroke-linecap="round" stroke-linejoin="round"/>
</g>
<defs>
<clipPath id="clip0_65_1719">
<rect width="26" height="25" fill="white"/>
</clipPath>
</defs>
</svg>
