<svg width="16" height="16" viewBox="0 0 16 16" fill="none" xmlns="http://www.w3.org/2000/svg">
<path d="M1.73107 3.17371C1.44705 3.17371 1.17465 3.28653 0.97382 3.48737C0.772984 3.6882 0.660156 3.9606 0.660156 4.24462V13.8828C0.660156 14.1669 0.772984 14.4393 0.97382 14.6401C1.17465 14.8409 1.44705 14.9538 1.73107 14.9538H13.5111C13.7951 14.9538 14.0675 14.8409 14.2684 14.6401C14.4692 14.4393 14.582 14.1669 14.582 13.8828V4.24462C14.582 3.9606 14.4692 3.6882 14.2684 3.48737C14.0675 3.28653 13.7951 3.17371 13.5111 3.17371H11.3693" stroke="#000001" stroke-width="1.07091" stroke-linecap="round" stroke-linejoin="round"/>
<path d="M3.87231 1.03174V5.31539" stroke="#000001" stroke-width="1.07091" stroke-linecap="round" stroke-linejoin="round"/>
<path d="M11.3708 1.03174V5.31539" stroke="#000001" stroke-width="1.07091" stroke-linecap="round" stroke-linejoin="round"/>
<path d="M3.87231 3.17371H9.22688" stroke="#000001" stroke-width="1.07091" stroke-linecap="round" stroke-linejoin="round"/>
<path d="M3.87384 9.06359C4.16956 9.06359 4.40929 8.82386 4.40929 8.52813C4.40929 8.23241 4.16956 7.99268 3.87384 7.99268C3.57811 7.99268 3.33838 8.23241 3.33838 8.52813C3.33838 8.82386 3.57811 9.06359 3.87384 9.06359Z" stroke="#000001" stroke-width="1.07091" stroke-linecap="round" stroke-linejoin="round"/>
<path d="M7.62213 9.06359C7.91785 9.06359 8.15758 8.82386 8.15758 8.52813C8.15758 8.23241 7.91785 7.99268 7.62213 7.99268C7.3264 7.99268 7.08667 8.23241 7.08667 8.52813C7.08667 8.82386 7.3264 9.06359 7.62213 9.06359Z" stroke="#000001" stroke-width="1.07091" stroke-linecap="round" stroke-linejoin="round"/>
<path d="M11.3704 9.06359C11.6661 9.06359 11.9059 8.82386 11.9059 8.52813C11.9059 8.23241 11.6661 7.99268 11.3704 7.99268C11.0747 7.99268 10.835 8.23241 10.835 8.52813C10.835 8.82386 11.0747 9.06359 11.3704 9.06359Z" stroke="#000001" stroke-width="1.07091" stroke-linecap="round" stroke-linejoin="round"/>
<path d="M3.87384 12.2764C4.16956 12.2764 4.40929 12.0366 4.40929 11.7409C4.40929 11.4452 4.16956 11.2054 3.87384 11.2054C3.57811 11.2054 3.33838 11.4452 3.33838 11.7409C3.33838 12.0366 3.57811 12.2764 3.87384 12.2764Z" stroke="#000001" stroke-width="1.07091" stroke-linecap="round" stroke-linejoin="round"/>
</svg>
