<svg width="31" height="31" viewBox="0 0 31 31" fill="none" xmlns="http://www.w3.org/2000/svg">
<path d="M17.875 24.1641L29.338 24.1639" stroke="white" stroke-width="1.82504" stroke-linecap="round" stroke-linejoin="round"/>
<path d="M23.6094 18.6489V29.6794" stroke="white" stroke-width="1.82504" stroke-linecap="round" stroke-linejoin="round"/>
<path d="M12.1427 10.9274C14.9916 10.9274 17.3011 8.70509 17.3011 5.96371C17.3011 3.22233 14.9916 1 12.1427 1C9.29385 1 6.98438 3.22233 6.98438 5.96371C6.98438 8.70509 9.29385 10.9274 12.1427 10.9274Z" stroke="white" stroke-width="1.82504" stroke-linecap="round" stroke-linejoin="round"/>
<path d="M12.1449 27.4734H4.78916C3.15382 27.4734 1.82812 26.1477 1.82812 24.5124V24.1643C1.82992 22.2021 2.43596 20.2844 3.56969 18.6535C4.70343 17.0225 6.31402 15.7515 8.19804 15.0008C10.0821 14.2501 12.155 14.0536 14.155 14.4359C16.1551 14.8182 17.9926 15.7623 19.4353 17.1489" stroke="white" stroke-width="1.82504" stroke-linecap="round" stroke-linejoin="round"/>
</svg>
