<svg width="13" height="14" viewBox="0 0 13 14" fill="none" xmlns="http://www.w3.org/2000/svg">
<path d="M7.59375 10.6875L12.3841 10.6874" stroke="white" stroke-width="1.12319" stroke-linecap="round" stroke-linejoin="round"/>
<path d="M9.99219 8.38281V12.9924" stroke="white" stroke-width="1.12319" stroke-linecap="round" stroke-linejoin="round"/>
<path d="M5.19472 5.15644C6.38526 5.15644 7.35038 4.22774 7.35038 3.08213C7.35038 1.93651 6.38526 1.00781 5.19472 1.00781C4.00418 1.00781 3.03906 1.93651 3.03906 3.08213C3.03906 4.22774 4.00418 5.15644 5.19472 5.15644Z" stroke="white" stroke-width="1.12319" stroke-linecap="round" stroke-linejoin="round"/>
<path d="M5.19413 12.0708H0.882812V10.688C0.883562 9.86796 1.13682 9.06657 1.61061 8.38501C2.08439 7.70344 2.75745 7.17226 3.54477 6.85856C4.3321 6.54486 5.19837 6.46271 6.03419 6.62249C6.87 6.78226 7.63787 7.17679 8.2408 7.75625" stroke="white" stroke-width="1.12319" stroke-linecap="round" stroke-linejoin="round"/>
</svg>
