<svg width="15" height="14" viewBox="0 0 15 14" fill="none" xmlns="http://www.w3.org/2000/svg">
<path d="M13.7869 6.91211C13.7772 8.02327 13.5246 9.11886 13.0469 10.1221" stroke="white" stroke-width="1.12319" stroke-linecap="round" stroke-linejoin="round"/>
<path d="M7.28906 13.4121C6.43547 13.4121 5.59024 13.244 4.80162 12.9173C4.013 12.5907 3.29645 12.1119 2.69287 11.5083C1.47388 10.2893 0.789063 8.63602 0.789062 6.91211" stroke="white" stroke-width="1.12319" stroke-linecap="round" stroke-linejoin="round"/>
<path d="M9.28906 8.91211L7.28906 6.41211H4.28906" stroke="white" stroke-width="1.12319" stroke-linecap="round" stroke-linejoin="round"/>
<path d="M12.2891 12.9121C13.1175 12.9121 13.7891 12.2405 13.7891 11.4121C13.7891 10.5837 13.1175 9.91211 12.2891 9.91211C11.4606 9.91211 10.7891 10.5837 10.7891 11.4121C10.7891 12.2405 11.4606 12.9121 12.2891 12.9121Z" stroke="white" stroke-width="1.12319" stroke-linecap="round" stroke-linejoin="round"/>
<path d="M1.21094 4.51219C1.42887 3.96754 1.72169 3.45595 2.08094 2.99219" stroke="white" stroke-width="1.12319" stroke-linecap="round" stroke-linejoin="round"/>
<path d="M4.00781 1.27227C4.57137 0.94685 5.18195 0.710716 5.81781 0.572266" stroke="white" stroke-width="1.12319" stroke-linecap="round" stroke-linejoin="round"/>
<path d="M13.37 4.51219C13.1521 3.96754 12.8592 3.45595 12.5 2.99219" stroke="white" stroke-width="1.12319" stroke-linecap="round" stroke-linejoin="round"/>
<path d="M10.5678 1.27227C10.0043 0.94685 9.39368 0.710716 8.75781 0.572266" stroke="white" stroke-width="1.12319" stroke-linecap="round" stroke-linejoin="round"/>
</svg>
