<svg width="15" height="16" viewBox="0 0 15 16" fill="none" xmlns="http://www.w3.org/2000/svg">
<path d="M1 3.94531H14.2781" stroke="#7A7B7E" stroke-width="0.906667" stroke-linecap="round" stroke-linejoin="round"/>
<path d="M2.65625 3.94531H12.6148V13.9039C12.6148 14.1974 12.4983 14.4788 12.2907 14.6863C12.0832 14.8938 11.8018 15.0104 11.5083 15.0104H3.76276C3.46929 15.0104 3.18785 14.8938 2.98034 14.6863C2.77283 14.4788 2.65625 14.1974 2.65625 13.9039V3.94531Z" stroke="#7A7B7E" stroke-width="0.906667" stroke-linecap="round" stroke-linejoin="round"/>
<path d="M4.875 3.94453V3.39127C4.875 2.65761 5.16645 1.954 5.68522 1.43522C6.204 0.916446 6.90761 0.625 7.64127 0.625C8.37493 0.625 9.07855 0.916446 9.59732 1.43522C10.1161 1.954 10.4075 2.65761 10.4075 3.39127V3.94453" stroke="#7A7B7E" stroke-width="0.906667" stroke-linecap="round" stroke-linejoin="round"/>
<path d="M5.98438 6.1582V12.244" stroke="#7A7B7E" stroke-width="0.906667" stroke-linecap="round" stroke-linejoin="round"/>
<path d="M9.29688 6.1582V12.244" stroke="#7A7B7E" stroke-width="0.906667" stroke-linecap="round" stroke-linejoin="round"/>
</svg>
