<svg width="19" height="19" viewBox="0 0 19 19" fill="none" xmlns="http://www.w3.org/2000/svg">
<g filter="url(#filter0_b_257_37728)">
<rect width="19" height="19" rx="3.16667" fill="#FEFDFF"/>
<path d="M4.5 13.4998V7.91357C4.5 7.36129 4.94772 6.91357 5.5 6.91357H8.16667H11.5H13.5C14.0523 6.91357 14.5 7.36129 14.5 7.91357V13.4998C14.5 14.0521 14.0523 14.4998 13.5 14.4998H5.5C4.94772 14.4998 4.5 14.0521 4.5 13.4998Z" stroke="#000001" stroke-width="0.730769" stroke-linecap="round" stroke-linejoin="round"/>
<path d="M9.5 9.67236H12.8333" stroke="#000001" stroke-width="0.730769" stroke-linecap="round" stroke-linejoin="round"/>
<path d="M9.5 11.3965H11.4167" stroke="#000001" stroke-width="0.730769" stroke-linecap="round" stroke-linejoin="round"/>
<path d="M12.4219 11.3965H12.8385" stroke="#000001" stroke-width="0.730769" stroke-linecap="round" stroke-linejoin="round"/>
<path d="M10.5624 4.5H8.44283C8.10765 4.5 7.83594 4.77172 7.83594 5.1069V5.95659C7.83594 6.12973 7.89516 6.29766 8.00378 6.43249L9.08906 7.77974C9.30162 8.0436 9.70359 8.0436 9.91615 7.77974L11.0014 6.43249C11.11 6.29766 11.1693 6.12973 11.1693 5.95659V5.1069C11.1693 4.77172 10.8976 4.5 10.5624 4.5Z" fill="white" stroke="#000001" stroke-width="0.73"/>
<path d="M8.83594 5.53467H9.5026H10.1693" stroke="#000001" stroke-width="0.730769" stroke-linecap="round" stroke-linejoin="round"/>
<path d="M7.64053 11.3965H6.69801C6.2219 11.3965 5.83594 11.0105 5.83594 10.5344C5.83594 10.0583 6.2219 9.67236 6.69801 9.67236H7.64054C8.11664 9.67236 8.5026 10.0583 8.5026 10.5344C8.5026 11.0105 8.11664 11.3965 7.64053 11.3965Z" stroke="#000001" stroke-width="0.730769" stroke-linecap="round" stroke-linejoin="round"/>
</g>
<defs>
<filter id="filter0_b_257_37728" x="-14.2" y="-14.2" width="47.4" height="47.4" filterUnits="userSpaceOnUse" color-interpolation-filters="sRGB">
<feFlood flood-opacity="0" result="BackgroundImageFix"/>
<feGaussianBlur in="BackgroundImageFix" stdDeviation="7.1"/>
<feComposite in2="SourceAlpha" operator="in" result="effect1_backgroundBlur_257_37728"/>
<feBlend mode="normal" in="SourceGraphic" in2="effect1_backgroundBlur_257_37728" result="shape"/>
</filter>
</defs>
</svg>
