<svg width="14" height="13" viewBox="0 0 14 13" fill="none" xmlns="http://www.w3.org/2000/svg">
<path d="M7.76562 11.9492H13.53" stroke="#7A7B7E" stroke-width="0.906667" stroke-linecap="round" stroke-linejoin="round"/>
<path d="M9.67616 0.703819L9.67794 0.70202C9.7561 0.62322 9.84909 0.560674 9.95154 0.517991C10.054 0.475308 10.1639 0.453333 10.2749 0.453333C10.3858 0.453333 10.4957 0.475309 10.5982 0.517991L10.772 0.100697L10.5982 0.517991C10.7006 0.560674 10.7936 0.62322 10.8718 0.702022L10.8731 0.703337L12.2448 2.07505L12.2461 2.07635C12.3249 2.15451 12.3875 2.2475 12.4301 2.34995C12.4728 2.4524 12.4948 2.56229 12.4948 2.67327C12.4948 2.78426 12.4728 2.89415 12.4301 2.9966C12.3875 3.09905 12.3249 3.19204 12.2461 3.27019L12.2443 3.27198L3.66171 11.8802L0.551511 12.44L1.07063 9.28376L9.67616 0.703819Z" stroke="#7A7B7E" stroke-width="0.906667" stroke-linecap="round" stroke-linejoin="round"/>
</svg>
