<svg width="30" height="30" viewBox="0 0 30 30" fill="none" xmlns="http://www.w3.org/2000/svg">
<rect width="30" height="30" rx="5" fill="#FDEEE9"/>
<path d="M16.3739 7.8444L16.3739 7.84439L16.3717 7.84074C16.2344 7.60843 16.0305 7.42117 15.7893 7.29339L15.6021 7.64685L15.7893 7.29339C15.5483 7.16568 15.2753 7.1 15 7.1C14.7247 7.1 14.4517 7.16568 14.2107 7.29339C13.9695 7.42117 13.7656 7.60843 13.6283 7.84074L13.6282 7.84073L13.6261 7.8444L7.27769 18.8483C7.27756 18.8485 7.27742 18.8488 7.27728 18.849C7.15154 19.0655 7.0894 19.3109 7.10148 19.5607C7.11356 19.8107 7.19916 20.0494 7.34412 20.2541C7.48868 20.4582 7.68653 20.6208 7.91413 20.7315C8.14164 20.8423 8.39471 20.8993 8.64984 20.9H8.65089L21.3491 20.9L21.3502 20.9C21.6053 20.8993 21.8584 20.8423 22.0859 20.7315C22.3135 20.6208 22.5113 20.4582 22.6559 20.2541C22.8008 20.0494 22.8864 19.8107 22.8985 19.5607C22.9106 19.3108 22.8484 19.0654 22.7226 18.8489C22.7225 18.8487 22.7224 18.8485 22.7223 18.8483L16.3739 7.8444Z" fill="#FF4343" stroke="#FF4343" stroke-width="0.8" stroke-linecap="round" stroke-linejoin="round"/>
<rect x="14.35" y="10.35" width="1.3" height="5.3" rx="0.65" fill="white"/>
<rect x="14.35" y="10.35" width="1.3" height="5.3" rx="0.65" stroke="white" stroke-width="0.3"/>
<g filter="url(#filter0_d_257_36933)">
<rect x="14.5" y="17.5" width="1" height="1" rx="0.5" fill="white"/>
<rect x="14.15" y="17.15" width="1.7" height="1.7" rx="0.85" stroke="white" stroke-width="0.7"/>
</g>
<defs>
<filter id="filter0_d_257_36933" x="9.79688" y="16.7998" width="10.4062" height="10.4004" filterUnits="userSpaceOnUse" color-interpolation-filters="sRGB">
<feFlood flood-opacity="0" result="BackgroundImageFix"/>
<feColorMatrix in="SourceAlpha" type="matrix" values="0 0 0 0 0 0 0 0 0 0 0 0 0 0 0 0 0 0 127 0" result="hardAlpha"/>
<feOffset dy="4"/>
<feGaussianBlur stdDeviation="2"/>
<feComposite in2="hardAlpha" operator="out"/>
<feColorMatrix type="matrix" values="0 0 0 0 0 0 0 0 0 0 0 0 0 0 0 0 0 0 0.25 0"/>
<feBlend mode="normal" in2="BackgroundImageFix" result="effect1_dropShadow_257_36933"/>
<feBlend mode="normal" in="SourceGraphic" in2="effect1_dropShadow_257_36933" result="shape"/>
</filter>
</defs>
</svg>
