<svg width="15" height="16" viewBox="0 0 15 16" fill="none" xmlns="http://www.w3.org/2000/svg">
<path d="M13.848 11.8248V13.594C13.848 13.8286 13.7548 14.0536 13.589 14.2194C13.4231 14.3853 13.1981 14.4785 12.9635 14.4785H11.1943" stroke="white" stroke-width="1.12319" stroke-linecap="round" stroke-linejoin="round"/>
<path d="M11.1943 1.50684H12.9635C13.1981 1.50684 13.4231 1.60003 13.589 1.76592C13.7548 1.93181 13.848 2.1568 13.848 2.3914V4.16053" stroke="white" stroke-width="1.12319" stroke-linecap="round" stroke-linejoin="round"/>
<path d="M0.876221 4.16053V2.3914C0.876221 2.1568 0.969416 1.93181 1.1353 1.76592C1.30119 1.60003 1.52619 1.50684 1.76079 1.50684H3.52992" stroke="white" stroke-width="1.12319" stroke-linecap="round" stroke-linejoin="round"/>
<path d="M3.52992 14.4785H1.76079C1.52619 14.4785 1.30119 14.3853 1.1353 14.2194C0.969416 14.0536 0.876221 13.8286 0.876221 13.594V11.8248" stroke="white" stroke-width="1.12319" stroke-linecap="round" stroke-linejoin="round"/>
<path d="M7.36264 7.55035C8.3397 7.55035 9.13177 6.75828 9.13177 5.78122C9.13177 4.80415 8.3397 4.01208 7.36264 4.01208C6.38557 4.01208 5.59351 4.80415 5.59351 5.78122C5.59351 6.75828 6.38557 7.55035 7.36264 7.55035Z" stroke="white" stroke-width="1.12319" stroke-linecap="round" stroke-linejoin="round"/>
<path d="M10.1596 11.0886C9.908 10.5604 9.51192 10.1142 9.01721 9.80188C8.52249 9.48952 7.9494 9.32373 7.36432 9.32373C6.77925 9.32373 6.20615 9.48952 5.71143 9.80188C5.21672 10.1142 4.82064 10.5604 4.56909 11.0886" stroke="white" stroke-width="1.12319" stroke-linecap="round" stroke-linejoin="round"/>
</svg>
