<svg width="16" height="16" viewBox="0 0 16 16" fill="none" xmlns="http://www.w3.org/2000/svg">
<g clip-path="url(#clip0_59_1632)">
<path d="M2.80396 10.6184L1.43857 13.2967C1.34638 13.4564 1.29785 13.6375 1.29785 13.8218C1.29785 14.0062 1.34638 14.1873 1.43857 14.347C1.53502 14.5014 1.66997 14.6281 1.83016 14.7147C1.99036 14.8012 2.1703 14.8446 2.35233 14.8406H13.9057C14.0877 14.8446 14.2677 14.8012 14.4279 14.7147C14.5881 14.6281 14.723 14.5014 14.8195 14.347C14.9117 14.1873 14.9602 14.0062 14.9602 13.8218C14.9602 13.6375 14.9117 13.4564 14.8195 13.2967L13.4961 10.6184H2.80396Z" stroke="#000001" stroke-width="1.05031" stroke-linecap="round" stroke-linejoin="round"/>
<path d="M6.04785 5.36692L8.14846 7.46753L10.2491 5.36692" stroke="#000001" stroke-width="1.05031" stroke-linecap="round" stroke-linejoin="round"/>
<path d="M8.14746 1.16565V7.46749" stroke="#000001" stroke-width="1.05031" stroke-linecap="round" stroke-linejoin="round"/>
<path d="M3.9485 5.36682C3.66994 5.36682 3.40279 5.47748 3.20582 5.67445C3.00885 5.87142 2.89819 6.13857 2.89819 6.41713V10.6184H13.4013V6.41713C13.4013 6.13857 13.2906 5.87142 13.0936 5.67445C12.8967 5.47748 12.6295 5.36682 12.3509 5.36682" stroke="#000001" stroke-width="1.05031" stroke-linecap="round" stroke-linejoin="round"/>
</g>
<defs>
<clipPath id="clip0_59_1632">
<rect width="14.7043" height="14.7043" fill="white" transform="translate(0.799316 0.640503)"/>
</clipPath>
</defs>
</svg>
