<svg width="13" height="18" viewBox="0 0 13 18" fill="none" xmlns="http://www.w3.org/2000/svg">
<path d="M12.3595 6.67974C12.3595 9.82253 6.67974 17.4081 6.67974 17.4081C6.67974 17.4081 1 9.82253 1 6.67974C1 5.17338 1.5984 3.72871 2.66356 2.66356C3.72871 1.5984 5.17338 1 6.67974 1C8.1861 1 9.63076 1.5984 10.6959 2.66356C11.7611 3.72871 12.3595 5.17338 12.3595 6.67974V6.67974Z" stroke="#C8C8C8" stroke-linecap="round" stroke-linejoin="round"/>
<path d="M6.68231 8.5736C7.72792 8.5736 8.57556 7.72597 8.57556 6.68036C8.57556 5.63474 7.72792 4.78711 6.68231 4.78711C5.6367 4.78711 4.78906 5.63474 4.78906 6.68036C4.78906 7.72597 5.6367 8.5736 6.68231 8.5736Z" stroke="#C8C8C8" stroke-linecap="round" stroke-linejoin="round"/>
</svg>
