<svg width="735" height="1024" viewBox="0 0 735 1024" fill="none" xmlns="http://www.w3.org/2000/svg">
<g clip-path="url(#clip0_1_282)">
<rect width="735" height="1024" fill="#F8F9FA"/>
<rect width="2608.5" height="1931" transform="translate(-1873)" fill="#F8F9FA"/>
<path d="M194 58.5L222.5 19.5H290L271.5 58.5H194Z" fill="#F3F4F6" stroke="#ECEEF0"/>
<path d="M410 209.5H307.5L287.174 278.5H399L410 209.5Z" fill="#EFF0F2" stroke="#E4E6E9"/>
<path d="M130.5 358.5L89 447.5H238L264 358.5H130.5Z" fill="#F3F4F6" stroke="#E4E6E9"/>
<path d="M176 661.5H-2.5V787.5H139.5L176 661.5Z" fill="#F3F4F6" stroke="#E4E6E9"/>
<line x1="737.001" y1="19.5" x2="-1012" y2="19.5" stroke="url(#paint0_linear_1_282)"/>
<path d="M737.001 58.5L-1012 58.5" stroke="url(#paint1_linear_1_282)"/>
<line x1="737.001" y1="98.5" x2="-1012" y2="98.5" stroke="url(#paint2_linear_1_282)"/>
<line x1="737.001" y1="152.5" x2="-1012" y2="152.5" stroke="#E4E6E9"/>
<line x1="740" y1="209.5" x2="-1009" y2="209.5" stroke="#E4E6E9"/>
<line x1="737.001" y1="278.5" x2="-1012" y2="278.5" stroke="#E4E6E9"/>
<line x1="737.001" y1="358.5" x2="-1012" y2="358.5" stroke="url(#paint3_linear_1_282)"/>
<line x1="737" y1="447.5" x2="-1012" y2="447.5" stroke="url(#paint4_linear_1_282)"/>
<line x1="738" y1="548.5" x2="-1011" y2="548.5" stroke="url(#paint5_linear_1_282)"/>
<line x1="738" y1="661.5" x2="-1011" y2="661.5" stroke="url(#paint6_linear_1_282)"/>
<line x1="738" y1="787.5" x2="-1011" y2="787.5" stroke="url(#paint7_linear_1_282)"/>
<line x1="738" y1="935.5" x2="-1011" y2="935.5" stroke="#F8F9FA"/>
<path d="M676 -5L741.5 214.5M601.5 -5L883.5 1757.5M523 -5V1926M444 -5L221.5 1400.5M369.5 -5L21.5 1193.5M301.5 -5L-304.5 1285M238 -2L-698 1285M178 -2L-846.5 1009M124 -2C-601.594 479.126 -999.406 748.874 -1725 1230M78.5 -2L-152 99M32 -2L-117.5 40M-23 -2L-152 11" stroke="url(#paint8_linear_1_282)"/>
<circle cx="523" cy="786.5" r="34.5" stroke="url(#paint9_linear_1_282)"/>
<circle cx="523" cy="786.5" r="54.5" stroke="url(#paint10_linear_1_282)"/>
<circle cx="522.5" cy="787" r="82" stroke="url(#paint11_linear_1_282)"/>
<circle cx="522.5" cy="787" r="117" stroke="url(#paint12_linear_1_282)"/>
<path d="M37.5 274L171 90" stroke="url(#paint13_linear_1_282)"/>
<path d="M523 787.5V274" stroke="url(#paint14_linear_1_282)"/>
<path d="M523 244V2" stroke="url(#paint15_linear_1_282)"/>
<path d="M674 447.5L708 661.5" stroke="url(#paint16_linear_1_282)"/>
<g filter="url(#filter0_d_1_282)">
<path d="M392.413 168.145L381.264 239.418C380.6 243.664 383.883 247.5 388.18 247.5H658.488C662.172 247.5 664.986 244.212 664.416 240.573L652.69 165.609C652.005 161.229 648.232 158 643.798 158H404.269C398.357 158 393.327 162.305 392.413 168.145Z" fill="white" stroke="#E8EBED"/>
</g>
<path d="M399.317 206.224L404.26 170.724C404.398 169.736 405.243 169 406.241 169H441.287C442.471 169 443.396 170.023 443.277 171.202L439.682 206.701C439.579 207.723 438.719 208.5 437.692 208.5H401.298C400.084 208.5 399.149 207.427 399.317 206.224Z" fill="#ECEDF0" stroke="#E7EAEC"/>
<path d="M421.482 190.368C422.722 190.447 423.791 189.505 423.87 188.265C423.948 187.025 423.006 185.956 421.766 185.877C420.526 185.799 419.457 186.74 419.379 187.98C419.3 189.221 420.242 190.29 421.482 190.368Z" stroke="#000001" stroke-opacity="0.49" stroke-linecap="round" stroke-linejoin="round"/>
<path d="M425.19 195.112C424.858 194.355 424.325 193.704 423.648 193.23C422.971 192.756 422.176 192.478 421.352 192.426C420.527 192.373 419.704 192.549 418.972 192.934C418.241 193.319 417.63 193.897 417.206 194.606" stroke="#000001" stroke-opacity="0.49" stroke-linecap="round" stroke-linejoin="round"/>
<path d="M426.373 192.241C427.14 191.362 427.646 190.286 427.833 189.135C428.02 187.984 427.881 186.803 427.432 185.727C426.983 184.65 426.242 183.721 425.292 183.044C424.343 182.366 423.222 181.969 422.058 181.895C420.894 181.821 419.733 182.075 418.706 182.627C417.678 183.179 416.826 184.007 416.245 185.018C415.663 186.03 415.377 187.183 415.417 188.349C415.458 189.515 415.823 190.646 416.473 191.614" stroke="#000001" stroke-opacity="0.49" stroke-linecap="round" stroke-linejoin="round"/>
<path d="M401 228H412.5" stroke="#E7EAEC"/>
<path d="M395.34 223.983L393.705 233.328C393.598 233.94 394.069 234.5 394.69 234.5H415.847C416.871 234.5 417.73 233.726 417.836 232.707L418.771 223.707C418.894 222.527 417.968 221.5 416.782 221.5H398.295C396.837 221.5 395.591 222.547 395.34 223.983Z" stroke="#E7EAEC"/>
<path d="M427.787 224.27L427.166 232.347C427.076 233.508 427.995 234.5 429.16 234.5H485.148C486.193 234.5 487.062 233.695 487.142 232.653L487.834 223.653C487.924 222.492 487.005 221.5 485.84 221.5H430.778C429.21 221.5 427.907 222.707 427.787 224.27Z" fill="#00A93E" stroke="#00A93E"/>
<path d="M433.656 226.344L433.182 229.344C433.087 229.951 433.556 230.5 434.17 230.5H482C483.105 230.5 484 229.605 484 228.5V226.5C484 225.948 483.552 225.5 483 225.5H434.644C434.152 225.5 433.733 225.858 433.656 226.344Z" fill="white" stroke="#00A93E"/>
<path d="M452.401 169.39C452.457 168.883 452.885 168.5 453.395 168.5H534.443C535.017 168.5 535.473 168.982 535.441 169.555L535.052 176.555C535.023 177.085 534.585 177.5 534.054 177.5H452.617C452.021 177.5 451.558 176.982 451.623 176.39L452.401 169.39Z" fill="#ECEDF0"/>
<path d="M451.323 186.146C451.494 185.193 452.323 184.5 453.291 184.5H583.812C584.987 184.5 585.909 185.509 585.804 186.679L585.354 191.679C585.262 192.71 584.397 193.5 583.362 193.5H452.392C451.146 193.5 450.203 192.373 450.423 191.146L451.323 186.146Z" fill="#ECEDF0"/>
<path d="M449.341 204.241C449.477 202.137 451.224 200.5 453.332 200.5H493.868C496.128 200.5 497.939 202.371 497.866 204.63L497.834 205.63C497.764 207.787 495.995 209.5 493.836 209.5H453.268C450.957 209.5 449.127 207.547 449.276 205.241L449.341 204.241Z" fill="#ECEDF0"/>
<path d="M505.341 204.241C505.477 202.137 507.224 200.5 509.332 200.5H549.868C552.128 200.5 553.939 202.371 553.866 204.63L553.834 205.63C553.764 207.787 551.995 209.5 549.836 209.5H509.268C506.957 209.5 505.127 207.547 505.276 205.241L505.341 204.241Z" fill="#ECEDF0"/>
<path d="M561.341 204.241C561.477 202.137 563.224 200.5 565.332 200.5H605.868C608.128 200.5 609.939 202.371 609.866 204.63L609.834 205.63C609.764 207.787 607.995 209.5 605.836 209.5H565.268C562.957 209.5 561.127 207.547 561.276 205.241L561.341 204.241Z" fill="#ECEDF0"/>
<path d="M632 228H647.333" stroke="#E7EAEC" stroke-width="3"/>
<path d="M618.62 224.615L618.963 233.538C618.984 234.075 619.425 234.5 619.962 234.5H649.34C650.505 234.5 651.424 233.508 651.334 232.347L650.642 223.347C650.562 222.305 649.693 221.5 648.648 221.5H621.618C619.916 221.5 618.554 222.914 618.62 224.615Z" stroke="#E7EAEC"/>
<ellipse cx="625.5" cy="228.5" rx="3.5" ry="4" transform="rotate(-7.97421 625.5 228.5)" fill="#C2C4C7"/>
<rect x="633" y="174.5" width="2" height="2" fill="#D9D9D9"/>
<rect x="634" y="178.5" width="2" height="2" fill="#D9D9D9"/>
<rect x="635" y="182.5" width="2" height="2" fill="#D9D9D9"/>
<path d="M523 447.5H578" stroke="#B096F4"/>
<path d="M523 548.5H578" stroke="#9268F9"/>
<path d="M523 661.5H578" stroke="#753CFD"/>
<path d="M479 358.5L523 358.5" stroke="url(#paint17_linear_1_282)"/>
<rect x="372" y="340" width="107" height="36" rx="18" fill="white"/>
<rect x="372" y="340" width="107" height="36" rx="18" stroke="#E8EBED"/>
<path d="M388.832 356.953L388.697 357.574H387.168L386.799 359.332H388.445L388.287 359.953H386.676L386.16 362.279H385.422L385.926 359.953H384.461L383.969 362.279H383.236L383.729 359.953H382.193L382.311 359.332H383.863L384.221 357.574H382.598L382.721 356.953H384.344L384.836 354.598H385.574L385.082 356.953H386.559L387.062 354.598H387.783L387.291 356.953H388.832ZM386.441 357.574H384.965L384.578 359.332H386.066L386.441 357.574ZM396.484 357.973C396.316 357.844 396.074 357.779 395.758 357.779C395.348 357.779 395.004 357.973 394.727 358.359C394.453 358.746 394.316 359.273 394.316 359.941V363H393.355V357H394.316V358.236H394.34C394.477 357.814 394.686 357.486 394.967 357.252C395.248 357.014 395.562 356.895 395.91 356.895C396.16 356.895 396.352 356.922 396.484 356.977V357.973ZM401.822 363H400.861V362.062H400.838C400.42 362.781 399.805 363.141 398.992 363.141C398.395 363.141 397.926 362.982 397.586 362.666C397.25 362.35 397.082 361.93 397.082 361.406C397.082 360.285 397.742 359.633 399.062 359.449L400.861 359.197C400.861 358.178 400.449 357.668 399.625 357.668C398.902 357.668 398.25 357.914 397.668 358.406V357.422C398.258 357.047 398.938 356.859 399.707 356.859C401.117 356.859 401.822 357.605 401.822 359.098V363ZM400.861 359.965L399.414 360.164C398.969 360.227 398.633 360.338 398.406 360.498C398.18 360.654 398.066 360.934 398.066 361.336C398.066 361.629 398.17 361.869 398.377 362.057C398.588 362.24 398.867 362.332 399.215 362.332C399.691 362.332 400.084 362.166 400.393 361.834C400.705 361.498 400.861 361.074 400.861 360.562V359.965ZM404.125 355.477C403.953 355.477 403.807 355.418 403.686 355.301C403.564 355.184 403.504 355.035 403.504 354.855C403.504 354.676 403.564 354.527 403.686 354.41C403.807 354.289 403.953 354.229 404.125 354.229C404.301 354.229 404.449 354.289 404.57 354.41C404.695 354.527 404.758 354.676 404.758 354.855C404.758 355.027 404.695 355.174 404.57 355.295C404.449 355.416 404.301 355.477 404.125 355.477ZM404.594 363H403.633V357H404.594V363ZM406.176 362.783V361.752C406.699 362.139 407.275 362.332 407.904 362.332C408.748 362.332 409.17 362.051 409.17 361.488C409.17 361.328 409.133 361.193 409.059 361.084C408.988 360.971 408.891 360.871 408.766 360.785C408.645 360.699 408.5 360.623 408.332 360.557C408.168 360.486 407.99 360.414 407.799 360.34C407.533 360.234 407.299 360.129 407.096 360.023C406.896 359.914 406.729 359.793 406.592 359.66C406.459 359.523 406.357 359.369 406.287 359.197C406.221 359.025 406.188 358.824 406.188 358.594C406.188 358.312 406.252 358.064 406.381 357.85C406.51 357.631 406.682 357.449 406.896 357.305C407.111 357.156 407.355 357.045 407.629 356.971C407.906 356.896 408.191 356.859 408.484 356.859C409.004 356.859 409.469 356.949 409.879 357.129V358.102C409.438 357.812 408.93 357.668 408.355 357.668C408.176 357.668 408.014 357.689 407.869 357.732C407.725 357.771 407.6 357.828 407.494 357.902C407.393 357.977 407.312 358.066 407.254 358.172C407.199 358.273 407.172 358.387 407.172 358.512C407.172 358.668 407.199 358.799 407.254 358.904C407.312 359.01 407.396 359.104 407.506 359.186C407.615 359.268 407.748 359.342 407.904 359.408C408.061 359.475 408.238 359.547 408.438 359.625C408.703 359.727 408.941 359.832 409.152 359.941C409.363 360.047 409.543 360.168 409.691 360.305C409.84 360.438 409.953 360.592 410.031 360.768C410.113 360.943 410.154 361.152 410.154 361.395C410.154 361.691 410.088 361.949 409.955 362.168C409.826 362.387 409.652 362.568 409.434 362.713C409.215 362.857 408.963 362.965 408.678 363.035C408.393 363.105 408.094 363.141 407.781 363.141C407.164 363.141 406.629 363.021 406.176 362.783ZM416.459 360.24H412.223C412.238 360.908 412.418 361.424 412.762 361.787C413.105 362.15 413.578 362.332 414.18 362.332C414.855 362.332 415.477 362.109 416.043 361.664V362.566C415.516 362.949 414.818 363.141 413.951 363.141C413.104 363.141 412.438 362.869 411.953 362.326C411.469 361.779 411.227 361.012 411.227 360.023C411.227 359.09 411.49 358.33 412.018 357.744C412.549 357.154 413.207 356.859 413.992 356.859C414.777 356.859 415.385 357.113 415.814 357.621C416.244 358.129 416.459 358.834 416.459 359.736V360.24ZM415.475 359.426C415.471 358.871 415.336 358.439 415.07 358.131C414.809 357.822 414.443 357.668 413.975 357.668C413.521 357.668 413.137 357.83 412.82 358.154C412.504 358.479 412.309 358.902 412.234 359.426H415.475ZM429.484 363H428.523V359.578C428.523 358.305 428.059 357.668 427.129 357.668C426.648 357.668 426.25 357.85 425.934 358.213C425.621 358.572 425.465 359.027 425.465 359.578V363H424.504V357H425.465V357.996H425.488C425.941 357.238 426.598 356.859 427.457 356.859C428.113 356.859 428.615 357.072 428.963 357.498C429.311 357.92 429.484 358.531 429.484 359.332V363ZM436.123 360.24H431.887C431.902 360.908 432.082 361.424 432.426 361.787C432.77 362.15 433.242 362.332 433.844 362.332C434.52 362.332 435.141 362.109 435.707 361.664V362.566C435.18 362.949 434.482 363.141 433.615 363.141C432.768 363.141 432.102 362.869 431.617 362.326C431.133 361.779 430.891 361.012 430.891 360.023C430.891 359.09 431.154 358.33 431.682 357.744C432.213 357.154 432.871 356.859 433.656 356.859C434.441 356.859 435.049 357.113 435.479 357.621C435.908 358.129 436.123 358.834 436.123 359.736V360.24ZM435.139 359.426C435.135 358.871 435 358.439 434.734 358.131C434.473 357.822 434.107 357.668 433.639 357.668C433.186 357.668 432.801 357.83 432.484 358.154C432.168 358.479 431.973 358.902 431.898 359.426H435.139ZM445.141 357L443.342 363H442.346L441.109 358.705C441.062 358.541 441.031 358.355 441.016 358.148H440.992C440.98 358.289 440.939 358.471 440.869 358.693L439.527 363H438.566L436.75 357H437.758L439 361.512C439.039 361.648 439.066 361.828 439.082 362.051H439.129C439.141 361.879 439.176 361.695 439.234 361.5L440.617 357H441.496L442.738 361.523C442.777 361.668 442.807 361.848 442.826 362.062H442.873C442.881 361.91 442.914 361.73 442.973 361.523L444.191 357H445.141ZM453.801 362.748C453.801 363.732 453.602 364.49 453.203 365.021C452.809 365.557 452.242 365.824 451.504 365.824C451.23 365.824 450.965 365.762 450.707 365.637V364.74C450.996 364.916 451.27 365.004 451.527 365.004C452.402 365.004 452.84 364.305 452.84 362.906V357H453.801V362.748ZM453.332 355.477C453.16 355.477 453.014 355.418 452.893 355.301C452.771 355.184 452.711 355.035 452.711 354.855C452.711 354.676 452.771 354.527 452.893 354.41C453.014 354.289 453.16 354.229 453.332 354.229C453.508 354.229 453.656 354.289 453.777 354.41C453.902 354.527 453.965 354.676 453.965 354.855C453.965 355.027 453.902 355.174 453.777 355.295C453.656 355.416 453.508 355.477 453.332 355.477ZM458.254 363.141C457.367 363.141 456.658 362.861 456.127 362.303C455.6 361.74 455.336 360.996 455.336 360.07C455.336 359.062 455.611 358.275 456.162 357.709C456.713 357.143 457.457 356.859 458.395 356.859C459.289 356.859 459.986 357.135 460.486 357.686C460.99 358.236 461.242 359 461.242 359.977C461.242 360.934 460.971 361.701 460.428 362.279C459.889 362.854 459.164 363.141 458.254 363.141ZM458.324 357.668C457.707 357.668 457.219 357.879 456.859 358.301C456.5 358.719 456.32 359.297 456.32 360.035C456.32 360.746 456.502 361.307 456.865 361.717C457.229 362.127 457.715 362.332 458.324 362.332C458.945 362.332 459.422 362.131 459.754 361.729C460.09 361.326 460.258 360.754 460.258 360.012C460.258 359.262 460.09 358.684 459.754 358.277C459.422 357.871 458.945 357.668 458.324 357.668ZM463.762 362.133H463.738V363H462.777V354.117H463.738V358.055H463.762C464.234 357.258 464.926 356.859 465.836 356.859C466.605 356.859 467.207 357.129 467.641 357.668C468.078 358.203 468.297 358.922 468.297 359.824C468.297 360.828 468.053 361.633 467.564 362.238C467.076 362.84 466.408 363.141 465.561 363.141C464.768 363.141 464.168 362.805 463.762 362.133ZM463.738 359.713V360.551C463.738 361.047 463.898 361.469 464.219 361.816C464.543 362.16 464.953 362.332 465.449 362.332C466.031 362.332 466.486 362.109 466.814 361.664C467.146 361.219 467.312 360.6 467.312 359.807C467.312 359.139 467.158 358.615 466.85 358.236C466.541 357.857 466.123 357.668 465.596 357.668C465.037 357.668 464.588 357.863 464.248 358.254C463.908 358.641 463.738 359.127 463.738 359.713Z" fill="black"/>
<rect x="578" y="429" width="150" height="36" rx="18" fill="white"/>
<rect x="578" y="429" width="150" height="36" rx="18" stroke="#E8EBED"/>
<path d="M592.57 445.531L590.965 445.859L592.078 447.283L591.434 447.729L590.52 446.176L589.594 447.729L588.949 447.283L590.062 445.859L588.445 445.531L588.709 444.799L590.244 445.379L590.109 443.598H590.918L590.783 445.379L592.324 444.799L592.57 445.531ZM598.271 452H597.311V451.062H597.287C596.869 451.781 596.254 452.141 595.441 452.141C594.844 452.141 594.375 451.982 594.035 451.666C593.699 451.35 593.531 450.93 593.531 450.406C593.531 449.285 594.191 448.633 595.512 448.449L597.311 448.197C597.311 447.178 596.898 446.668 596.074 446.668C595.352 446.668 594.699 446.914 594.117 447.406V446.422C594.707 446.047 595.387 445.859 596.156 445.859C597.566 445.859 598.271 446.605 598.271 448.098V452ZM597.311 448.965L595.863 449.164C595.418 449.227 595.082 449.338 594.855 449.498C594.629 449.654 594.516 449.934 594.516 450.336C594.516 450.629 594.619 450.869 594.826 451.057C595.037 451.24 595.316 451.332 595.664 451.332C596.141 451.332 596.533 451.166 596.842 450.834C597.154 450.498 597.311 450.074 597.311 449.562V448.965ZM599.719 451.783V450.752C600.242 451.139 600.818 451.332 601.447 451.332C602.291 451.332 602.713 451.051 602.713 450.488C602.713 450.328 602.676 450.193 602.602 450.084C602.531 449.971 602.434 449.871 602.309 449.785C602.188 449.699 602.043 449.623 601.875 449.557C601.711 449.486 601.533 449.414 601.342 449.34C601.076 449.234 600.842 449.129 600.639 449.023C600.439 448.914 600.271 448.793 600.135 448.66C600.002 448.523 599.9 448.369 599.83 448.197C599.764 448.025 599.73 447.824 599.73 447.594C599.73 447.312 599.795 447.064 599.924 446.85C600.053 446.631 600.225 446.449 600.439 446.305C600.654 446.156 600.898 446.045 601.172 445.971C601.449 445.896 601.734 445.859 602.027 445.859C602.547 445.859 603.012 445.949 603.422 446.129V447.102C602.98 446.812 602.473 446.668 601.898 446.668C601.719 446.668 601.557 446.689 601.412 446.732C601.268 446.771 601.143 446.828 601.037 446.902C600.936 446.977 600.855 447.066 600.797 447.172C600.742 447.273 600.715 447.387 600.715 447.512C600.715 447.668 600.742 447.799 600.797 447.904C600.855 448.01 600.939 448.104 601.049 448.186C601.158 448.268 601.291 448.342 601.447 448.408C601.604 448.475 601.781 448.547 601.98 448.625C602.246 448.727 602.484 448.832 602.695 448.941C602.906 449.047 603.086 449.168 603.234 449.305C603.383 449.438 603.496 449.592 603.574 449.768C603.656 449.943 603.697 450.152 603.697 450.395C603.697 450.691 603.631 450.949 603.498 451.168C603.369 451.387 603.195 451.568 602.977 451.713C602.758 451.857 602.506 451.965 602.221 452.035C601.936 452.105 601.637 452.141 601.324 452.141C600.707 452.141 600.172 452.021 599.719 451.783ZM604.816 451.783V450.752C605.34 451.139 605.916 451.332 606.545 451.332C607.389 451.332 607.811 451.051 607.811 450.488C607.811 450.328 607.773 450.193 607.699 450.084C607.629 449.971 607.531 449.871 607.406 449.785C607.285 449.699 607.141 449.623 606.973 449.557C606.809 449.486 606.631 449.414 606.439 449.34C606.174 449.234 605.939 449.129 605.736 449.023C605.537 448.914 605.369 448.793 605.232 448.66C605.1 448.523 604.998 448.369 604.928 448.197C604.861 448.025 604.828 447.824 604.828 447.594C604.828 447.312 604.893 447.064 605.021 446.85C605.15 446.631 605.322 446.449 605.537 446.305C605.752 446.156 605.996 446.045 606.27 445.971C606.547 445.896 606.832 445.859 607.125 445.859C607.645 445.859 608.109 445.949 608.52 446.129V447.102C608.078 446.812 607.57 446.668 606.996 446.668C606.816 446.668 606.654 446.689 606.51 446.732C606.365 446.771 606.24 446.828 606.135 446.902C606.033 446.977 605.953 447.066 605.895 447.172C605.84 447.273 605.812 447.387 605.812 447.512C605.812 447.668 605.84 447.799 605.895 447.904C605.953 448.01 606.037 448.104 606.146 448.186C606.256 448.268 606.389 448.342 606.545 448.408C606.701 448.475 606.879 448.547 607.078 448.625C607.344 448.727 607.582 448.832 607.793 448.941C608.004 449.047 608.184 449.168 608.332 449.305C608.48 449.438 608.594 449.592 608.672 449.768C608.754 449.943 608.795 450.152 608.795 450.395C608.795 450.691 608.729 450.949 608.596 451.168C608.467 451.387 608.293 451.568 608.074 451.713C607.855 451.857 607.604 451.965 607.318 452.035C607.033 452.105 606.734 452.141 606.422 452.141C605.805 452.141 605.27 452.021 604.816 451.783ZM610.77 444.477C610.598 444.477 610.451 444.418 610.33 444.301C610.209 444.184 610.148 444.035 610.148 443.855C610.148 443.676 610.209 443.527 610.33 443.41C610.451 443.289 610.598 443.229 610.77 443.229C610.945 443.229 611.094 443.289 611.215 443.41C611.34 443.527 611.402 443.676 611.402 443.855C611.402 444.027 611.34 444.174 611.215 444.295C611.094 444.416 610.945 444.477 610.77 444.477ZM611.238 452H610.277V446H611.238V452ZM618.305 451.52C618.305 453.723 617.25 454.824 615.141 454.824C614.398 454.824 613.75 454.684 613.195 454.402V453.441C613.871 453.816 614.516 454.004 615.129 454.004C616.605 454.004 617.344 453.219 617.344 451.648V450.992H617.32C616.863 451.758 616.176 452.141 615.258 452.141C614.512 452.141 613.91 451.875 613.453 451.344C613 450.809 612.773 450.092 612.773 449.193C612.773 448.174 613.018 447.363 613.506 446.762C613.998 446.16 614.67 445.859 615.521 445.859C616.33 445.859 616.93 446.184 617.32 446.832H617.344V446H618.305V451.52ZM617.344 449.287V448.402C617.344 447.926 617.182 447.518 616.857 447.178C616.537 446.838 616.137 446.668 615.656 446.668C615.062 446.668 614.598 446.885 614.262 447.318C613.926 447.748 613.758 448.352 613.758 449.129C613.758 449.797 613.918 450.332 614.238 450.734C614.562 451.133 614.99 451.332 615.521 451.332C616.061 451.332 616.498 451.141 616.834 450.758C617.174 450.375 617.344 449.885 617.344 449.287ZM625.23 452H624.27V448.578C624.27 447.305 623.805 446.668 622.875 446.668C622.395 446.668 621.996 446.85 621.68 447.213C621.367 447.572 621.211 448.027 621.211 448.578V452H620.25V446H621.211V446.996H621.234C621.688 446.238 622.344 445.859 623.203 445.859C623.859 445.859 624.361 446.072 624.709 446.498C625.057 446.92 625.23 447.531 625.23 448.332V452ZM634.594 451.748C634.594 452.732 634.395 453.49 633.996 454.021C633.602 454.557 633.035 454.824 632.297 454.824C632.023 454.824 631.758 454.762 631.5 454.637V453.74C631.789 453.916 632.062 454.004 632.32 454.004C633.195 454.004 633.633 453.305 633.633 451.906V446H634.594V451.748ZM634.125 444.477C633.953 444.477 633.807 444.418 633.686 444.301C633.564 444.184 633.504 444.035 633.504 443.855C633.504 443.676 633.564 443.527 633.686 443.41C633.807 443.289 633.953 443.229 634.125 443.229C634.301 443.229 634.449 443.289 634.57 443.41C634.695 443.527 634.758 443.676 634.758 443.855C634.758 444.027 634.695 444.174 634.57 444.295C634.449 444.416 634.301 444.477 634.125 444.477ZM639.047 452.141C638.16 452.141 637.451 451.861 636.92 451.303C636.393 450.74 636.129 449.996 636.129 449.07C636.129 448.062 636.404 447.275 636.955 446.709C637.506 446.143 638.25 445.859 639.188 445.859C640.082 445.859 640.779 446.135 641.279 446.686C641.783 447.236 642.035 448 642.035 448.977C642.035 449.934 641.764 450.701 641.221 451.279C640.682 451.854 639.957 452.141 639.047 452.141ZM639.117 446.668C638.5 446.668 638.012 446.879 637.652 447.301C637.293 447.719 637.113 448.297 637.113 449.035C637.113 449.746 637.295 450.307 637.658 450.717C638.021 451.127 638.508 451.332 639.117 451.332C639.738 451.332 640.215 451.131 640.547 450.729C640.883 450.326 641.051 449.754 641.051 449.012C641.051 448.262 640.883 447.684 640.547 447.277C640.215 446.871 639.738 446.668 639.117 446.668ZM644.555 451.133H644.531V452H643.57V443.117H644.531V447.055H644.555C645.027 446.258 645.719 445.859 646.629 445.859C647.398 445.859 648 446.129 648.434 446.668C648.871 447.203 649.09 447.922 649.09 448.824C649.09 449.828 648.846 450.633 648.357 451.238C647.869 451.84 647.201 452.141 646.354 452.141C645.561 452.141 644.961 451.805 644.555 451.133ZM644.531 448.713V449.551C644.531 450.047 644.691 450.469 645.012 450.816C645.336 451.16 645.746 451.332 646.242 451.332C646.824 451.332 647.279 451.109 647.607 450.664C647.939 450.219 648.105 449.6 648.105 448.807C648.105 448.139 647.951 447.615 647.643 447.236C647.334 446.857 646.916 446.668 646.389 446.668C645.83 446.668 645.381 446.863 645.041 447.254C644.701 447.641 644.531 448.127 644.531 448.713ZM659.73 453.91H658.875C657.664 452.527 657.059 450.822 657.059 448.795C657.059 446.76 657.664 445.027 658.875 443.598H659.742C658.516 445.082 657.902 446.811 657.902 448.783C657.902 450.74 658.512 452.449 659.73 453.91ZM663.615 451.941C663.389 452.066 663.09 452.129 662.719 452.129C661.668 452.129 661.143 451.543 661.143 450.371V446.82H660.111V446H661.143V444.535L662.104 444.225V446H663.615V446.82H662.104V450.201C662.104 450.604 662.172 450.891 662.309 451.062C662.445 451.234 662.672 451.32 662.988 451.32C663.23 451.32 663.439 451.254 663.615 451.121V451.941ZM669.721 449.24H665.484C665.5 449.908 665.68 450.424 666.023 450.787C666.367 451.15 666.84 451.332 667.441 451.332C668.117 451.332 668.738 451.109 669.305 450.664V451.566C668.777 451.949 668.08 452.141 667.213 452.141C666.365 452.141 665.699 451.869 665.215 451.326C664.73 450.779 664.488 450.012 664.488 449.023C664.488 448.09 664.752 447.33 665.279 446.744C665.811 446.154 666.469 445.859 667.254 445.859C668.039 445.859 668.646 446.113 669.076 446.621C669.506 447.129 669.721 447.834 669.721 448.736V449.24ZM668.736 448.426C668.732 447.871 668.598 447.439 668.332 447.131C668.07 446.822 667.705 446.668 667.236 446.668C666.783 446.668 666.398 446.83 666.082 447.154C665.766 447.479 665.57 447.902 665.496 448.426H668.736ZM670.816 451.783V450.752C671.34 451.139 671.916 451.332 672.545 451.332C673.389 451.332 673.811 451.051 673.811 450.488C673.811 450.328 673.773 450.193 673.699 450.084C673.629 449.971 673.531 449.871 673.406 449.785C673.285 449.699 673.141 449.623 672.973 449.557C672.809 449.486 672.631 449.414 672.439 449.34C672.174 449.234 671.939 449.129 671.736 449.023C671.537 448.914 671.369 448.793 671.232 448.66C671.1 448.523 670.998 448.369 670.928 448.197C670.861 448.025 670.828 447.824 670.828 447.594C670.828 447.312 670.893 447.064 671.021 446.85C671.15 446.631 671.322 446.449 671.537 446.305C671.752 446.156 671.996 446.045 672.27 445.971C672.547 445.896 672.832 445.859 673.125 445.859C673.645 445.859 674.109 445.949 674.52 446.129V447.102C674.078 446.812 673.57 446.668 672.996 446.668C672.816 446.668 672.654 446.689 672.51 446.732C672.365 446.771 672.24 446.828 672.135 446.902C672.033 446.977 671.953 447.066 671.895 447.172C671.84 447.273 671.812 447.387 671.812 447.512C671.812 447.668 671.84 447.799 671.895 447.904C671.953 448.01 672.037 448.104 672.146 448.186C672.256 448.268 672.389 448.342 672.545 448.408C672.701 448.475 672.879 448.547 673.078 448.625C673.344 448.727 673.582 448.832 673.793 448.941C674.004 449.047 674.184 449.168 674.332 449.305C674.48 449.438 674.594 449.592 674.672 449.768C674.754 449.943 674.795 450.152 674.795 450.395C674.795 450.691 674.729 450.949 674.596 451.168C674.467 451.387 674.293 451.568 674.074 451.713C673.855 451.857 673.604 451.965 673.318 452.035C673.033 452.105 672.734 452.141 672.422 452.141C671.805 452.141 671.27 452.021 670.816 451.783ZM677.238 452H676.277V443.117H677.238V452ZM679.676 444.477C679.504 444.477 679.357 444.418 679.236 444.301C679.115 444.184 679.055 444.035 679.055 443.855C679.055 443.676 679.115 443.527 679.236 443.41C679.357 443.289 679.504 443.229 679.676 443.229C679.852 443.229 680 443.289 680.121 443.41C680.246 443.527 680.309 443.676 680.309 443.855C680.309 444.027 680.246 444.174 680.121 444.295C680 444.416 679.852 444.477 679.676 444.477ZM680.145 452H679.184V446H680.145V452ZM681.727 451.783V450.752C682.25 451.139 682.826 451.332 683.455 451.332C684.299 451.332 684.721 451.051 684.721 450.488C684.721 450.328 684.684 450.193 684.609 450.084C684.539 449.971 684.441 449.871 684.316 449.785C684.195 449.699 684.051 449.623 683.883 449.557C683.719 449.486 683.541 449.414 683.35 449.34C683.084 449.234 682.85 449.129 682.646 449.023C682.447 448.914 682.279 448.793 682.143 448.66C682.01 448.523 681.908 448.369 681.838 448.197C681.771 448.025 681.738 447.824 681.738 447.594C681.738 447.312 681.803 447.064 681.932 446.85C682.061 446.631 682.232 446.449 682.447 446.305C682.662 446.156 682.906 446.045 683.18 445.971C683.457 445.896 683.742 445.859 684.035 445.859C684.555 445.859 685.02 445.949 685.43 446.129V447.102C684.988 446.812 684.48 446.668 683.906 446.668C683.727 446.668 683.564 446.689 683.42 446.732C683.275 446.771 683.15 446.828 683.045 446.902C682.943 446.977 682.863 447.066 682.805 447.172C682.75 447.273 682.723 447.387 682.723 447.512C682.723 447.668 682.75 447.799 682.805 447.904C682.863 448.01 682.947 448.104 683.057 448.186C683.166 448.268 683.299 448.342 683.455 448.408C683.611 448.475 683.789 448.547 683.988 448.625C684.254 448.727 684.492 448.832 684.703 448.941C684.914 449.047 685.094 449.168 685.242 449.305C685.391 449.438 685.504 449.592 685.582 449.768C685.664 449.943 685.705 450.152 685.705 450.395C685.705 450.691 685.639 450.949 685.506 451.168C685.377 451.387 685.203 451.568 684.984 451.713C684.766 451.857 684.514 451.965 684.229 452.035C683.943 452.105 683.645 452.141 683.332 452.141C682.715 452.141 682.18 452.021 681.727 451.783ZM690.258 449.035H687.059V448.279H690.258V449.035ZM691.629 451.783V450.752C692.152 451.139 692.729 451.332 693.357 451.332C694.201 451.332 694.623 451.051 694.623 450.488C694.623 450.328 694.586 450.193 694.512 450.084C694.441 449.971 694.344 449.871 694.219 449.785C694.098 449.699 693.953 449.623 693.785 449.557C693.621 449.486 693.443 449.414 693.252 449.34C692.986 449.234 692.752 449.129 692.549 449.023C692.35 448.914 692.182 448.793 692.045 448.66C691.912 448.523 691.811 448.369 691.74 448.197C691.674 448.025 691.641 447.824 691.641 447.594C691.641 447.312 691.705 447.064 691.834 446.85C691.963 446.631 692.135 446.449 692.35 446.305C692.564 446.156 692.809 446.045 693.082 445.971C693.359 445.896 693.645 445.859 693.938 445.859C694.457 445.859 694.922 445.949 695.332 446.129V447.102C694.891 446.812 694.383 446.668 693.809 446.668C693.629 446.668 693.467 446.689 693.322 446.732C693.178 446.771 693.053 446.828 692.947 446.902C692.846 446.977 692.766 447.066 692.707 447.172C692.652 447.273 692.625 447.387 692.625 447.512C692.625 447.668 692.652 447.799 692.707 447.904C692.766 448.01 692.85 448.104 692.959 448.186C693.068 448.268 693.201 448.342 693.357 448.408C693.514 448.475 693.691 448.547 693.891 448.625C694.156 448.727 694.395 448.832 694.605 448.941C694.816 449.047 694.996 449.168 695.145 449.305C695.293 449.438 695.406 449.592 695.484 449.768C695.566 449.943 695.607 450.152 695.607 450.395C695.607 450.691 695.541 450.949 695.408 451.168C695.279 451.387 695.105 451.568 694.887 451.713C694.668 451.857 694.416 451.965 694.131 452.035C693.846 452.105 693.547 452.141 693.234 452.141C692.617 452.141 692.082 452.021 691.629 451.783ZM699.873 451.941C699.646 452.066 699.348 452.129 698.977 452.129C697.926 452.129 697.4 451.543 697.4 450.371V446.82H696.369V446H697.4V444.535L698.361 444.225V446H699.873V446.82H698.361V450.201C698.361 450.604 698.43 450.891 698.566 451.062C698.703 451.234 698.93 451.32 699.246 451.32C699.488 451.32 699.697 451.254 699.873 451.121V451.941ZM705.451 452H704.49V451.062H704.467C704.049 451.781 703.434 452.141 702.621 452.141C702.023 452.141 701.555 451.982 701.215 451.666C700.879 451.35 700.711 450.93 700.711 450.406C700.711 449.285 701.371 448.633 702.691 448.449L704.49 448.197C704.49 447.178 704.078 446.668 703.254 446.668C702.531 446.668 701.879 446.914 701.297 447.406V446.422C701.887 446.047 702.566 445.859 703.336 445.859C704.746 445.859 705.451 446.605 705.451 448.098V452ZM704.49 448.965L703.043 449.164C702.598 449.227 702.262 449.338 702.035 449.498C701.809 449.654 701.695 449.934 701.695 450.336C701.695 450.629 701.799 450.869 702.006 451.057C702.217 451.24 702.496 451.332 702.844 451.332C703.32 451.332 703.713 451.166 704.021 450.834C704.334 450.498 704.49 450.074 704.49 449.562V448.965ZM710.227 443.961C710.039 443.855 709.826 443.803 709.588 443.803C708.916 443.803 708.58 444.227 708.58 445.074V446H709.986V446.82H708.58V452H707.625V446.82H706.6V446H707.625V445.027C707.625 444.398 707.807 443.902 708.17 443.539C708.533 443.172 708.986 442.988 709.529 442.988C709.822 442.988 710.055 443.023 710.227 443.094V443.961ZM713.988 443.961C713.801 443.855 713.588 443.803 713.35 443.803C712.678 443.803 712.342 444.227 712.342 445.074V446H713.748V446.82H712.342V452H711.387V446.82H710.361V446H711.387V445.027C711.387 444.398 711.568 443.902 711.932 443.539C712.295 443.172 712.748 442.988 713.291 442.988C713.584 442.988 713.816 443.023 713.988 443.094V443.961ZM714.809 453.91H713.953C715.172 452.449 715.781 450.74 715.781 448.783C715.781 446.811 715.168 445.082 713.941 443.598H714.809C716.027 445.027 716.637 446.76 716.637 448.795C716.637 450.822 716.027 452.527 714.809 453.91Z" fill="black" fill-opacity="0.86"/>
<rect x="578" y="531" width="178" height="36" rx="18" fill="white"/>
<rect x="578" y="531" width="178" height="36" rx="18" stroke="#E8EBED"/>
<path d="M592.57 547.531L590.965 547.859L592.078 549.283L591.434 549.729L590.52 548.176L589.594 549.729L588.949 549.283L590.062 547.859L588.445 547.531L588.709 546.799L590.244 547.379L590.109 545.598H590.918L590.783 547.379L592.324 546.799L592.57 547.531ZM593.613 553.783V552.752C594.137 553.139 594.713 553.332 595.342 553.332C596.186 553.332 596.607 553.051 596.607 552.488C596.607 552.328 596.57 552.193 596.496 552.084C596.426 551.971 596.328 551.871 596.203 551.785C596.082 551.699 595.938 551.623 595.77 551.557C595.605 551.486 595.428 551.414 595.236 551.34C594.971 551.234 594.736 551.129 594.533 551.023C594.334 550.914 594.166 550.793 594.029 550.66C593.896 550.523 593.795 550.369 593.725 550.197C593.658 550.025 593.625 549.824 593.625 549.594C593.625 549.312 593.689 549.064 593.818 548.85C593.947 548.631 594.119 548.449 594.334 548.305C594.549 548.156 594.793 548.045 595.066 547.971C595.344 547.896 595.629 547.859 595.922 547.859C596.441 547.859 596.906 547.949 597.316 548.129V549.102C596.875 548.812 596.367 548.668 595.793 548.668C595.613 548.668 595.451 548.689 595.307 548.732C595.162 548.771 595.037 548.828 594.932 548.902C594.83 548.977 594.75 549.066 594.691 549.172C594.637 549.273 594.609 549.387 594.609 549.512C594.609 549.668 594.637 549.799 594.691 549.904C594.75 550.01 594.834 550.104 594.943 550.186C595.053 550.268 595.186 550.342 595.342 550.408C595.498 550.475 595.676 550.547 595.875 550.625C596.141 550.727 596.379 550.832 596.59 550.941C596.801 551.047 596.98 551.168 597.129 551.305C597.277 551.438 597.391 551.592 597.469 551.768C597.551 551.943 597.592 552.152 597.592 552.395C597.592 552.691 597.525 552.949 597.393 553.168C597.264 553.387 597.09 553.568 596.871 553.713C596.652 553.857 596.4 553.965 596.115 554.035C595.83 554.105 595.531 554.141 595.219 554.141C594.602 554.141 594.066 554.021 593.613 553.783ZM601.857 553.941C601.631 554.066 601.332 554.129 600.961 554.129C599.91 554.129 599.385 553.543 599.385 552.371V548.82H598.354V548H599.385V546.535L600.346 546.225V548H601.857V548.82H600.346V552.201C600.346 552.604 600.414 552.891 600.551 553.062C600.688 553.234 600.914 553.32 601.23 553.32C601.473 553.32 601.682 553.254 601.857 553.121V553.941ZM607.436 554H606.475V553.062H606.451C606.033 553.781 605.418 554.141 604.605 554.141C604.008 554.141 603.539 553.982 603.199 553.666C602.863 553.35 602.695 552.93 602.695 552.406C602.695 551.285 603.355 550.633 604.676 550.449L606.475 550.197C606.475 549.178 606.062 548.668 605.238 548.668C604.516 548.668 603.863 548.914 603.281 549.406V548.422C603.871 548.047 604.551 547.859 605.32 547.859C606.73 547.859 607.436 548.605 607.436 550.098V554ZM606.475 550.965L605.027 551.164C604.582 551.227 604.246 551.338 604.02 551.498C603.793 551.654 603.68 551.934 603.68 552.336C603.68 552.629 603.783 552.869 603.99 553.057C604.201 553.24 604.48 553.332 604.828 553.332C605.305 553.332 605.697 553.166 606.006 552.834C606.318 552.498 606.475 552.074 606.475 551.562V550.965ZM612.375 548.973C612.207 548.844 611.965 548.779 611.648 548.779C611.238 548.779 610.895 548.973 610.617 549.359C610.344 549.746 610.207 550.273 610.207 550.941V554H609.246V548H610.207V549.236H610.23C610.367 548.814 610.576 548.486 610.857 548.252C611.139 548.014 611.453 547.895 611.801 547.895C612.051 547.895 612.242 547.922 612.375 547.977V548.973ZM616.201 553.941C615.975 554.066 615.676 554.129 615.305 554.129C614.254 554.129 613.729 553.543 613.729 552.371V548.82H612.697V548H613.729V546.535L614.689 546.225V548H616.201V548.82H614.689V552.201C614.689 552.604 614.758 552.891 614.895 553.062C615.031 553.234 615.258 553.32 615.574 553.32C615.816 553.32 616.025 553.254 616.201 553.121V553.941ZM625.031 553.748C625.031 554.732 624.832 555.49 624.434 556.021C624.039 556.557 623.473 556.824 622.734 556.824C622.461 556.824 622.195 556.762 621.938 556.637V555.74C622.227 555.916 622.5 556.004 622.758 556.004C623.633 556.004 624.07 555.305 624.07 553.906V548H625.031V553.748ZM624.562 546.477C624.391 546.477 624.244 546.418 624.123 546.301C624.002 546.184 623.941 546.035 623.941 545.855C623.941 545.676 624.002 545.527 624.123 545.41C624.244 545.289 624.391 545.229 624.562 545.229C624.738 545.229 624.887 545.289 625.008 545.41C625.133 545.527 625.195 545.676 625.195 545.855C625.195 546.027 625.133 546.174 625.008 546.295C624.887 546.416 624.738 546.477 624.562 546.477ZM629.484 554.141C628.598 554.141 627.889 553.861 627.357 553.303C626.83 552.74 626.566 551.996 626.566 551.07C626.566 550.062 626.842 549.275 627.393 548.709C627.943 548.143 628.688 547.859 629.625 547.859C630.52 547.859 631.217 548.135 631.717 548.686C632.221 549.236 632.473 550 632.473 550.977C632.473 551.934 632.201 552.701 631.658 553.279C631.119 553.854 630.395 554.141 629.484 554.141ZM629.555 548.668C628.938 548.668 628.449 548.879 628.09 549.301C627.73 549.719 627.551 550.297 627.551 551.035C627.551 551.746 627.732 552.307 628.096 552.717C628.459 553.127 628.945 553.332 629.555 553.332C630.176 553.332 630.652 553.131 630.984 552.729C631.32 552.326 631.488 551.754 631.488 551.012C631.488 550.262 631.32 549.684 630.984 549.277C630.652 548.871 630.176 548.668 629.555 548.668ZM634.992 553.133H634.969V554H634.008V545.117H634.969V549.055H634.992C635.465 548.258 636.156 547.859 637.066 547.859C637.836 547.859 638.438 548.129 638.871 548.668C639.309 549.203 639.527 549.922 639.527 550.824C639.527 551.828 639.283 552.633 638.795 553.238C638.307 553.84 637.639 554.141 636.791 554.141C635.998 554.141 635.398 553.805 634.992 553.133ZM634.969 550.713V551.551C634.969 552.047 635.129 552.469 635.449 552.816C635.773 553.16 636.184 553.332 636.68 553.332C637.262 553.332 637.717 553.109 638.045 552.664C638.377 552.219 638.543 551.6 638.543 550.807C638.543 550.139 638.389 549.615 638.08 549.236C637.771 548.857 637.354 548.668 636.826 548.668C636.268 548.668 635.818 548.863 635.479 549.254C635.139 549.641 634.969 550.127 634.969 550.713ZM650.168 555.91H649.312C648.102 554.527 647.496 552.822 647.496 550.795C647.496 548.76 648.102 547.027 649.312 545.598H650.18C648.953 547.082 648.34 548.811 648.34 550.783C648.34 552.74 648.949 554.449 650.168 555.91ZM654.053 553.941C653.826 554.066 653.527 554.129 653.156 554.129C652.105 554.129 651.58 553.543 651.58 552.371V548.82H650.549V548H651.58V546.535L652.541 546.225V548H654.053V548.82H652.541V552.201C652.541 552.604 652.609 552.891 652.746 553.062C652.883 553.234 653.109 553.32 653.426 553.32C653.668 553.32 653.877 553.254 654.053 553.121V553.941ZM660.158 551.24H655.922C655.938 551.908 656.117 552.424 656.461 552.787C656.805 553.15 657.277 553.332 657.879 553.332C658.555 553.332 659.176 553.109 659.742 552.664V553.566C659.215 553.949 658.518 554.141 657.65 554.141C656.803 554.141 656.137 553.869 655.652 553.326C655.168 552.779 654.926 552.012 654.926 551.023C654.926 550.09 655.189 549.33 655.717 548.744C656.248 548.154 656.906 547.859 657.691 547.859C658.477 547.859 659.084 548.113 659.514 548.621C659.943 549.129 660.158 549.834 660.158 550.736V551.24ZM659.174 550.426C659.17 549.871 659.035 549.439 658.77 549.131C658.508 548.822 658.143 548.668 657.674 548.668C657.221 548.668 656.836 548.83 656.52 549.154C656.203 549.479 656.008 549.902 655.934 550.426H659.174ZM661.254 553.783V552.752C661.777 553.139 662.354 553.332 662.982 553.332C663.826 553.332 664.248 553.051 664.248 552.488C664.248 552.328 664.211 552.193 664.137 552.084C664.066 551.971 663.969 551.871 663.844 551.785C663.723 551.699 663.578 551.623 663.41 551.557C663.246 551.486 663.068 551.414 662.877 551.34C662.611 551.234 662.377 551.129 662.174 551.023C661.975 550.914 661.807 550.793 661.67 550.66C661.537 550.523 661.436 550.369 661.365 550.197C661.299 550.025 661.266 549.824 661.266 549.594C661.266 549.312 661.33 549.064 661.459 548.85C661.588 548.631 661.76 548.449 661.975 548.305C662.189 548.156 662.434 548.045 662.707 547.971C662.984 547.896 663.27 547.859 663.562 547.859C664.082 547.859 664.547 547.949 664.957 548.129V549.102C664.516 548.812 664.008 548.668 663.434 548.668C663.254 548.668 663.092 548.689 662.947 548.732C662.803 548.771 662.678 548.828 662.572 548.902C662.471 548.977 662.391 549.066 662.332 549.172C662.277 549.273 662.25 549.387 662.25 549.512C662.25 549.668 662.277 549.799 662.332 549.904C662.391 550.01 662.475 550.104 662.584 550.186C662.693 550.268 662.826 550.342 662.982 550.408C663.139 550.475 663.316 550.547 663.516 550.625C663.781 550.727 664.02 550.832 664.23 550.941C664.441 551.047 664.621 551.168 664.77 551.305C664.918 551.438 665.031 551.592 665.109 551.768C665.191 551.943 665.232 552.152 665.232 552.395C665.232 552.691 665.166 552.949 665.033 553.168C664.904 553.387 664.73 553.568 664.512 553.713C664.293 553.857 664.041 553.965 663.756 554.035C663.471 554.105 663.172 554.141 662.859 554.141C662.242 554.141 661.707 554.021 661.254 553.783ZM667.676 554H666.715V545.117H667.676V554ZM670.113 546.477C669.941 546.477 669.795 546.418 669.674 546.301C669.553 546.184 669.492 546.035 669.492 545.855C669.492 545.676 669.553 545.527 669.674 545.41C669.795 545.289 669.941 545.229 670.113 545.229C670.289 545.229 670.438 545.289 670.559 545.41C670.684 545.527 670.746 545.676 670.746 545.855C670.746 546.027 670.684 546.174 670.559 546.295C670.438 546.416 670.289 546.477 670.113 546.477ZM670.582 554H669.621V548H670.582V554ZM672.164 553.783V552.752C672.688 553.139 673.264 553.332 673.893 553.332C674.736 553.332 675.158 553.051 675.158 552.488C675.158 552.328 675.121 552.193 675.047 552.084C674.977 551.971 674.879 551.871 674.754 551.785C674.633 551.699 674.488 551.623 674.32 551.557C674.156 551.486 673.979 551.414 673.787 551.34C673.521 551.234 673.287 551.129 673.084 551.023C672.885 550.914 672.717 550.793 672.58 550.66C672.447 550.523 672.346 550.369 672.275 550.197C672.209 550.025 672.176 549.824 672.176 549.594C672.176 549.312 672.24 549.064 672.369 548.85C672.498 548.631 672.67 548.449 672.885 548.305C673.1 548.156 673.344 548.045 673.617 547.971C673.895 547.896 674.18 547.859 674.473 547.859C674.992 547.859 675.457 547.949 675.867 548.129V549.102C675.426 548.812 674.918 548.668 674.344 548.668C674.164 548.668 674.002 548.689 673.857 548.732C673.713 548.771 673.588 548.828 673.482 548.902C673.381 548.977 673.301 549.066 673.242 549.172C673.188 549.273 673.16 549.387 673.16 549.512C673.16 549.668 673.188 549.799 673.242 549.904C673.301 550.01 673.385 550.104 673.494 550.186C673.604 550.268 673.736 550.342 673.893 550.408C674.049 550.475 674.227 550.547 674.426 550.625C674.691 550.727 674.93 550.832 675.141 550.941C675.352 551.047 675.531 551.168 675.68 551.305C675.828 551.438 675.941 551.592 676.02 551.768C676.102 551.943 676.143 552.152 676.143 552.395C676.143 552.691 676.076 552.949 675.943 553.168C675.814 553.387 675.641 553.568 675.422 553.713C675.203 553.857 674.951 553.965 674.666 554.035C674.381 554.105 674.082 554.141 673.77 554.141C673.152 554.141 672.617 554.021 672.164 553.783ZM680.695 551.035H677.496V550.279H680.695V551.035ZM682.066 553.783V552.752C682.59 553.139 683.166 553.332 683.795 553.332C684.639 553.332 685.061 553.051 685.061 552.488C685.061 552.328 685.023 552.193 684.949 552.084C684.879 551.971 684.781 551.871 684.656 551.785C684.535 551.699 684.391 551.623 684.223 551.557C684.059 551.486 683.881 551.414 683.689 551.34C683.424 551.234 683.189 551.129 682.986 551.023C682.787 550.914 682.619 550.793 682.482 550.66C682.35 550.523 682.248 550.369 682.178 550.197C682.111 550.025 682.078 549.824 682.078 549.594C682.078 549.312 682.143 549.064 682.271 548.85C682.4 548.631 682.572 548.449 682.787 548.305C683.002 548.156 683.246 548.045 683.52 547.971C683.797 547.896 684.082 547.859 684.375 547.859C684.895 547.859 685.359 547.949 685.77 548.129V549.102C685.328 548.812 684.82 548.668 684.246 548.668C684.066 548.668 683.904 548.689 683.76 548.732C683.615 548.771 683.49 548.828 683.385 548.902C683.283 548.977 683.203 549.066 683.145 549.172C683.09 549.273 683.062 549.387 683.062 549.512C683.062 549.668 683.09 549.799 683.145 549.904C683.203 550.01 683.287 550.104 683.396 550.186C683.506 550.268 683.639 550.342 683.795 550.408C683.951 550.475 684.129 550.547 684.328 550.625C684.594 550.727 684.832 550.832 685.043 550.941C685.254 551.047 685.434 551.168 685.582 551.305C685.73 551.438 685.844 551.592 685.922 551.768C686.004 551.943 686.045 552.152 686.045 552.395C686.045 552.691 685.979 552.949 685.846 553.168C685.717 553.387 685.543 553.568 685.324 553.713C685.105 553.857 684.854 553.965 684.568 554.035C684.283 554.105 683.984 554.141 683.672 554.141C683.055 554.141 682.52 554.021 682.066 553.783ZM690.311 553.941C690.084 554.066 689.785 554.129 689.414 554.129C688.363 554.129 687.838 553.543 687.838 552.371V548.82H686.807V548H687.838V546.535L688.799 546.225V548H690.311V548.82H688.799V552.201C688.799 552.604 688.867 552.891 689.004 553.062C689.141 553.234 689.367 553.32 689.684 553.32C689.926 553.32 690.135 553.254 690.311 553.121V553.941ZM695.889 554H694.928V553.062H694.904C694.486 553.781 693.871 554.141 693.059 554.141C692.461 554.141 691.992 553.982 691.652 553.666C691.316 553.35 691.148 552.93 691.148 552.406C691.148 551.285 691.809 550.633 693.129 550.449L694.928 550.197C694.928 549.178 694.516 548.668 693.691 548.668C692.969 548.668 692.316 548.914 691.734 549.406V548.422C692.324 548.047 693.004 547.859 693.773 547.859C695.184 547.859 695.889 548.605 695.889 550.098V554ZM694.928 550.965L693.48 551.164C693.035 551.227 692.699 551.338 692.473 551.498C692.246 551.654 692.133 551.934 692.133 552.336C692.133 552.629 692.236 552.869 692.443 553.057C692.654 553.24 692.934 553.332 693.281 553.332C693.758 553.332 694.15 553.166 694.459 552.834C694.771 552.498 694.928 552.074 694.928 551.562V550.965ZM700.664 545.961C700.477 545.855 700.264 545.803 700.025 545.803C699.354 545.803 699.018 546.227 699.018 547.074V548H700.424V548.82H699.018V554H698.062V548.82H697.037V548H698.062V547.027C698.062 546.398 698.244 545.902 698.607 545.539C698.971 545.172 699.424 544.988 699.967 544.988C700.26 544.988 700.492 545.023 700.664 545.094V545.961ZM704.426 545.961C704.238 545.855 704.025 545.803 703.787 545.803C703.115 545.803 702.779 546.227 702.779 547.074V548H704.186V548.82H702.779V554H701.824V548.82H700.799V548H701.824V547.027C701.824 546.398 702.006 545.902 702.369 545.539C702.732 545.172 703.186 544.988 703.729 544.988C704.021 544.988 704.254 545.023 704.426 545.094V545.961ZM709.014 545.598L704.982 555.395H704.086L708.105 545.598H709.014ZM714.193 554H713.232V553.062H713.209C712.791 553.781 712.176 554.141 711.363 554.141C710.766 554.141 710.297 553.982 709.957 553.666C709.621 553.35 709.453 552.93 709.453 552.406C709.453 551.285 710.113 550.633 711.434 550.449L713.232 550.197C713.232 549.178 712.82 548.668 711.996 548.668C711.273 548.668 710.621 548.914 710.039 549.406V548.422C710.629 548.047 711.309 547.859 712.078 547.859C713.488 547.859 714.193 548.605 714.193 550.098V554ZM713.232 550.965L711.785 551.164C711.34 551.227 711.004 551.338 710.777 551.498C710.551 551.654 710.438 551.934 710.438 552.336C710.438 552.629 710.541 552.869 710.748 553.057C710.959 553.24 711.238 553.332 711.586 553.332C712.062 553.332 712.455 553.166 712.764 552.834C713.076 552.498 713.232 552.074 713.232 551.562V550.965ZM721.125 554H720.164V552.98H720.141C719.695 553.754 719.008 554.141 718.078 554.141C717.324 554.141 716.721 553.873 716.268 553.338C715.818 552.799 715.594 552.066 715.594 551.141C715.594 550.148 715.844 549.354 716.344 548.756C716.844 548.158 717.51 547.859 718.342 547.859C719.166 547.859 719.766 548.184 720.141 548.832H720.164V545.117H721.125V554ZM720.164 551.287V550.402C720.164 549.918 720.004 549.508 719.684 549.172C719.363 548.836 718.957 548.668 718.465 548.668C717.879 548.668 717.418 548.883 717.082 549.312C716.746 549.742 716.578 550.336 716.578 551.094C716.578 551.785 716.738 552.332 717.059 552.734C717.383 553.133 717.816 553.332 718.359 553.332C718.895 553.332 719.328 553.139 719.66 552.752C719.996 552.365 720.164 551.877 720.164 551.287ZM731.59 554H730.629V550.555C730.629 549.891 730.525 549.41 730.318 549.113C730.115 548.816 729.771 548.668 729.287 548.668C728.877 548.668 728.527 548.855 728.238 549.23C727.953 549.605 727.811 550.055 727.811 550.578V554H726.85V550.438C726.85 549.258 726.395 548.668 725.484 548.668C725.062 548.668 724.715 548.846 724.441 549.201C724.168 549.553 724.031 550.012 724.031 550.578V554H723.07V548H724.031V548.949H724.055C724.48 548.223 725.102 547.859 725.918 547.859C726.328 547.859 726.686 547.975 726.99 548.205C727.295 548.432 727.504 548.73 727.617 549.102C728.062 548.273 728.727 547.859 729.609 547.859C730.93 547.859 731.59 548.674 731.59 550.303V554ZM733.898 546.477C733.727 546.477 733.58 546.418 733.459 546.301C733.338 546.184 733.277 546.035 733.277 545.855C733.277 545.676 733.338 545.527 733.459 545.41C733.58 545.289 733.727 545.229 733.898 545.229C734.074 545.229 734.223 545.289 734.344 545.41C734.469 545.527 734.531 545.676 734.531 545.855C734.531 546.027 734.469 546.174 734.344 546.295C734.223 546.416 734.074 546.477 733.898 546.477ZM734.367 554H733.406V548H734.367V554ZM741.293 554H740.332V550.578C740.332 549.305 739.867 548.668 738.938 548.668C738.457 548.668 738.059 548.85 737.742 549.213C737.43 549.572 737.273 550.027 737.273 550.578V554H736.312V548H737.273V548.996H737.297C737.75 548.238 738.406 547.859 739.266 547.859C739.922 547.859 740.424 548.072 740.771 548.498C741.119 548.92 741.293 549.531 741.293 550.332V554ZM743.133 555.91H742.277C743.496 554.449 744.105 552.74 744.105 550.783C744.105 548.811 743.492 547.082 742.266 545.598H743.133C744.352 547.027 744.961 548.76 744.961 550.795C744.961 552.822 744.352 554.527 743.133 555.91Z" fill="black" fill-opacity="0.63"/>
<rect x="578" y="644" width="157" height="36" rx="18" fill="white"/>
<rect x="578" y="644" width="157" height="36" rx="18" stroke="#E8EBED"/>
<path d="M592.57 660.531L590.965 660.859L592.078 662.283L591.434 662.729L590.52 661.176L589.594 662.729L588.949 662.283L590.062 660.859L588.445 660.531L588.709 659.799L590.244 660.379L590.109 658.598H590.918L590.783 660.379L592.324 659.799L592.57 660.531ZM599.098 666.52C599.098 668.723 598.043 669.824 595.934 669.824C595.191 669.824 594.543 669.684 593.988 669.402V668.441C594.664 668.816 595.309 669.004 595.922 669.004C597.398 669.004 598.137 668.219 598.137 666.648V665.992H598.113C597.656 666.758 596.969 667.141 596.051 667.141C595.305 667.141 594.703 666.875 594.246 666.344C593.793 665.809 593.566 665.092 593.566 664.193C593.566 663.174 593.811 662.363 594.299 661.762C594.791 661.16 595.463 660.859 596.314 660.859C597.123 660.859 597.723 661.184 598.113 661.832H598.137V661H599.098V666.52ZM598.137 664.287V663.402C598.137 662.926 597.975 662.518 597.65 662.178C597.33 661.838 596.93 661.668 596.449 661.668C595.855 661.668 595.391 661.885 595.055 662.318C594.719 662.748 594.551 663.352 594.551 664.129C594.551 664.797 594.711 665.332 595.031 665.734C595.355 666.133 595.783 666.332 596.314 666.332C596.854 666.332 597.291 666.141 597.627 665.758C597.967 665.375 598.137 664.885 598.137 664.287ZM605.865 664.24H601.629C601.645 664.908 601.824 665.424 602.168 665.787C602.512 666.15 602.984 666.332 603.586 666.332C604.262 666.332 604.883 666.109 605.449 665.664V666.566C604.922 666.949 604.225 667.141 603.357 667.141C602.51 667.141 601.844 666.869 601.359 666.326C600.875 665.779 600.633 665.012 600.633 664.023C600.633 663.09 600.896 662.33 601.424 661.744C601.955 661.154 602.613 660.859 603.398 660.859C604.184 660.859 604.791 661.113 605.221 661.621C605.65 662.129 605.865 662.834 605.865 663.736V664.24ZM604.881 663.426C604.877 662.871 604.742 662.439 604.477 662.131C604.215 661.822 603.85 661.668 603.381 661.668C602.928 661.668 602.543 661.83 602.227 662.154C601.91 662.479 601.715 662.902 601.641 663.426H604.881ZM612.305 667H611.344V663.578C611.344 662.305 610.879 661.668 609.949 661.668C609.469 661.668 609.07 661.85 608.754 662.213C608.441 662.572 608.285 663.027 608.285 663.578V667H607.324V661H608.285V661.996H608.309C608.762 661.238 609.418 660.859 610.277 660.859C610.934 660.859 611.436 661.072 611.783 661.498C612.131 661.92 612.305 662.531 612.305 663.332V667ZM618.943 664.24H614.707C614.723 664.908 614.902 665.424 615.246 665.787C615.59 666.15 616.062 666.332 616.664 666.332C617.34 666.332 617.961 666.109 618.527 665.664V666.566C618 666.949 617.303 667.141 616.436 667.141C615.588 667.141 614.922 666.869 614.438 666.326C613.953 665.779 613.711 665.012 613.711 664.023C613.711 663.09 613.975 662.33 614.502 661.744C615.033 661.154 615.691 660.859 616.477 660.859C617.262 660.859 617.869 661.113 618.299 661.621C618.729 662.129 618.943 662.834 618.943 663.736V664.24ZM617.959 663.426C617.955 662.871 617.82 662.439 617.555 662.131C617.293 661.822 616.928 661.668 616.459 661.668C616.006 661.668 615.621 661.83 615.305 662.154C614.988 662.479 614.793 662.902 614.719 663.426H617.959ZM623.531 661.973C623.363 661.844 623.121 661.779 622.805 661.779C622.395 661.779 622.051 661.973 621.773 662.359C621.5 662.746 621.363 663.273 621.363 663.941V667H620.402V661H621.363V662.236H621.387C621.523 661.814 621.732 661.486 622.014 661.252C622.295 661.014 622.609 660.895 622.957 660.895C623.207 660.895 623.398 660.922 623.531 660.977V661.973ZM628.869 667H627.908V666.062H627.885C627.467 666.781 626.852 667.141 626.039 667.141C625.441 667.141 624.973 666.982 624.633 666.666C624.297 666.35 624.129 665.93 624.129 665.406C624.129 664.285 624.789 663.633 626.109 663.449L627.908 663.197C627.908 662.178 627.496 661.668 626.672 661.668C625.949 661.668 625.297 661.914 624.715 662.406V661.422C625.305 661.047 625.984 660.859 626.754 660.859C628.164 660.859 628.869 661.605 628.869 663.098V667ZM627.908 663.965L626.461 664.164C626.016 664.227 625.68 664.338 625.453 664.498C625.227 664.654 625.113 664.934 625.113 665.336C625.113 665.629 625.217 665.869 625.424 666.057C625.635 666.24 625.914 666.332 626.262 666.332C626.738 666.332 627.131 666.166 627.439 665.834C627.752 665.498 627.908 665.074 627.908 664.562V663.965ZM633.463 666.941C633.236 667.066 632.938 667.129 632.566 667.129C631.516 667.129 630.99 666.543 630.99 665.371V661.82H629.959V661H630.99V659.535L631.951 659.225V661H633.463V661.82H631.951V665.201C631.951 665.604 632.02 665.891 632.156 666.062C632.293 666.234 632.52 666.32 632.836 666.32C633.078 666.32 633.287 666.254 633.463 666.121V666.941ZM639.568 664.24H635.332C635.348 664.908 635.527 665.424 635.871 665.787C636.215 666.15 636.688 666.332 637.289 666.332C637.965 666.332 638.586 666.109 639.152 665.664V666.566C638.625 666.949 637.928 667.141 637.061 667.141C636.213 667.141 635.547 666.869 635.062 666.326C634.578 665.779 634.336 665.012 634.336 664.023C634.336 663.09 634.6 662.33 635.127 661.744C635.658 661.154 636.316 660.859 637.102 660.859C637.887 660.859 638.494 661.113 638.924 661.621C639.354 662.129 639.568 662.834 639.568 663.736V664.24ZM638.584 663.426C638.58 662.871 638.445 662.439 638.18 662.131C637.918 661.822 637.553 661.668 637.084 661.668C636.631 661.668 636.246 661.83 635.93 662.154C635.613 662.479 635.418 662.902 635.344 663.426H638.584ZM648.105 659.477C647.934 659.477 647.787 659.418 647.666 659.301C647.545 659.184 647.484 659.035 647.484 658.855C647.484 658.676 647.545 658.527 647.666 658.41C647.787 658.289 647.934 658.229 648.105 658.229C648.281 658.229 648.43 658.289 648.551 658.41C648.676 658.527 648.738 658.676 648.738 658.855C648.738 659.027 648.676 659.174 648.551 659.295C648.43 659.416 648.281 659.477 648.105 659.477ZM648.574 667H647.613V661H648.574V667ZM655.641 667H654.68V665.98H654.656C654.211 666.754 653.523 667.141 652.594 667.141C651.84 667.141 651.236 666.873 650.783 666.338C650.334 665.799 650.109 665.066 650.109 664.141C650.109 663.148 650.359 662.354 650.859 661.756C651.359 661.158 652.025 660.859 652.857 660.859C653.682 660.859 654.281 661.184 654.656 661.832H654.68V658.117H655.641V667ZM654.68 664.287V663.402C654.68 662.918 654.52 662.508 654.199 662.172C653.879 661.836 653.473 661.668 652.98 661.668C652.395 661.668 651.934 661.883 651.598 662.312C651.262 662.742 651.094 663.336 651.094 664.094C651.094 664.785 651.254 665.332 651.574 665.734C651.898 666.133 652.332 666.332 652.875 666.332C653.41 666.332 653.844 666.139 654.176 665.752C654.512 665.365 654.68 664.877 654.68 664.287ZM666.691 668.91H665.836C664.625 667.527 664.02 665.822 664.02 663.795C664.02 661.76 664.625 660.027 665.836 658.598H666.703C665.477 660.082 664.863 661.811 664.863 663.783C664.863 665.74 665.473 667.449 666.691 668.91ZM670.576 666.941C670.35 667.066 670.051 667.129 669.68 667.129C668.629 667.129 668.104 666.543 668.104 665.371V661.82H667.072V661H668.104V659.535L669.064 659.225V661H670.576V661.82H669.064V665.201C669.064 665.604 669.133 665.891 669.27 666.062C669.406 666.234 669.633 666.32 669.949 666.32C670.191 666.32 670.4 666.254 670.576 666.121V666.941ZM676.682 664.24H672.445C672.461 664.908 672.641 665.424 672.984 665.787C673.328 666.15 673.801 666.332 674.402 666.332C675.078 666.332 675.699 666.109 676.266 665.664V666.566C675.738 666.949 675.041 667.141 674.174 667.141C673.326 667.141 672.66 666.869 672.176 666.326C671.691 665.779 671.449 665.012 671.449 664.023C671.449 663.09 671.713 662.33 672.24 661.744C672.771 661.154 673.43 660.859 674.215 660.859C675 660.859 675.607 661.113 676.037 661.621C676.467 662.129 676.682 662.834 676.682 663.736V664.24ZM675.697 663.426C675.693 662.871 675.559 662.439 675.293 662.131C675.031 661.822 674.666 661.668 674.197 661.668C673.744 661.668 673.359 661.83 673.043 662.154C672.727 662.479 672.531 662.902 672.457 663.426H675.697ZM677.777 666.783V665.752C678.301 666.139 678.877 666.332 679.506 666.332C680.35 666.332 680.771 666.051 680.771 665.488C680.771 665.328 680.734 665.193 680.66 665.084C680.59 664.971 680.492 664.871 680.367 664.785C680.246 664.699 680.102 664.623 679.934 664.557C679.77 664.486 679.592 664.414 679.4 664.34C679.135 664.234 678.9 664.129 678.697 664.023C678.498 663.914 678.33 663.793 678.193 663.66C678.061 663.523 677.959 663.369 677.889 663.197C677.822 663.025 677.789 662.824 677.789 662.594C677.789 662.312 677.854 662.064 677.982 661.85C678.111 661.631 678.283 661.449 678.498 661.305C678.713 661.156 678.957 661.045 679.23 660.971C679.508 660.896 679.793 660.859 680.086 660.859C680.605 660.859 681.07 660.949 681.48 661.129V662.102C681.039 661.812 680.531 661.668 679.957 661.668C679.777 661.668 679.615 661.689 679.471 661.732C679.326 661.771 679.201 661.828 679.096 661.902C678.994 661.977 678.914 662.066 678.855 662.172C678.801 662.273 678.773 662.387 678.773 662.512C678.773 662.668 678.801 662.799 678.855 662.904C678.914 663.01 678.998 663.104 679.107 663.186C679.217 663.268 679.35 663.342 679.506 663.408C679.662 663.475 679.84 663.547 680.039 663.625C680.305 663.727 680.543 663.832 680.754 663.941C680.965 664.047 681.145 664.168 681.293 664.305C681.441 664.438 681.555 664.592 681.633 664.768C681.715 664.943 681.756 665.152 681.756 665.395C681.756 665.691 681.689 665.949 681.557 666.168C681.428 666.387 681.254 666.568 681.035 666.713C680.816 666.857 680.564 666.965 680.279 667.035C679.994 667.105 679.695 667.141 679.383 667.141C678.766 667.141 678.23 667.021 677.777 666.783ZM684.199 667H683.238V658.117H684.199V667ZM686.637 659.477C686.465 659.477 686.318 659.418 686.197 659.301C686.076 659.184 686.016 659.035 686.016 658.855C686.016 658.676 686.076 658.527 686.197 658.41C686.318 658.289 686.465 658.229 686.637 658.229C686.812 658.229 686.961 658.289 687.082 658.41C687.207 658.527 687.27 658.676 687.27 658.855C687.27 659.027 687.207 659.174 687.082 659.295C686.961 659.416 686.812 659.477 686.637 659.477ZM687.105 667H686.145V661H687.105V667ZM688.688 666.783V665.752C689.211 666.139 689.787 666.332 690.416 666.332C691.26 666.332 691.682 666.051 691.682 665.488C691.682 665.328 691.645 665.193 691.57 665.084C691.5 664.971 691.402 664.871 691.277 664.785C691.156 664.699 691.012 664.623 690.844 664.557C690.68 664.486 690.502 664.414 690.311 664.34C690.045 664.234 689.811 664.129 689.607 664.023C689.408 663.914 689.24 663.793 689.104 663.66C688.971 663.523 688.869 663.369 688.799 663.197C688.732 663.025 688.699 662.824 688.699 662.594C688.699 662.312 688.764 662.064 688.893 661.85C689.021 661.631 689.193 661.449 689.408 661.305C689.623 661.156 689.867 661.045 690.141 660.971C690.418 660.896 690.703 660.859 690.996 660.859C691.516 660.859 691.98 660.949 692.391 661.129V662.102C691.949 661.812 691.441 661.668 690.867 661.668C690.688 661.668 690.525 661.689 690.381 661.732C690.236 661.771 690.111 661.828 690.006 661.902C689.904 661.977 689.824 662.066 689.766 662.172C689.711 662.273 689.684 662.387 689.684 662.512C689.684 662.668 689.711 662.799 689.766 662.904C689.824 663.01 689.908 663.104 690.018 663.186C690.127 663.268 690.26 663.342 690.416 663.408C690.572 663.475 690.75 663.547 690.949 663.625C691.215 663.727 691.453 663.832 691.664 663.941C691.875 664.047 692.055 664.168 692.203 664.305C692.352 664.438 692.465 664.592 692.543 664.768C692.625 664.943 692.666 665.152 692.666 665.395C692.666 665.691 692.6 665.949 692.467 666.168C692.338 666.387 692.164 666.568 691.945 666.713C691.727 666.857 691.475 666.965 691.189 667.035C690.904 667.105 690.605 667.141 690.293 667.141C689.676 667.141 689.141 667.021 688.688 666.783ZM697.219 664.035H694.02V663.279H697.219V664.035ZM698.59 666.783V665.752C699.113 666.139 699.689 666.332 700.318 666.332C701.162 666.332 701.584 666.051 701.584 665.488C701.584 665.328 701.547 665.193 701.473 665.084C701.402 664.971 701.305 664.871 701.18 664.785C701.059 664.699 700.914 664.623 700.746 664.557C700.582 664.486 700.404 664.414 700.213 664.34C699.947 664.234 699.713 664.129 699.51 664.023C699.311 663.914 699.143 663.793 699.006 663.66C698.873 663.523 698.771 663.369 698.701 663.197C698.635 663.025 698.602 662.824 698.602 662.594C698.602 662.312 698.666 662.064 698.795 661.85C698.924 661.631 699.096 661.449 699.311 661.305C699.525 661.156 699.77 661.045 700.043 660.971C700.32 660.896 700.605 660.859 700.898 660.859C701.418 660.859 701.883 660.949 702.293 661.129V662.102C701.852 661.812 701.344 661.668 700.77 661.668C700.59 661.668 700.428 661.689 700.283 661.732C700.139 661.771 700.014 661.828 699.908 661.902C699.807 661.977 699.727 662.066 699.668 662.172C699.613 662.273 699.586 662.387 699.586 662.512C699.586 662.668 699.613 662.799 699.668 662.904C699.727 663.01 699.811 663.104 699.92 663.186C700.029 663.268 700.162 663.342 700.318 663.408C700.475 663.475 700.652 663.547 700.852 663.625C701.117 663.727 701.355 663.832 701.566 663.941C701.777 664.047 701.957 664.168 702.105 664.305C702.254 664.438 702.367 664.592 702.445 664.768C702.527 664.943 702.568 665.152 702.568 665.395C702.568 665.691 702.502 665.949 702.369 666.168C702.24 666.387 702.066 666.568 701.848 666.713C701.629 666.857 701.377 666.965 701.092 667.035C700.807 667.105 700.508 667.141 700.195 667.141C699.578 667.141 699.043 667.021 698.59 666.783ZM706.834 666.941C706.607 667.066 706.309 667.129 705.938 667.129C704.887 667.129 704.361 666.543 704.361 665.371V661.82H703.33V661H704.361V659.535L705.322 659.225V661H706.834V661.82H705.322V665.201C705.322 665.604 705.391 665.891 705.527 666.062C705.664 666.234 705.891 666.32 706.207 666.32C706.449 666.32 706.658 666.254 706.834 666.121V666.941ZM712.412 667H711.451V666.062H711.428C711.01 666.781 710.395 667.141 709.582 667.141C708.984 667.141 708.516 666.982 708.176 666.666C707.84 666.35 707.672 665.93 707.672 665.406C707.672 664.285 708.332 663.633 709.652 663.449L711.451 663.197C711.451 662.178 711.039 661.668 710.215 661.668C709.492 661.668 708.84 661.914 708.258 662.406V661.422C708.848 661.047 709.527 660.859 710.297 660.859C711.707 660.859 712.412 661.605 712.412 663.098V667ZM711.451 663.965L710.004 664.164C709.559 664.227 709.223 664.338 708.996 664.498C708.77 664.654 708.656 664.934 708.656 665.336C708.656 665.629 708.76 665.869 708.967 666.057C709.178 666.24 709.457 666.332 709.805 666.332C710.281 666.332 710.674 666.166 710.982 665.834C711.295 665.498 711.451 665.074 711.451 664.562V663.965ZM717.188 658.961C717 658.855 716.787 658.803 716.549 658.803C715.877 658.803 715.541 659.227 715.541 660.074V661H716.947V661.82H715.541V667H714.586V661.82H713.561V661H714.586V660.027C714.586 659.398 714.768 658.902 715.131 658.539C715.494 658.172 715.947 657.988 716.49 657.988C716.783 657.988 717.016 658.023 717.188 658.094V658.961ZM720.949 658.961C720.762 658.855 720.549 658.803 720.311 658.803C719.639 658.803 719.303 659.227 719.303 660.074V661H720.709V661.82H719.303V667H718.348V661.82H717.322V661H718.348V660.027C718.348 659.398 718.529 658.902 718.893 658.539C719.256 658.172 719.709 657.988 720.252 657.988C720.545 657.988 720.777 658.023 720.949 658.094V658.961ZM721.77 668.91H720.914C722.133 667.449 722.742 665.74 722.742 663.783C722.742 661.811 722.129 660.082 720.902 658.598H721.77C722.988 660.027 723.598 661.76 723.598 663.795C723.598 665.822 722.988 667.527 721.77 668.91Z" fill="black" fill-opacity="0.36"/>
<rect x="260" y="689" width="155" height="36" rx="18" fill="white"/>
<rect x="260" y="689" width="155" height="36" rx="18" stroke="#E8EBED" stroke-opacity="0.55"/>
<path d="M274.57 705.531L272.965 705.859L274.078 707.283L273.434 707.729L272.52 706.176L271.594 707.729L270.949 707.283L272.062 705.859L270.445 705.531L270.709 704.799L272.244 705.379L272.109 703.598H272.918L272.783 705.379L274.324 704.799L274.57 705.531ZM281.098 712H280.137V710.98H280.113C279.668 711.754 278.98 712.141 278.051 712.141C277.297 712.141 276.693 711.873 276.24 711.338C275.791 710.799 275.566 710.066 275.566 709.141C275.566 708.148 275.816 707.354 276.316 706.756C276.816 706.158 277.482 705.859 278.314 705.859C279.139 705.859 279.738 706.184 280.113 706.832H280.137V703.117H281.098V712ZM280.137 709.287V708.402C280.137 707.918 279.977 707.508 279.656 707.172C279.336 706.836 278.93 706.668 278.438 706.668C277.852 706.668 277.391 706.883 277.055 707.312C276.719 707.742 276.551 708.336 276.551 709.094C276.551 709.785 276.711 710.332 277.031 710.734C277.355 711.133 277.789 711.332 278.332 711.332C278.867 711.332 279.301 711.139 279.633 710.752C279.969 710.365 280.137 709.877 280.137 709.287ZM285.551 712.141C284.664 712.141 283.955 711.861 283.424 711.303C282.896 710.74 282.633 709.996 282.633 709.07C282.633 708.062 282.908 707.275 283.459 706.709C284.01 706.143 284.754 705.859 285.691 705.859C286.586 705.859 287.283 706.135 287.783 706.686C288.287 707.236 288.539 708 288.539 708.977C288.539 709.934 288.268 710.701 287.725 711.279C287.186 711.854 286.461 712.141 285.551 712.141ZM285.621 706.668C285.004 706.668 284.516 706.879 284.156 707.301C283.797 707.719 283.617 708.297 283.617 709.035C283.617 709.746 283.799 710.307 284.162 710.717C284.525 711.127 285.012 711.332 285.621 711.332C286.242 711.332 286.719 711.131 287.051 710.729C287.387 710.326 287.555 709.754 287.555 709.012C287.555 708.262 287.387 707.684 287.051 707.277C286.719 706.871 286.242 706.668 285.621 706.668ZM297.633 706L295.834 712H294.838L293.602 707.705C293.555 707.541 293.523 707.355 293.508 707.148H293.484C293.473 707.289 293.432 707.471 293.361 707.693L292.02 712H291.059L289.242 706H290.25L291.492 710.512C291.531 710.648 291.559 710.828 291.574 711.051H291.621C291.633 710.879 291.668 710.695 291.727 710.5L293.109 706H293.988L295.23 710.523C295.27 710.668 295.299 710.848 295.318 711.062H295.365C295.373 710.91 295.406 710.73 295.465 710.523L296.684 706H297.633ZM303.727 712H302.766V708.578C302.766 707.305 302.301 706.668 301.371 706.668C300.891 706.668 300.492 706.85 300.176 707.213C299.863 707.572 299.707 708.027 299.707 708.578V712H298.746V706H299.707V706.996H299.73C300.184 706.238 300.84 705.859 301.699 705.859C302.355 705.859 302.857 706.072 303.205 706.498C303.553 706.92 303.727 707.531 303.727 708.332V712ZM306.504 712H305.543V703.117H306.504V712ZM310.957 712.141C310.07 712.141 309.361 711.861 308.83 711.303C308.303 710.74 308.039 709.996 308.039 709.07C308.039 708.062 308.314 707.275 308.865 706.709C309.416 706.143 310.16 705.859 311.098 705.859C311.992 705.859 312.689 706.135 313.189 706.686C313.693 707.236 313.945 708 313.945 708.977C313.945 709.934 313.674 710.701 313.131 711.279C312.592 711.854 311.867 712.141 310.957 712.141ZM311.027 706.668C310.41 706.668 309.922 706.879 309.562 707.301C309.203 707.719 309.023 708.297 309.023 709.035C309.023 709.746 309.205 710.307 309.568 710.717C309.932 711.127 310.418 711.332 311.027 711.332C311.648 711.332 312.125 711.131 312.457 710.729C312.793 710.326 312.961 709.754 312.961 709.012C312.961 708.262 312.793 707.684 312.457 707.277C312.125 706.871 311.648 706.668 311.027 706.668ZM319.775 712H318.814V711.062H318.791C318.373 711.781 317.758 712.141 316.945 712.141C316.348 712.141 315.879 711.982 315.539 711.666C315.203 711.35 315.035 710.93 315.035 710.406C315.035 709.285 315.695 708.633 317.016 708.449L318.814 708.197C318.814 707.178 318.402 706.668 317.578 706.668C316.855 706.668 316.203 706.914 315.621 707.406V706.422C316.211 706.047 316.891 705.859 317.66 705.859C319.07 705.859 319.775 706.605 319.775 708.098V712ZM318.814 708.965L317.367 709.164C316.922 709.227 316.586 709.338 316.359 709.498C316.133 709.654 316.02 709.934 316.02 710.336C316.02 710.629 316.123 710.869 316.33 711.057C316.541 711.24 316.82 711.332 317.168 711.332C317.645 711.332 318.037 711.166 318.346 710.834C318.658 710.498 318.814 710.074 318.814 709.562V708.965ZM326.707 712H325.746V710.98H325.723C325.277 711.754 324.59 712.141 323.66 712.141C322.906 712.141 322.303 711.873 321.85 711.338C321.4 710.799 321.176 710.066 321.176 709.141C321.176 708.148 321.426 707.354 321.926 706.756C322.426 706.158 323.092 705.859 323.924 705.859C324.748 705.859 325.348 706.184 325.723 706.832H325.746V703.117H326.707V712ZM325.746 709.287V708.402C325.746 707.918 325.586 707.508 325.266 707.172C324.945 706.836 324.539 706.668 324.047 706.668C323.461 706.668 323 706.883 322.664 707.312C322.328 707.742 322.16 708.336 322.16 709.094C322.16 709.785 322.32 710.332 322.641 710.734C322.965 711.133 323.398 711.332 323.941 711.332C324.477 711.332 324.91 711.139 325.242 710.752C325.578 710.365 325.746 709.877 325.746 709.287ZM340.359 711.52C340.359 713.723 339.305 714.824 337.195 714.824C336.453 714.824 335.805 714.684 335.25 714.402V713.441C335.926 713.816 336.57 714.004 337.184 714.004C338.66 714.004 339.398 713.219 339.398 711.648V710.992H339.375C338.918 711.758 338.23 712.141 337.312 712.141C336.566 712.141 335.965 711.875 335.508 711.344C335.055 710.809 334.828 710.092 334.828 709.193C334.828 708.174 335.072 707.363 335.561 706.762C336.053 706.16 336.725 705.859 337.576 705.859C338.385 705.859 338.984 706.184 339.375 706.832H339.398V706H340.359V711.52ZM339.398 709.287V708.402C339.398 707.926 339.236 707.518 338.912 707.178C338.592 706.838 338.191 706.668 337.711 706.668C337.117 706.668 336.652 706.885 336.316 707.318C335.98 707.748 335.812 708.352 335.812 709.129C335.812 709.797 335.973 710.332 336.293 710.734C336.617 711.133 337.045 711.332 337.576 711.332C338.115 711.332 338.553 711.141 338.889 710.758C339.229 710.375 339.398 709.885 339.398 709.287ZM347.127 709.24H342.891C342.906 709.908 343.086 710.424 343.43 710.787C343.773 711.15 344.246 711.332 344.848 711.332C345.523 711.332 346.145 711.109 346.711 710.664V711.566C346.184 711.949 345.486 712.141 344.619 712.141C343.771 712.141 343.105 711.869 342.621 711.326C342.137 710.779 341.895 710.012 341.895 709.023C341.895 708.09 342.158 707.33 342.686 706.744C343.217 706.154 343.875 705.859 344.66 705.859C345.445 705.859 346.053 706.113 346.482 706.621C346.912 707.129 347.127 707.834 347.127 708.736V709.24ZM346.143 708.426C346.139 707.871 346.004 707.439 345.738 707.131C345.477 706.822 345.111 706.668 344.643 706.668C344.189 706.668 343.805 706.83 343.488 707.154C343.172 707.479 342.977 707.902 342.902 708.426H346.143ZM353.566 712H352.605V708.578C352.605 707.305 352.141 706.668 351.211 706.668C350.73 706.668 350.332 706.85 350.016 707.213C349.703 707.572 349.547 708.027 349.547 708.578V712H348.586V706H349.547V706.996H349.57C350.023 706.238 350.68 705.859 351.539 705.859C352.195 705.859 352.697 706.072 353.045 706.498C353.393 706.92 353.566 707.531 353.566 708.332V712ZM360.205 709.24H355.969C355.984 709.908 356.164 710.424 356.508 710.787C356.852 711.15 357.324 711.332 357.926 711.332C358.602 711.332 359.223 711.109 359.789 710.664V711.566C359.262 711.949 358.564 712.141 357.697 712.141C356.85 712.141 356.184 711.869 355.699 711.326C355.215 710.779 354.973 710.012 354.973 709.023C354.973 708.09 355.236 707.33 355.764 706.744C356.295 706.154 356.953 705.859 357.738 705.859C358.523 705.859 359.131 706.113 359.561 706.621C359.99 707.129 360.205 707.834 360.205 708.736V709.24ZM359.221 708.426C359.217 707.871 359.082 707.439 358.816 707.131C358.555 706.822 358.189 706.668 357.721 706.668C357.268 706.668 356.883 706.83 356.566 707.154C356.25 707.479 356.055 707.902 355.98 708.426H359.221ZM364.793 706.973C364.625 706.844 364.383 706.779 364.066 706.779C363.656 706.779 363.312 706.973 363.035 707.359C362.762 707.746 362.625 708.273 362.625 708.941V712H361.664V706H362.625V707.236H362.648C362.785 706.814 362.994 706.486 363.275 706.252C363.557 706.014 363.871 705.895 364.219 705.895C364.469 705.895 364.66 705.922 364.793 705.977V706.973ZM370.131 712H369.17V711.062H369.146C368.729 711.781 368.113 712.141 367.301 712.141C366.703 712.141 366.234 711.982 365.895 711.666C365.559 711.35 365.391 710.93 365.391 710.406C365.391 709.285 366.051 708.633 367.371 708.449L369.17 708.197C369.17 707.178 368.758 706.668 367.934 706.668C367.211 706.668 366.559 706.914 365.977 707.406V706.422C366.566 706.047 367.246 705.859 368.016 705.859C369.426 705.859 370.131 706.605 370.131 708.098V712ZM369.17 708.965L367.723 709.164C367.277 709.227 366.941 709.338 366.715 709.498C366.488 709.654 366.375 709.934 366.375 710.336C366.375 710.629 366.479 710.869 366.686 711.057C366.896 711.24 367.176 711.332 367.523 711.332C368 711.332 368.393 711.166 368.701 710.834C369.014 710.498 369.17 710.074 369.17 709.562V708.965ZM374.725 711.941C374.498 712.066 374.199 712.129 373.828 712.129C372.777 712.129 372.252 711.543 372.252 710.371V706.82H371.221V706H372.252V704.535L373.213 704.225V706H374.725V706.82H373.213V710.201C373.213 710.604 373.281 710.891 373.418 711.062C373.555 711.234 373.781 711.32 374.098 711.32C374.34 711.32 374.549 711.254 374.725 711.121V711.941ZM380.83 709.24H376.594C376.609 709.908 376.789 710.424 377.133 710.787C377.477 711.15 377.949 711.332 378.551 711.332C379.227 711.332 379.848 711.109 380.414 710.664V711.566C379.887 711.949 379.189 712.141 378.322 712.141C377.475 712.141 376.809 711.869 376.324 711.326C375.84 710.779 375.598 710.012 375.598 709.023C375.598 708.09 375.861 707.33 376.389 706.744C376.92 706.154 377.578 705.859 378.363 705.859C379.148 705.859 379.756 706.113 380.186 706.621C380.615 707.129 380.83 707.834 380.83 708.736V709.24ZM379.846 708.426C379.842 707.871 379.707 707.439 379.441 707.131C379.18 706.822 378.814 706.668 378.346 706.668C377.893 706.668 377.508 706.83 377.191 707.154C376.875 707.479 376.68 707.902 376.605 708.426H379.846ZM387.41 712H386.449V710.98H386.426C385.98 711.754 385.293 712.141 384.363 712.141C383.609 712.141 383.006 711.873 382.553 711.338C382.104 710.799 381.879 710.066 381.879 709.141C381.879 708.148 382.129 707.354 382.629 706.756C383.129 706.158 383.795 705.859 384.627 705.859C385.451 705.859 386.051 706.184 386.426 706.832H386.449V703.117H387.41V712ZM386.449 709.287V708.402C386.449 707.918 386.289 707.508 385.969 707.172C385.648 706.836 385.242 706.668 384.75 706.668C384.164 706.668 383.703 706.883 383.367 707.312C383.031 707.742 382.863 708.336 382.863 709.094C382.863 709.785 383.023 710.332 383.344 710.734C383.668 711.133 384.102 711.332 384.645 711.332C385.18 711.332 385.613 711.139 385.945 710.752C386.281 710.365 386.449 709.877 386.449 709.287ZM396.434 704.477C396.262 704.477 396.115 704.418 395.994 704.301C395.873 704.184 395.812 704.035 395.812 703.855C395.812 703.676 395.873 703.527 395.994 703.41C396.115 703.289 396.262 703.229 396.434 703.229C396.609 703.229 396.758 703.289 396.879 703.41C397.004 703.527 397.066 703.676 397.066 703.855C397.066 704.027 397.004 704.174 396.879 704.295C396.758 704.416 396.609 704.477 396.434 704.477ZM396.902 712H395.941V706H396.902V712ZM403.969 712H403.008V710.98H402.984C402.539 711.754 401.852 712.141 400.922 712.141C400.168 712.141 399.564 711.873 399.111 711.338C398.662 710.799 398.438 710.066 398.438 709.141C398.438 708.148 398.688 707.354 399.188 706.756C399.688 706.158 400.354 705.859 401.186 705.859C402.01 705.859 402.609 706.184 402.984 706.832H403.008V703.117H403.969V712ZM403.008 709.287V708.402C403.008 707.918 402.848 707.508 402.527 707.172C402.207 706.836 401.801 706.668 401.309 706.668C400.723 706.668 400.262 706.883 399.926 707.312C399.59 707.742 399.422 708.336 399.422 709.094C399.422 709.785 399.582 710.332 399.902 710.734C400.227 711.133 400.66 711.332 401.203 711.332C401.738 711.332 402.172 711.139 402.504 710.752C402.84 710.365 403.008 709.877 403.008 709.287Z" fill="black" fill-opacity="0.36"/>
<rect x="507" y="770" width="31" height="34" rx="6" fill="#6921F0"/>
<path d="M528.143 781.714C528.143 783.173 527.564 784.572 526.532 785.603C525.501 786.635 524.102 787.214 522.643 787.214C521.184 787.214 519.785 786.635 518.754 785.603C517.723 784.572 517.143 783.173 517.143 781.714V777H528.143V781.714Z" stroke="white" stroke-width="1.57143" stroke-linecap="round" stroke-linejoin="round"/>
<path d="M528.143 792.714C528.143 791.256 527.564 789.857 526.532 788.825C525.501 787.794 524.102 787.214 522.643 787.214C521.184 787.214 519.785 787.794 518.754 788.825C517.723 789.857 517.143 791.256 517.143 792.714V797.429H528.143V792.714Z" stroke="white" stroke-width="1.57143" stroke-linecap="round" stroke-linejoin="round"/>
<path d="M516 797.429L529.5 797.5" stroke="white" stroke-width="1.57143" stroke-linecap="round" stroke-linejoin="round"/>
<path d="M516 777H529.5" stroke="white" stroke-width="1.57143" stroke-linecap="round" stroke-linejoin="round"/>
<path d="M528 793.5H517V797H528V793.5Z" fill="white" stroke="white"/>
<path d="M528 783H517C517.441 785.805 518.869 786.566 522.762 787C526.36 786.696 527.148 785.529 528 783Z" fill="white" stroke="white"/>
</g>
<defs>
<filter id="filter0_d_1_282" x="359.9" y="157.5" width="321.7" height="127.6" filterUnits="userSpaceOnUse" color-interpolation-filters="sRGB">
<feFlood flood-opacity="0" result="BackgroundImageFix"/>
<feColorMatrix in="SourceAlpha" type="matrix" values="0 0 0 0 0 0 0 0 0 0 0 0 0 0 0 0 0 0 127 0" result="hardAlpha"/>
<feOffset dx="-2" dy="19"/>
<feGaussianBlur stdDeviation="9.05"/>
<feComposite in2="hardAlpha" operator="out"/>
<feColorMatrix type="matrix" values="0 0 0 0 0.1875 0 0 0 0 0.186719 0 0 0 0 0.186719 0 0 0 0.08 0"/>
<feBlend mode="normal" in2="BackgroundImageFix" result="effect1_dropShadow_1_282"/>
<feBlend mode="normal" in="SourceGraphic" in2="effect1_dropShadow_1_282" result="shape"/>
</filter>
<linearGradient id="paint0_linear_1_282" x1="-86.5" y1="19" x2="737.001" y2="18.5" gradientUnits="userSpaceOnUse">
<stop stop-color="#F8F9FA"/>
<stop offset="0.352607" stop-color="#EBEDEF"/>
</linearGradient>
<linearGradient id="paint1_linear_1_282" x1="-86.5" y1="58.5" x2="737.001" y2="58" gradientUnits="userSpaceOnUse">
<stop stop-color="#F8F9FA"/>
<stop offset="0.352607" stop-color="#EBEDEF"/>
</linearGradient>
<linearGradient id="paint2_linear_1_282" x1="-303.5" y1="98" x2="737.001" y2="97.5" gradientUnits="userSpaceOnUse">
<stop stop-color="#F8F9FA"/>
<stop offset="0.352607" stop-color="#EBEDEF"/>
</linearGradient>
<linearGradient id="paint3_linear_1_282" x1="-303.5" y1="358" x2="737.001" y2="357.5" gradientUnits="userSpaceOnUse">
<stop stop-color="#F8F9FA"/>
<stop offset="0.352607" stop-color="#EBEDEF"/>
</linearGradient>
<linearGradient id="paint4_linear_1_282" x1="-303.501" y1="447" x2="737" y2="446.5" gradientUnits="userSpaceOnUse">
<stop stop-color="#F8F9FA"/>
<stop offset="0.352607" stop-color="#EBEDEF"/>
</linearGradient>
<linearGradient id="paint5_linear_1_282" x1="-85.5015" y1="548" x2="738" y2="547.5" gradientUnits="userSpaceOnUse">
<stop stop-color="#F8F9FA"/>
<stop offset="0.352607" stop-color="#EBEDEF"/>
</linearGradient>
<linearGradient id="paint6_linear_1_282" x1="-85.5015" y1="661" x2="738" y2="660.5" gradientUnits="userSpaceOnUse">
<stop stop-color="#F8F9FA"/>
<stop offset="0.352607" stop-color="#EBEDEF"/>
</linearGradient>
<linearGradient id="paint7_linear_1_282" x1="-24.5" y1="787" x2="738" y2="786.5" gradientUnits="userSpaceOnUse">
<stop stop-color="#F8F9FA"/>
<stop offset="0.496824" stop-color="#F5F6F8"/>
<stop offset="1" stop-color="#F6F7F8"/>
</linearGradient>
<linearGradient id="paint8_linear_1_282" x1="440.5" y1="-5.00006" x2="302" y2="1207" gradientUnits="userSpaceOnUse">
<stop stop-color="#E7EAEC"/>
<stop offset="0.417258" stop-color="#E9EDEE"/>
<stop offset="0.8621" stop-color="#F8F9FA"/>
</linearGradient>
<linearGradient id="paint9_linear_1_282" x1="523" y1="742" x2="523" y2="829.5" gradientUnits="userSpaceOnUse">
<stop stop-color="#F8F9FA"/>
<stop offset="0.52" stop-color="#6921F0"/>
<stop offset="1" stop-color="#F8F9FA"/>
</linearGradient>
<linearGradient id="paint10_linear_1_282" x1="523" y1="738" x2="523" y2="841.5" gradientUnits="userSpaceOnUse">
<stop offset="0.0501823" stop-color="#F8F9FA"/>
<stop offset="0.52" stop-color="#6921F0"/>
<stop offset="0.916301" stop-color="#F8F9FA"/>
</linearGradient>
<linearGradient id="paint11_linear_1_282" x1="522.5" y1="704.5" x2="522.5" y2="869.5" gradientUnits="userSpaceOnUse">
<stop offset="0.256262" stop-color="#F8F9FA"/>
<stop offset="0.52" stop-color="#6921F0"/>
<stop offset="0.775709" stop-color="#F8F9FA"/>
</linearGradient>
<linearGradient id="paint12_linear_1_282" x1="522.5" y1="669.5" x2="522.5" y2="904.5" gradientUnits="userSpaceOnUse">
<stop offset="0.369199" stop-color="#F8F9FA"/>
<stop offset="0.52" stop-color="#6921F0"/>
<stop offset="0.676251" stop-color="#F8F9FA"/>
</linearGradient>
<linearGradient id="paint13_linear_1_282" x1="171" y1="90" x2="38" y2="274" gradientUnits="userSpaceOnUse">
<stop stop-color="#E7EAEC"/>
<stop offset="0.441772" stop-color="#6D2FFF"/>
<stop offset="0.994017" stop-color="#E8EBED"/>
</linearGradient>
<linearGradient id="paint14_linear_1_282" x1="523" y1="278.499" x2="521.118" y2="278.506" gradientUnits="userSpaceOnUse">
<stop offset="0.120673" stop-color="#E7EAEC"/>
<stop offset="0.981413" stop-color="#6D2FFF"/>
</linearGradient>
<linearGradient id="paint15_linear_1_282" x1="523" y1="4.12016" x2="521.118" y2="4.13496" gradientUnits="userSpaceOnUse">
<stop offset="0.120673" stop-color="#E7EAEC"/>
<stop offset="0.981413" stop-color="#6D2FFF" stop-opacity="0.14"/>
</linearGradient>
<linearGradient id="paint16_linear_1_282" x1="674" y1="447" x2="713.5" y2="691.5" gradientUnits="userSpaceOnUse">
<stop stop-color="#6A22F0"/>
<stop offset="1" stop-color="#F8F9FA"/>
</linearGradient>
<linearGradient id="paint17_linear_1_282" x1="479.001" y1="358.625" x2="522.999" y2="358.375" gradientUnits="userSpaceOnUse">
<stop offset="0.147904" stop-color="#753CFD"/>
<stop offset="1" stop-color="#DDDBED"/>
</linearGradient>
<clipPath id="clip0_1_282">
<rect width="735" height="1024" fill="white"/>
</clipPath>
</defs>
</svg>
