<svg width="134" height="31" viewBox="0 0 134 31" fill="none" xmlns="http://www.w3.org/2000/svg">
<path d="M26.2408 16.2601C26.2408 18.7655 25.4979 21.2146 24.1059 23.2978C22.714 25.3809 20.7357 27.0045 18.421 27.9633C16.1063 28.922 13.5593 29.1729 11.1021 28.6841C8.64488 28.1953 6.38776 26.9889 4.6162 25.2173C2.84463 23.4458 1.63818 21.1886 1.14941 18.7314C0.660632 16.2742 0.91149 13.7272 1.87026 11.4125C2.82902 9.09787 4.45263 7.11949 6.53578 5.72758C8.61892 4.33567 11.068 3.59274 13.5734 3.59274L13.5734 16.2601H26.2408Z" fill="#00A93E"/>
<path d="M22.9469 15.3734C22.9469 12.988 22.7594 10.7004 21.0727 9.01375C19.3861 7.32708 17.0985 7.13956 14.7131 7.13956L14.7131 15.3734H22.9469Z" fill="#96C0E9"/>
<path d="M28.0142 14.74C28.0142 11.3804 26.6796 8.15836 24.304 5.78277C21.9284 3.40717 18.7064 2.07257 15.3468 2.07257L15.3468 14.74H28.0142Z" fill="#6921F0"/>
<path d="M22.9475 13.2199C22.9475 11.4057 22.7335 10.1725 21.4507 8.88971C20.1679 7.60689 18.6814 7.13956 16.8672 7.13956L16.8672 13.2199H22.9475Z" fill="#96C0E9"/>
<path d="M39.1044 24.073V23.4649L39.6395 23.4163C40.3043 23.3514 40.8069 23.2704 41.1474 23.1731C41.5042 23.0596 41.7474 22.8326 41.8771 22.4921C42.023 22.1354 42.096 21.5598 42.096 20.7653V7.38849H38.6667C37.9208 7.38849 37.329 7.53442 36.8912 7.82628C36.4696 8.10192 36.0967 8.55592 35.7724 9.18828C35.4643 9.82063 35.0995 10.6638 34.678 11.7177L34.1672 11.5961L34.7752 8.60456L35.0428 6.65885L41.9744 6.73181H44.2849L51.2408 6.65885L51.5084 8.60456L52.1164 11.5961L51.5813 11.742C51.2084 10.8016 50.8598 10.0071 50.5355 9.35852C50.2274 8.70995 49.8626 8.22353 49.441 7.89924C49.0195 7.55874 48.4601 7.38849 47.7629 7.38849H44.1633V20.7653C44.1633 21.5598 44.2281 22.1354 44.3579 22.4921C44.5038 22.8326 44.7551 23.0596 45.1118 23.1731C45.4685 23.2704 45.9712 23.3514 46.6198 23.4163L47.1548 23.4649V24.073L43.1904 24L39.1044 24.073ZM55.5978 24.073V23.4649L56.0842 23.4163C56.6517 23.3514 57.0814 23.2704 57.3732 23.1731C57.6813 23.0596 57.8921 22.8326 58.0056 22.4921C58.1191 22.1354 58.1758 21.5598 58.1758 20.7653V9.96656C58.1758 9.15585 58.1191 8.58024 58.0056 8.23974C57.8921 7.89924 57.6813 7.68035 57.3732 7.58306C57.0814 7.46956 56.6517 7.38038 56.0842 7.31553L55.5978 7.26689V6.65885L59.1973 6.73181H68.634L68.6827 8.48296L68.8772 10.7205H68.2935C68.18 9.99088 68.026 9.40717 67.8314 8.96938C67.6531 8.5316 67.3936 8.20731 67.0531 7.99653C66.7126 7.76953 66.2505 7.6236 65.6668 7.55874C65.0993 7.47767 64.3616 7.43713 63.4536 7.43713H60.2431V14.5633H62.9671C63.2914 14.5633 63.5752 14.4903 63.8184 14.3444C64.0616 14.1823 64.2562 13.8904 64.4021 13.4688C64.5642 13.0473 64.6615 12.4392 64.694 11.6447H65.302L65.229 14.9038L65.302 18.5034H64.694C64.694 17.3197 64.548 16.4847 64.2562 15.9983C63.9643 15.4956 63.5346 15.2443 62.9671 15.2443H60.2431V21.3976C60.2431 22.1759 60.4134 22.6948 60.7539 22.9542C61.0944 23.1974 61.7268 23.319 62.651 23.319H64.9129C65.8533 23.319 66.5829 23.2136 67.1018 23.0028C67.6369 22.792 68.0341 22.3705 68.2935 21.7381C68.553 21.0895 68.7313 20.141 68.8286 18.8925H69.4366L69.2664 21.8111L69.1934 24H59.1973L55.5978 24.073ZM80.367 24.2675C79.7184 24.2675 79.1266 24.1621 78.5915 23.9514C78.0727 23.7406 77.6025 23.5298 77.1809 23.319C76.8242 23.1244 76.5242 22.9785 76.281 22.8812C76.054 22.7839 75.8513 22.7353 75.673 22.7353C75.446 22.7353 75.2838 22.8326 75.1865 23.0271C75.1055 23.2055 75.0406 23.4082 74.992 23.6352L74.919 24H74.311L74.4326 21.1301L74.3596 17.9926H74.9677L75.2352 19.1357C75.4135 19.8491 75.7297 20.5464 76.1837 21.2274C76.6539 21.9084 77.2377 22.4678 77.9349 22.9055C78.6483 23.3433 79.459 23.5622 80.367 23.5622C80.8696 23.5622 81.348 23.4568 81.802 23.246C82.2722 23.019 82.6532 22.6785 82.9451 22.2245C83.2531 21.7705 83.4072 21.1787 83.4072 20.4491C83.4072 19.3627 83.0505 18.4872 82.337 17.8224C81.6398 17.1576 80.667 16.5252 79.4185 15.9253L78.397 15.4389C77.1809 14.8552 76.2729 14.2147 75.673 13.5175C75.0893 12.8041 74.7974 11.8961 74.7974 10.7935C74.7974 9.93413 75.0082 9.17206 75.4298 8.50728C75.8513 7.84249 76.4269 7.32364 77.1566 6.95071C77.9024 6.57778 78.7537 6.39132 79.7103 6.39132C80.3751 6.39132 80.9345 6.48049 81.3885 6.65885C81.8425 6.83721 82.1992 6.99124 82.4586 7.12096C82.8802 7.33174 83.2126 7.43713 83.4558 7.43713C83.7152 7.43713 83.8693 7.18581 83.9179 6.68317H84.526L84.453 9.01802L84.5016 11.3772H83.8936C83.7963 10.4692 83.545 9.69902 83.1396 9.06667C82.7343 8.4181 82.2398 7.92356 81.656 7.58306C81.0885 7.24256 80.4805 7.07231 79.8319 7.07231C78.8753 7.07231 78.097 7.34796 77.4971 7.89924C76.9134 8.45053 76.6215 9.15585 76.6215 10.0152C76.6215 10.9394 76.9215 11.6691 77.5214 12.2041C78.1213 12.723 78.8996 13.2175 79.8563 13.6877L80.8534 14.1742C81.7452 14.6119 82.5073 15.0659 83.1396 15.5362C83.7882 15.9902 84.2827 16.5252 84.6232 17.1414C84.98 17.7575 85.1583 18.5277 85.1583 19.4519C85.1583 20.4085 84.9394 21.2517 84.5016 21.9813C84.0801 22.711 83.5045 23.2785 82.7748 23.6838C82.0614 24.073 81.2588 24.2675 80.367 24.2675ZM89.89 24.073V23.4649L90.3764 23.4163C90.9439 23.3514 91.3736 23.2704 91.6654 23.1731C91.9735 23.0758 92.1843 22.8488 92.2978 22.4921C92.4113 22.1354 92.468 21.5598 92.468 20.7653V9.96656C92.468 9.15585 92.4113 8.58024 92.2978 8.23974C92.1843 7.88303 91.9735 7.65603 91.6654 7.55874C91.3736 7.44524 90.9439 7.36417 90.3764 7.31553L89.89 7.26689V6.65885L93.5382 6.73181L96.6756 6.65885V7.21824L96.2865 7.26689C95.8163 7.31553 95.4515 7.38849 95.192 7.48578C94.9488 7.58306 94.7786 7.79385 94.6813 8.11813C94.584 8.42621 94.5354 8.94506 94.5354 9.6747V19.8167C94.5354 20.6112 94.5759 21.2679 94.657 21.7868C94.7542 22.3056 95.0056 22.6866 95.4109 22.9299C95.8163 23.1731 96.473 23.2947 97.381 23.2947H99.2051C100.616 23.2947 101.629 22.9218 102.245 22.1759C102.878 21.4138 103.251 20.3194 103.364 18.8925H103.899L103.656 24.073L93.4895 24L89.89 24.073ZM108.164 24.073V23.4649L108.651 23.4163C109.218 23.3514 109.648 23.2704 109.94 23.1731C110.248 23.0596 110.459 22.8326 110.572 22.4921C110.686 22.1354 110.742 21.5598 110.742 20.7653V9.96656C110.742 9.15585 110.686 8.58024 110.572 8.23974C110.459 7.89924 110.248 7.68035 109.94 7.58306C109.648 7.46956 109.218 7.38038 108.651 7.31553L108.164 7.26689V6.65885L111.764 6.73181H111.788L115.388 6.65885V7.26689L114.901 7.31553C114.35 7.38038 113.92 7.46956 113.612 7.58306C113.304 7.68035 113.093 7.89924 112.98 8.23974C112.866 8.58024 112.81 9.15585 112.81 9.96656V20.7653C112.81 21.5598 112.866 22.1354 112.98 22.4921C113.093 22.8326 113.304 23.0596 113.612 23.1731C113.92 23.2704 114.35 23.3514 114.901 23.4163L115.388 23.4649V24.073L111.788 24H111.764L108.164 24.073ZM126.307 24.2675C125.658 24.2675 125.066 24.1621 124.531 23.9514C124.013 23.7406 123.542 23.5298 123.121 23.319C122.764 23.1244 122.464 22.9785 122.221 22.8812C121.994 22.7839 121.791 22.7353 121.613 22.7353C121.386 22.7353 121.224 22.8326 121.126 23.0271C121.045 23.2055 120.98 23.4082 120.932 23.6352L120.859 24H120.251L120.372 21.1301L120.299 17.9926H120.908L121.175 19.1357C121.353 19.8491 121.67 20.5464 122.124 21.2274C122.594 21.9084 123.178 22.4678 123.875 22.9055C124.588 23.3433 125.399 23.5622 126.307 23.5622C126.81 23.5622 127.288 23.4568 127.742 23.246C128.212 23.019 128.593 22.6785 128.885 22.2245C129.193 21.7705 129.347 21.1787 129.347 20.4491C129.347 19.3627 128.99 18.4872 128.277 17.8224C127.58 17.1576 126.607 16.5252 125.358 15.9253L124.337 15.4389C123.121 14.8552 122.213 14.2147 121.613 13.5175C121.029 12.8041 120.737 11.8961 120.737 10.7935C120.737 9.93413 120.948 9.17206 121.37 8.50728C121.791 7.84249 122.367 7.32364 123.096 6.95071C123.842 6.57778 124.694 6.39132 125.65 6.39132C126.315 6.39132 126.874 6.48049 127.328 6.65885C127.782 6.83721 128.139 6.99124 128.399 7.12096C128.82 7.33174 129.152 7.43713 129.396 7.43713C129.655 7.43713 129.809 7.18581 129.858 6.68317H130.466L130.393 9.01802L130.442 11.3772H129.833C129.736 10.4692 129.485 9.69902 129.08 9.06667C128.674 8.4181 128.18 7.92356 127.596 7.58306C127.028 7.24256 126.42 7.07231 125.772 7.07231C124.815 7.07231 124.037 7.34796 123.437 7.89924C122.853 8.45053 122.561 9.15585 122.561 10.0152C122.561 10.9394 122.861 11.6691 123.461 12.2041C124.061 12.723 124.839 13.2175 125.796 13.6877L126.793 14.1742C127.685 14.6119 128.447 15.0659 129.08 15.5362C129.728 15.9902 130.223 16.5252 130.563 17.1414C130.92 17.7575 131.098 18.5277 131.098 19.4519C131.098 20.4085 130.879 21.2517 130.442 21.9813C130.02 22.711 129.444 23.2785 128.715 23.6838C128.001 24.073 127.199 24.2675 126.307 24.2675Z" fill="#6921F0"/>
</svg>
