<svg width="145" height="42" viewBox="0 0 145 42" fill="none" xmlns="http://www.w3.org/2000/svg">
<path d="M36.3064 15.4462C36.3064 17.6521 35.6523 19.8084 34.4267 21.6425C33.2012 23.4767 31.4593 24.9062 29.4213 25.7504C27.3834 26.5945 25.1408 26.8154 22.9773 26.385C20.8138 25.9547 18.8265 24.8925 17.2667 23.3327C15.7069 21.7729 14.6447 19.7855 14.2143 17.622C13.784 15.4585 14.0048 13.216 14.849 11.178C15.6931 9.14004 17.1227 7.39815 18.9568 6.17262C20.7909 4.94709 22.9473 4.29297 25.1532 4.29297L25.1532 15.4462H36.3064Z" fill="#00A93E"/>
<path d="M33.4066 14.6655C33.4066 12.5653 33.2415 10.5511 31.7564 9.06606C30.2713 7.581 28.2572 7.41589 26.157 7.41589L26.157 14.6655H33.4066Z" fill="#96C0E9"/>
<path d="M37.8679 14.1078C37.8679 11.1498 36.6928 8.31291 34.6012 6.22129C32.5096 4.12966 29.6727 2.95459 26.7147 2.95459L26.7147 14.1078H37.8679Z" fill="#6921F0"/>
<path d="M33.4065 12.7694C33.4065 11.1721 33.2181 10.0863 32.0886 8.95685C30.9591 7.82737 29.6503 7.41589 28.053 7.41589L28.053 12.7694H33.4065Z" fill="#96C0E9"/>
<path d="M47.6327 22.8412V22.3059L48.1039 22.263C48.6892 22.2059 49.1317 22.1346 49.4315 22.0489C49.7456 21.949 49.9597 21.7491 50.074 21.4493C50.2024 21.1352 50.2667 20.6284 50.2667 19.9289V8.15113H47.2473C46.5906 8.15113 46.0695 8.27961 45.6841 8.53658C45.3129 8.77928 44.9845 9.17901 44.699 9.73577C44.4278 10.2925 44.1066 11.0349 43.7354 11.9628L43.2857 11.8558L43.821 9.22183L44.0566 7.5087L50.1596 7.57295H52.194L58.3184 7.5087L58.554 9.22183L59.0893 11.8558L58.6182 11.9843C58.2898 11.1562 57.9829 10.4567 57.6974 9.88567C57.4261 9.31463 57.1049 8.88635 56.7338 8.60082C56.3626 8.30103 55.87 8.15113 55.2562 8.15113H52.0869V19.9289C52.0869 20.6284 52.144 21.1352 52.2582 21.4493C52.3867 21.7491 52.608 21.949 52.922 22.0489C53.2361 22.1346 53.6787 22.2059 54.2497 22.263L54.7208 22.3059V22.8412L51.2303 22.777L47.6327 22.8412ZM62.1545 22.8412V22.3059L62.5828 22.263C63.0825 22.2059 63.4608 22.1346 63.7178 22.0489C63.989 21.949 64.1746 21.7491 64.2745 21.4493C64.3745 21.1352 64.4244 20.6284 64.4244 19.9289V10.421C64.4244 9.70722 64.3745 9.20042 64.2745 8.90062C64.1746 8.60082 63.989 8.4081 63.7178 8.32244C63.4608 8.22251 63.0825 8.14399 62.5828 8.08689L62.1545 8.04406V7.5087L65.3238 7.57295H73.6325L73.6753 9.11476L73.8466 11.0849H73.3327C73.2328 10.4424 73.0972 9.9285 72.9258 9.54305C72.7688 9.15759 72.5404 8.87207 72.2406 8.68648C71.9408 8.48662 71.5339 8.35813 71.02 8.30103C70.5203 8.22965 69.8708 8.19396 69.0713 8.19396H66.2446V14.4683H68.643C68.9285 14.4683 69.1784 14.4041 69.3925 14.2756C69.6067 14.1328 69.778 13.8758 69.9064 13.5047C70.0492 13.1335 70.1349 12.5981 70.1634 11.8986H70.6988L70.6345 14.7681L70.6988 17.9374H70.1634C70.1634 16.8952 70.0349 16.16 69.778 15.7317C69.521 15.2892 69.1427 15.0679 68.643 15.0679H66.2446V20.4857C66.2446 21.1709 66.3945 21.6278 66.6943 21.8562C66.9941 22.0703 67.5509 22.1774 68.3646 22.1774H70.3561C71.1842 22.1774 71.8266 22.0846 72.2834 21.899C72.7545 21.7134 73.1043 21.3422 73.3327 20.7855C73.5611 20.2144 73.7182 19.3793 73.8038 18.28H74.3392L74.1893 20.8497L74.125 22.777H65.3238L62.1545 22.8412ZM83.963 23.0125C83.3919 23.0125 82.8709 22.9197 82.3998 22.7341C81.9429 22.5486 81.5289 22.363 81.1577 22.1774C80.8437 22.0061 80.5796 21.8776 80.3654 21.7919C80.1655 21.7063 79.9871 21.6634 79.8301 21.6634C79.6302 21.6634 79.4874 21.7491 79.4018 21.9204C79.3304 22.0774 79.2733 22.2559 79.2305 22.4558L79.1662 22.777H78.6309L78.7379 20.2501L78.6737 17.4877H79.209L79.4446 18.4942C79.6016 19.1223 79.88 19.7362 80.2798 20.3358C80.6938 20.9354 81.2077 21.4279 81.8216 21.8133C82.4497 22.1988 83.1635 22.3915 83.963 22.3915C84.4055 22.3915 84.8267 22.2987 85.2264 22.1131C85.6404 21.9133 85.9759 21.6135 86.2329 21.2137C86.5041 20.814 86.6398 20.2929 86.6398 19.6505C86.6398 18.694 86.3257 17.9231 85.6975 17.3378C85.0837 16.7525 84.2271 16.1957 83.1278 15.6675L82.2284 15.2392C81.1577 14.7253 80.3583 14.1614 79.8301 13.5475C79.3161 12.9193 79.0592 12.1199 79.0592 11.1491C79.0592 10.3925 79.2447 9.7215 79.6159 9.13618C79.9871 8.55086 80.4939 8.09402 81.1363 7.76567C81.793 7.43732 82.5425 7.27315 83.3848 7.27315C83.9701 7.27315 84.4626 7.35167 84.8624 7.5087C85.2621 7.66574 85.5762 7.80136 85.8046 7.91557C86.1758 8.10116 86.4684 8.19396 86.6826 8.19396C86.911 8.19396 87.0466 7.97268 87.0894 7.53012H87.6248L87.5606 9.58587L87.6034 11.663H87.068C86.9824 10.8636 86.7611 10.1855 86.4042 9.6287C86.0473 9.05766 85.6119 8.62224 85.0979 8.32244C84.5983 8.02264 84.0629 7.87274 83.4919 7.87274C82.6496 7.87274 81.9643 8.11544 81.4361 8.60082C80.9222 9.08621 80.6652 9.70722 80.6652 10.4639C80.6652 11.2776 80.9293 11.92 81.4575 12.3911C81.9857 12.848 82.671 13.2834 83.5133 13.6974L84.3913 14.1257C85.1765 14.5111 85.8474 14.9109 86.4042 15.3249C86.9752 15.7246 87.4107 16.1957 87.7105 16.7382C88.0245 17.2807 88.1816 17.9588 88.1816 18.7725C88.1816 19.6148 87.9888 20.3572 87.6034 20.9996C87.2322 21.642 86.7254 22.1417 86.083 22.4986C85.4548 22.8412 84.7482 23.0125 83.963 23.0125ZM92.3476 22.8412V22.3059L92.7759 22.263C93.2756 22.2059 93.6539 22.1346 93.9109 22.0489C94.1821 21.9632 94.3677 21.7634 94.4676 21.4493C94.5676 21.1352 94.6175 20.6284 94.6175 19.9289V10.421C94.6175 9.70722 94.5676 9.20042 94.4676 8.90062C94.3677 8.58655 94.1821 8.38668 93.9109 8.30103C93.6539 8.20109 93.2756 8.12971 92.7759 8.08689L92.3476 8.04406V7.5087L95.5597 7.57295L98.3222 7.5087V8.00123L97.9795 8.04406C97.5655 8.08689 97.2443 8.15113 97.0159 8.23678C96.8018 8.32244 96.6519 8.50803 96.5662 8.79355C96.4805 9.0648 96.4377 9.52163 96.4377 10.1641V19.0937C96.4377 19.7933 96.4734 20.3715 96.5448 20.8283C96.6304 21.2851 96.8517 21.6206 97.2086 21.8348C97.5655 22.0489 98.1437 22.156 98.9432 22.156H100.549C101.791 22.156 102.684 21.8276 103.226 21.1709C103.783 20.4999 104.111 19.5363 104.211 18.28H104.682L104.468 22.8412L95.5169 22.777L92.3476 22.8412ZM108.437 22.8412V22.3059L108.866 22.263C109.365 22.2059 109.744 22.1346 110.001 22.0489C110.272 21.949 110.458 21.7491 110.557 21.4493C110.657 21.1352 110.707 20.6284 110.707 19.9289V10.421C110.707 9.70722 110.657 9.20042 110.557 8.90062C110.458 8.60082 110.272 8.4081 110.001 8.32244C109.744 8.22251 109.365 8.14399 108.866 8.08689L108.437 8.04406V7.5087L111.607 7.57295H111.628L114.797 7.5087V8.04406L114.369 8.08689C113.884 8.14399 113.506 8.22251 113.234 8.32244C112.963 8.4081 112.777 8.60082 112.677 8.90062C112.578 9.20042 112.528 9.70722 112.528 10.421V19.9289C112.528 20.6284 112.578 21.1352 112.677 21.4493C112.777 21.7491 112.963 21.949 113.234 22.0489C113.506 22.1346 113.884 22.2059 114.369 22.263L114.797 22.3059V22.8412L111.628 22.777H111.607L108.437 22.8412ZM124.411 23.0125C123.84 23.0125 123.319 22.9197 122.848 22.7341C122.391 22.5486 121.977 22.363 121.606 22.1774C121.292 22.0061 121.028 21.8776 120.814 21.7919C120.614 21.7063 120.436 21.6634 120.279 21.6634C120.079 21.6634 119.936 21.7491 119.85 21.9204C119.779 22.0774 119.722 22.2559 119.679 22.4558L119.615 22.777H119.079L119.186 20.2501L119.122 17.4877H119.657L119.893 18.4942C120.05 19.1223 120.328 19.7362 120.728 20.3358C121.142 20.9354 121.656 21.4279 122.27 21.8133C122.898 22.1988 123.612 22.3915 124.411 22.3915C124.854 22.3915 125.275 22.2987 125.675 22.1131C126.089 21.9133 126.424 21.6135 126.681 21.2137C126.953 20.814 127.088 20.2929 127.088 19.6505C127.088 18.694 126.774 17.9231 126.146 17.3378C125.532 16.7525 124.676 16.1957 123.576 15.6675L122.677 15.2392C121.606 14.7253 120.807 14.1614 120.279 13.5475C119.765 12.9193 119.508 12.1199 119.508 11.1491C119.508 10.3925 119.693 9.7215 120.064 9.13618C120.436 8.55086 120.942 8.09402 121.585 7.76567C122.241 7.43732 122.991 7.27315 123.833 7.27315C124.419 7.27315 124.911 7.35167 125.311 7.5087C125.711 7.66574 126.025 7.80136 126.253 7.91557C126.624 8.10116 126.917 8.19396 127.131 8.19396C127.359 8.19396 127.495 7.97268 127.538 7.53012H128.073L128.009 9.58587L128.052 11.663H127.516C127.431 10.8636 127.21 10.1855 126.853 9.6287C126.496 9.05766 126.06 8.62224 125.546 8.32244C125.047 8.02264 124.511 7.87274 123.94 7.87274C123.098 7.87274 122.413 8.11544 121.885 8.60082C121.371 9.08621 121.114 9.70722 121.114 10.4639C121.114 11.2776 121.378 11.92 121.906 12.3911C122.434 12.848 123.119 13.2834 123.962 13.6974L124.84 14.1257C125.625 14.5111 126.296 14.9109 126.853 15.3249C127.424 15.7246 127.859 16.1957 128.159 16.7382C128.473 17.2807 128.63 17.9588 128.63 18.7725C128.63 19.6148 128.437 20.3572 128.052 20.9996C127.681 21.642 127.174 22.1417 126.531 22.4986C125.903 22.8412 125.197 23.0125 124.411 23.0125Z" fill="#6921F0"/>
<path d="M16.9994 30.8159C16.9088 30.7869 16.8128 30.7616 16.7114 30.7398C16.61 30.7145 16.4977 30.6945 16.3745 30.68C16.255 30.6619 16.1282 30.6529 15.9941 30.6529C15.7768 30.6529 15.5921 30.7 15.4399 30.7942C15.2878 30.8883 15.1628 31.0097 15.065 31.1582C14.9708 31.3031 14.902 31.4661 14.8585 31.6472C14.815 31.8284 14.7933 32.0077 14.7933 32.1852C14.7933 32.4098 14.8241 32.6144 14.8857 32.7992C14.9509 32.9803 15.0378 33.1361 15.1465 33.2665C15.2588 33.3932 15.3874 33.491 15.5323 33.5599C15.6808 33.6287 15.8366 33.6631 15.9996 33.6631C16.1517 33.6631 16.2912 33.6559 16.418 33.6414C16.5448 33.6233 16.6534 33.6052 16.744 33.587C16.849 33.5653 16.9432 33.54 17.0265 33.511L17.1189 33.8968C17.0211 33.9294 16.9124 33.9583 16.7929 33.9837C16.6915 34.0054 16.5737 34.0254 16.4397 34.0435C16.3057 34.0616 16.159 34.0706 15.9996 34.0706C15.7134 34.0706 15.4616 34.0235 15.2443 33.9294C15.0306 33.8352 14.8513 33.7048 14.7064 33.5381C14.5651 33.3679 14.4582 33.1687 14.3858 32.9404C14.3133 32.7086 14.2771 32.455 14.2771 32.1797C14.2771 31.8646 14.3206 31.5875 14.4075 31.3484C14.4945 31.1057 14.614 30.9028 14.7661 30.7398C14.9183 30.5768 15.0994 30.4536 15.3095 30.3703C15.5196 30.287 15.7496 30.2454 15.9996 30.2454C16.1517 30.2454 16.293 30.2544 16.4234 30.2725C16.5574 30.287 16.6788 30.3069 16.7875 30.3323C16.8998 30.3576 17.003 30.3848 17.0972 30.4138L16.9994 30.8159ZM18.8896 32.1471C18.8896 31.7958 18.9439 31.4987 19.0526 31.256C19.1649 31.0133 19.3061 30.8177 19.4764 30.6692C19.6503 30.5207 19.8423 30.4138 20.0524 30.3486C20.2661 30.2798 20.4744 30.2454 20.6772 30.2454C20.8801 30.2454 21.0866 30.2743 21.2967 30.3323C21.5104 30.3866 21.7024 30.4862 21.8726 30.6311C22.0465 30.7724 22.1878 30.9662 22.2964 31.2125C22.4087 31.4589 22.4649 31.7722 22.4649 32.1526C22.4649 32.5076 22.4087 32.8064 22.2964 33.0491C22.1878 33.2918 22.0465 33.4892 21.8726 33.6414C21.7024 33.7935 21.5104 33.904 21.2967 33.9728C21.0866 34.038 20.8801 34.0706 20.6772 34.0706C20.4744 34.0706 20.2661 34.038 20.0524 33.9728C19.8423 33.9076 19.6503 33.8008 19.4764 33.6522C19.3061 33.5037 19.1649 33.3063 19.0526 33.06C18.9439 32.8137 18.8896 32.5094 18.8896 32.1471ZM21.9487 32.1743C21.9487 31.6853 21.8346 31.314 21.6064 31.0604C21.3818 30.8068 21.0793 30.68 20.699 30.68C20.507 30.68 20.3313 30.7108 20.1719 30.7724C20.0161 30.8304 19.8803 30.9191 19.7644 31.0387C19.6521 31.1582 19.5633 31.3085 19.4981 31.4897C19.4365 31.6672 19.4058 31.8773 19.4058 32.12C19.4058 32.609 19.518 32.9839 19.7426 33.2447C19.9708 33.5055 20.2751 33.6359 20.6555 33.6359C20.8439 33.6359 21.0177 33.607 21.1771 33.549C21.3365 33.4874 21.4723 33.3951 21.5846 33.2719C21.7006 33.1487 21.7893 32.9966 21.8509 32.8155C21.9161 32.6343 21.9487 32.4206 21.9487 32.1743ZM24.6316 30.2943H25.0663L27.0116 33.2339H27.0224C27.0152 33.1288 27.0098 33.0165 27.0061 32.897C26.9989 32.7955 26.9935 32.6796 26.9898 32.5492C26.9898 32.4152 26.9898 32.2793 26.9898 32.1417V30.2943H27.4245V34H26.9898L25.0446 31.0495H25.0337C25.0374 31.1582 25.0428 31.2723 25.05 31.3919C25.0537 31.4969 25.0573 31.6146 25.0609 31.745C25.0645 31.8754 25.0663 32.0095 25.0663 32.1471V34H24.6316V30.2943ZM30.5729 30.7181H29.4101V30.2943H32.1922V30.7181H31.0294V34H30.5729V30.7181ZM34.1749 30.2943H35.0877C35.287 30.2943 35.4681 30.3124 35.6311 30.3486C35.7977 30.3812 35.939 30.4392 36.0549 30.5225C36.1709 30.6022 36.2596 30.709 36.3212 30.8431C36.3828 30.9771 36.4136 31.1455 36.4136 31.3484C36.4099 31.573 36.3719 31.7559 36.2994 31.8972C36.227 32.0348 36.1382 32.1471 36.0332 32.2341C35.9281 32.3174 35.8068 32.379 35.6691 32.4188V32.4297C35.6836 32.4442 35.7054 32.4713 35.7343 32.5112C35.767 32.5474 35.7941 32.58 35.8159 32.609L36.8645 34H36.3266L35.2508 32.5275H34.6313V34H34.1749V30.2943ZM35.9517 31.4245C35.9517 31.2723 35.9318 31.1491 35.8919 31.055C35.8557 30.9572 35.7996 30.8829 35.7235 30.8322C35.651 30.7815 35.5605 30.7471 35.4518 30.7289C35.3431 30.7108 35.22 30.7018 35.0823 30.7018H34.6313V32.12H35.1693C35.3105 32.12 35.4301 32.1018 35.5279 32.0656C35.6257 32.0294 35.7054 31.9805 35.767 31.9189C35.8285 31.8537 35.8738 31.7795 35.9028 31.6961C35.9318 31.6128 35.9481 31.5223 35.9517 31.4245ZM39.6308 30.2943H40.1959L41.4674 34H40.9947L40.6686 33.0111H39.1635L38.8321 34H38.3594L39.6308 30.2943ZM40.5219 32.5764L39.9242 30.7289H39.9079L39.3048 32.5764H40.5219ZM45.9369 30.8159C45.8463 30.7869 45.7503 30.7616 45.6489 30.7398C45.5475 30.7145 45.4352 30.6945 45.312 30.68C45.1925 30.6619 45.0657 30.6529 44.9317 30.6529C44.7143 30.6529 44.5296 30.7 44.3774 30.7942C44.2253 30.8883 44.1003 31.0097 44.0025 31.1582C43.9083 31.3031 43.8395 31.4661 43.796 31.6472C43.7526 31.8284 43.7308 32.0077 43.7308 32.1852C43.7308 32.4098 43.7616 32.6144 43.8232 32.7992C43.8884 32.9803 43.9754 33.1361 44.084 33.2665C44.1963 33.3932 44.3249 33.491 44.4698 33.5599C44.6183 33.6287 44.7741 33.6631 44.9371 33.6631C45.0893 33.6631 45.2287 33.6559 45.3555 33.6414C45.4823 33.6233 45.591 33.6052 45.6815 33.587C45.7866 33.5653 45.8808 33.54 45.9641 33.511L46.0564 33.8968C45.9586 33.9294 45.85 33.9583 45.7304 33.9837C45.629 34.0054 45.5113 34.0254 45.3772 34.0435C45.2432 34.0616 45.0965 34.0706 44.9371 34.0706C44.6509 34.0706 44.3992 34.0235 44.1818 33.9294C43.9681 33.8352 43.7888 33.7048 43.6439 33.5381C43.5026 33.3679 43.3958 33.1687 43.3233 32.9404C43.2509 32.7086 43.2146 32.455 43.2146 32.1797C43.2146 31.8646 43.2581 31.5875 43.3451 31.3484C43.432 31.1057 43.5515 30.9028 43.7037 30.7398C43.8558 30.5768 44.0369 30.4536 44.247 30.3703C44.4571 30.287 44.6872 30.2454 44.9371 30.2454C45.0893 30.2454 45.2305 30.2544 45.3609 30.2725C45.495 30.287 45.6163 30.3069 45.725 30.3323C45.8373 30.3576 45.9405 30.3848 46.0347 30.4138L45.9369 30.8159ZM48.906 30.7181H47.7432V30.2943H50.5252V30.7181H49.3624V34H48.906V30.7181ZM52.1848 32.1471C52.1848 31.7958 52.2392 31.4987 52.3478 31.256C52.4601 31.0133 52.6014 30.8177 52.7717 30.6692C52.9455 30.5207 53.1375 30.4138 53.3476 30.3486C53.5613 30.2798 53.7696 30.2454 53.9725 30.2454C54.1753 30.2454 54.3818 30.2743 54.5919 30.3323C54.8056 30.3866 54.9976 30.4862 55.1679 30.6311C55.3418 30.7724 55.483 30.9662 55.5917 31.2125C55.704 31.4589 55.7602 31.7722 55.7602 32.1526C55.7602 32.5076 55.704 32.8064 55.5917 33.0491C55.483 33.2918 55.3418 33.4892 55.1679 33.6414C54.9976 33.7935 54.8056 33.904 54.5919 33.9728C54.3818 34.038 54.1753 34.0706 53.9725 34.0706C53.7696 34.0706 53.5613 34.038 53.3476 33.9728C53.1375 33.9076 52.9455 33.8008 52.7717 33.6522C52.6014 33.5037 52.4601 33.3063 52.3478 33.06C52.2392 32.8137 52.1848 32.5094 52.1848 32.1471ZM55.244 32.1743C55.244 31.6853 55.1299 31.314 54.9016 31.0604C54.6771 30.8068 54.3746 30.68 53.9942 30.68C53.8022 30.68 53.6265 30.7108 53.4672 30.7724C53.3114 30.8304 53.1756 30.9191 53.0596 31.0387C52.9473 31.1582 52.8586 31.3085 52.7934 31.4897C52.7318 31.6672 52.701 31.8773 52.701 32.12C52.701 32.609 52.8133 32.9839 53.0379 33.2447C53.2661 33.5055 53.5704 33.6359 53.9508 33.6359C54.1391 33.6359 54.313 33.607 54.4724 33.549C54.6318 33.4874 54.7676 33.3951 54.8799 33.2719C54.9958 33.1487 55.0846 32.9966 55.1462 32.8155C55.2114 32.6343 55.244 32.4206 55.244 32.1743ZM57.9269 30.2943H58.8398C59.039 30.2943 59.2201 30.3124 59.3831 30.3486C59.5498 30.3812 59.691 30.4392 59.8069 30.5225C59.9229 30.6022 60.0116 30.709 60.0732 30.8431C60.1348 30.9771 60.1656 31.1455 60.1656 31.3484C60.1619 31.573 60.1239 31.7559 60.0515 31.8972C59.979 32.0348 59.8903 32.1471 59.7852 32.2341C59.6802 32.3174 59.5588 32.379 59.4212 32.4188V32.4297C59.4356 32.4442 59.4574 32.4713 59.4864 32.5112C59.519 32.5474 59.5461 32.58 59.5679 32.609L60.6166 34H60.0786L59.0028 32.5275H58.3833V34H57.9269V30.2943ZM59.7037 31.4245C59.7037 31.2723 59.6838 31.1491 59.6439 31.055C59.6077 30.9572 59.5516 30.8829 59.4755 30.8322C59.403 30.7815 59.3125 30.7471 59.2038 30.7289C59.0951 30.7108 58.972 30.7018 58.8343 30.7018H58.3833V32.12H58.9213C59.0625 32.12 59.1821 32.1018 59.2799 32.0656C59.3777 32.0294 59.4574 31.9805 59.519 31.9189C59.5805 31.8537 59.6258 31.7795 59.6548 31.6961C59.6838 31.6128 59.7001 31.5223 59.7037 31.4245ZM64.3826 30.805C64.2957 30.7833 64.2051 30.7634 64.1109 30.7452C64.0276 30.7271 63.9316 30.7126 63.823 30.7018C63.7179 30.6873 63.6074 30.68 63.4915 30.68C63.2234 30.68 63.0315 30.7217 62.9155 30.805C62.7996 30.8847 62.7417 31.0097 62.7417 31.1799C62.7453 31.314 62.7942 31.4281 62.8884 31.5223C62.9826 31.6128 63.1003 31.6979 63.2416 31.7776C63.3828 31.8537 63.5368 31.9298 63.7034 32.0059C63.8737 32.0783 64.0294 32.1634 64.1707 32.2612C64.312 32.3554 64.4297 32.4677 64.5239 32.5981C64.6217 32.7249 64.6706 32.8807 64.6706 33.0654C64.6706 33.2791 64.6235 33.4512 64.5293 33.5816C64.4388 33.712 64.3229 33.8134 64.1816 33.8859C64.0403 33.9583 63.8845 34.0072 63.7143 34.0326C63.5477 34.058 63.3883 34.0706 63.2361 34.0706C63.0912 34.0706 62.959 34.0616 62.8395 34.0435C62.7199 34.0254 62.6167 34.0054 62.5298 33.9837C62.4283 33.9583 62.336 33.9294 62.2526 33.8968L62.3613 33.4566C62.4446 33.4929 62.5334 33.5237 62.6276 33.549C62.7109 33.5707 62.8032 33.5907 62.9047 33.6088C63.0097 33.6269 63.1202 33.6359 63.2361 33.6359C63.3774 33.6359 63.506 33.6269 63.6219 33.6088C63.7415 33.5907 63.8447 33.5617 63.9316 33.5218C64.0186 33.482 64.0856 33.4295 64.1327 33.3643C64.1834 33.2991 64.2087 33.2194 64.2087 33.1252C64.2051 32.9839 64.158 32.8698 64.0675 32.7829C63.9805 32.6923 63.8628 32.6072 63.7143 32.5275C63.5694 32.4442 63.4118 32.3645 63.2416 32.2884C63.0749 32.2123 62.921 32.1254 62.7797 32.0276C62.6384 31.9298 62.5189 31.8139 62.4211 31.6798C62.3269 31.5458 62.2798 31.3792 62.2798 31.1799C62.2798 31.064 62.2997 30.9499 62.3396 30.8376C62.3794 30.7253 62.4464 30.6257 62.5406 30.5388C62.6384 30.4518 62.7634 30.3812 62.9155 30.3269C63.0713 30.2725 63.2633 30.2454 63.4915 30.2454C63.6219 30.2454 63.7451 30.2526 63.861 30.2671C63.9805 30.278 64.0838 30.2906 64.1707 30.3051C64.2721 30.3232 64.3681 30.3432 64.4587 30.3649L64.3826 30.805ZM69.4135 30.2943H69.8482L71.7935 33.2339H71.8043C71.7971 33.1288 71.7917 33.0165 71.788 32.897C71.7808 32.7955 71.7754 32.6796 71.7717 32.5492C71.7717 32.4152 71.7717 32.2793 71.7717 32.1417V30.2943H72.2064V34H71.7717L69.8265 31.0495H69.8156C69.8193 31.1582 69.8247 31.2723 69.8319 31.3919C69.8356 31.4969 69.8392 31.6146 69.8428 31.745C69.8464 31.8754 69.8482 32.0095 69.8482 32.1471V34H69.4135V30.2943ZM74.5778 30.2943H75.0343V34H74.5778V30.2943ZM80.2221 30.8159C80.0627 30.7833 79.8925 30.7525 79.7114 30.7235C79.5339 30.6945 79.3274 30.6764 79.0919 30.6692C78.8528 30.6728 78.6464 30.709 78.4725 30.7779C78.2986 30.8467 78.1555 30.9463 78.0432 31.0767C77.9346 31.2035 77.853 31.3556 77.7987 31.5331C77.7444 31.7106 77.7172 31.9062 77.7172 32.12C77.7172 32.3953 77.7516 32.6307 77.8204 32.8263C77.8929 33.0219 77.9907 33.1831 78.1139 33.3099C78.2406 33.4331 78.3874 33.5237 78.554 33.5816C78.7206 33.6396 78.8999 33.6685 79.0919 33.6685C79.2151 33.6685 79.3256 33.6613 79.4234 33.6468C79.5248 33.6323 79.6117 33.616 79.6842 33.5979C79.7603 33.5762 79.8291 33.5526 79.8907 33.5273V32.5329H79.2115V32.1254H80.3525V33.7501C80.2257 33.8334 80.05 33.9094 79.8255 33.9783C79.6045 34.0435 79.36 34.0743 79.0919 34.0706C78.8456 34.0706 78.6083 34.0417 78.3801 33.9837C78.1555 33.9257 77.9545 33.8243 77.777 33.6794C77.6031 33.5309 77.4636 33.3299 77.3586 33.0763C77.2535 32.8227 77.201 32.5021 77.201 32.1145C77.201 31.7994 77.2499 31.5259 77.3477 31.294C77.4455 31.0586 77.5777 30.8648 77.7444 30.7126C77.9146 30.5569 78.1102 30.441 78.3312 30.3649C78.5558 30.2852 78.7931 30.2454 79.043 30.2454C79.206 30.2454 79.3636 30.2544 79.5157 30.2725C79.6679 30.287 79.8073 30.3051 79.9341 30.3269C80.0609 30.345 80.1823 30.3685 80.2982 30.3975L80.2221 30.8159ZM82.577 30.2943H84.8482V30.7126H83.0334V31.8972H84.7178V32.3047H83.0334V33.5816H84.9026V34H82.577V30.2943ZM87.0567 30.2943H87.9696C88.1688 30.2943 88.3499 30.3124 88.513 30.3486C88.6796 30.3812 88.8209 30.4392 88.9368 30.5225C89.0527 30.6022 89.1414 30.709 89.203 30.8431C89.2646 30.9771 89.2954 31.1455 89.2954 31.3484C89.2918 31.573 89.2537 31.7559 89.1813 31.8972C89.1088 32.0348 89.0201 32.1471 88.915 32.2341C88.81 32.3174 88.6886 32.379 88.551 32.4188V32.4297C88.5655 32.4442 88.5872 32.4713 88.6162 32.5112C88.6488 32.5474 88.676 32.58 88.6977 32.609L89.7464 34H89.2085L88.1326 32.5275H87.5132V34H87.0567V30.2943ZM88.8335 31.4245C88.8335 31.2723 88.8136 31.1491 88.7738 31.055C88.7375 30.9572 88.6814 30.8829 88.6053 30.8322C88.5329 30.7815 88.4423 30.7471 88.3336 30.7289C88.225 30.7108 88.1018 30.7018 87.9642 30.7018H87.5132V32.12H88.0511C88.1924 32.12 88.3119 32.1018 88.4097 32.0656C88.5075 32.0294 88.5872 31.9805 88.6488 31.9189C88.7104 31.8537 88.7557 31.7795 88.7846 31.6961C88.8136 31.6128 88.8299 31.5223 88.8335 31.4245ZM91.6161 30.2943H92.0725V34H91.6161V30.2943ZM95.3369 30.2943H95.902L97.1735 34H96.7007L96.3747 33.0111H94.8696L94.5381 34H94.0654L95.3369 30.2943ZM96.228 32.5764L95.6303 30.7289H95.614L95.0109 32.5764H96.228ZM101.824 30.2943H102.28V33.5653H103.965V34H101.824V30.2943ZM105.948 30.2943H106.405V34H105.948V30.2943ZM108.876 30.2943H109.457L110.294 32.5003C110.341 32.6271 110.384 32.7448 110.424 32.8535C110.464 32.9586 110.498 33.0527 110.527 33.1361C110.564 33.2302 110.594 33.3172 110.62 33.3969H110.631C110.652 33.3172 110.68 33.2302 110.712 33.1361C110.741 33.0527 110.774 32.9586 110.81 32.8535C110.846 32.7448 110.89 32.6271 110.94 32.5003L111.794 30.2943H112.375L112.565 34H112.103L112.011 31.9624C112.004 31.7849 111.998 31.6346 111.995 31.5114C111.991 31.3882 111.989 31.2868 111.989 31.2071V30.9789H111.978C111.957 31.0332 111.929 31.1075 111.897 31.2017C111.868 31.2814 111.83 31.3846 111.783 31.5114C111.739 31.6346 111.685 31.7849 111.62 31.9624L110.853 34H110.392L109.62 31.9624C109.551 31.7885 109.495 31.64 109.452 31.5168C109.408 31.39 109.372 31.2868 109.343 31.2071C109.31 31.1129 109.285 31.0369 109.267 30.9789H109.256C109.26 31.0369 109.263 31.1129 109.267 31.2071C109.27 31.3593 109.265 31.611 109.251 31.9624L109.142 34H108.68L108.876 30.2943ZM114.849 30.2943H115.306V34H114.849V30.2943ZM118.451 30.7181H117.288V30.2943H120.07V30.7181H118.907V34H118.451V30.7181ZM122.053 30.2943H124.324V30.7126H122.509V31.8972H124.193V32.3047H122.509V33.5816H124.378V34H122.053V30.2943ZM126.989 33.5816H127.722C127.922 33.5816 128.108 33.5563 128.282 33.5055C128.459 33.4548 128.613 33.3733 128.744 33.261C128.878 33.1451 128.983 32.9948 129.059 32.81C129.135 32.6253 129.173 32.4007 129.173 32.1363C129.173 31.8899 129.139 31.678 129.07 31.5005C129.001 31.3194 128.903 31.1709 128.776 31.055C128.653 30.939 128.501 30.8539 128.32 30.7996C128.143 30.7416 127.943 30.7126 127.722 30.7126H126.989V33.5816ZM126.532 30.2943H127.722C128.016 30.2943 128.28 30.3305 128.516 30.4029C128.755 30.4754 128.959 30.5877 129.13 30.7398C129.3 30.892 129.43 31.0839 129.521 31.3158C129.615 31.5476 129.662 31.8211 129.662 32.1363C129.662 32.455 129.611 32.7322 129.51 32.9676C129.409 33.1994 129.271 33.3932 129.097 33.549C128.923 33.7011 128.718 33.8153 128.483 33.8913C128.248 33.9638 127.994 34 127.722 34H126.532V30.2943Z" fill="#6921F0"/>
<path d="M101.424 37.1806H102.174C102.337 37.1806 102.486 37.1954 102.62 37.2252C102.757 37.2519 102.873 37.2995 102.968 37.3679C103.063 37.4334 103.136 37.5211 103.187 37.6311C103.237 37.7412 103.262 37.8795 103.262 38.046C103.259 38.2304 103.228 38.3806 103.169 38.4966C103.109 38.6096 103.036 38.7018 102.95 38.7732C102.864 38.8416 102.764 38.8922 102.651 38.9249V38.9338C102.663 38.9457 102.681 38.968 102.705 39.0008C102.731 39.0305 102.754 39.0573 102.772 39.0811L103.633 40.2231H103.191L102.308 39.0141H101.799V40.2231H101.424V37.1806ZM102.883 38.1085C102.883 37.9836 102.867 37.8825 102.834 37.8051C102.804 37.7248 102.758 37.6639 102.696 37.6222C102.636 37.5806 102.562 37.5523 102.473 37.5375C102.383 37.5226 102.282 37.5151 102.169 37.5151H101.799V38.6795H102.241C102.357 38.6795 102.455 38.6647 102.535 38.6349C102.615 38.6052 102.681 38.565 102.731 38.5145C102.782 38.4609 102.819 38.4 102.843 38.3316C102.867 38.2632 102.88 38.1888 102.883 38.1085ZM107.216 37.6088C107.142 37.585 107.063 37.5642 106.98 37.5464C106.896 37.5256 106.804 37.5092 106.703 37.4973C106.605 37.4824 106.501 37.475 106.391 37.475C106.212 37.475 106.061 37.5137 105.936 37.591C105.811 37.6683 105.708 37.768 105.628 37.8899C105.55 38.0089 105.494 38.1427 105.458 38.2914C105.423 38.4401 105.405 38.5873 105.405 38.7331C105.405 38.9175 105.43 39.0855 105.481 39.2372C105.534 39.3859 105.605 39.5138 105.695 39.6209C105.787 39.725 105.893 39.8053 106.011 39.8618C106.133 39.9183 106.261 39.9465 106.395 39.9465C106.52 39.9465 106.635 39.9406 106.739 39.9287C106.843 39.9138 106.932 39.899 107.006 39.8841C107.093 39.8662 107.17 39.8454 107.238 39.8216L107.314 40.1384C107.234 40.1651 107.145 40.1889 107.046 40.2098C106.963 40.2276 106.867 40.244 106.757 40.2588C106.646 40.2737 106.526 40.2811 106.395 40.2811C106.16 40.2811 105.953 40.2425 105.775 40.1651C105.6 40.0878 105.452 39.9807 105.333 39.8439C105.217 39.7041 105.13 39.5406 105.07 39.3532C105.011 39.1628 104.981 38.9547 104.981 38.7286C104.981 38.4699 105.017 38.2423 105.088 38.046C105.159 37.8468 105.258 37.6802 105.382 37.5464C105.507 37.4125 105.656 37.3114 105.829 37.243C106.001 37.1746 106.19 37.1404 106.395 37.1404C106.52 37.1404 106.636 37.1478 106.743 37.1627C106.853 37.1746 106.953 37.191 107.042 37.2118C107.134 37.2326 107.219 37.2549 107.296 37.2787L107.216 37.6088ZM111.432 37.4125H110.994V37.1003H111.789V40.2231H111.432V37.4125ZM115.187 39.4826H113.518V39.2149L115.115 37.1003H115.543V39.1703H115.998V39.4826H115.543V40.2231H115.187V39.4826ZM115.195 39.1703V37.4795L113.928 39.1703H115.195ZM119.703 37.1003V37.3679L118.462 40.2231H118.101L119.359 37.4125H117.601V37.1003H119.703ZM121.677 37.4125H121.24V37.1003H122.034V40.2231H121.677V37.4125ZM124.888 37.069C125.111 37.069 125.304 37.1181 125.468 37.2162C125.635 37.3114 125.762 37.4408 125.852 37.6044C125.944 37.768 125.99 37.9524 125.99 38.1576C125.99 38.3122 125.965 38.4654 125.914 38.6171C125.864 38.7688 125.779 38.9249 125.66 39.0855L124.83 40.2231H124.446L125.361 38.9784L125.812 38.4788C125.752 38.6929 125.638 38.8654 125.468 38.9963C125.298 39.1272 125.092 39.1926 124.848 39.1926C124.637 39.1926 124.452 39.1495 124.295 39.0632C124.14 38.974 124.018 38.8506 123.929 38.6929C123.843 38.5353 123.799 38.3539 123.799 38.1487C123.799 37.9375 123.846 37.7516 123.938 37.591C124.03 37.4274 124.158 37.2995 124.321 37.2073C124.485 37.1151 124.674 37.069 124.888 37.069ZM125.629 38.1531C125.629 37.9955 125.599 37.8602 125.539 37.7471C125.483 37.6311 125.4 37.5419 125.29 37.4795C125.18 37.417 125.046 37.3858 124.888 37.3858C124.73 37.3858 124.597 37.417 124.487 37.4795C124.379 37.5419 124.298 37.6311 124.241 37.7471C124.188 37.8602 124.161 37.994 124.161 38.1487C124.161 38.3033 124.188 38.4357 124.241 38.5457C124.298 38.6528 124.379 38.7346 124.487 38.7911C124.597 38.8476 124.73 38.8758 124.888 38.8758C125.046 38.8758 125.18 38.8476 125.29 38.7911C125.4 38.7346 125.483 38.6528 125.539 38.5457C125.599 38.4386 125.629 38.3078 125.629 38.1531ZM128.304 38.5814C128.125 38.5219 127.99 38.4342 127.898 38.3182C127.806 38.1992 127.759 38.0535 127.759 37.881C127.759 37.7293 127.8 37.5925 127.88 37.4705C127.96 37.3486 128.078 37.2519 128.232 37.1806C128.39 37.1062 128.583 37.069 128.812 37.069C129.041 37.069 129.233 37.1062 129.388 37.1806C129.545 37.2519 129.664 37.3501 129.745 37.475C129.825 37.5969 129.865 37.7323 129.865 37.881C129.865 38.0505 129.818 38.1948 129.722 38.3137C129.627 38.4327 129.493 38.5219 129.321 38.5814C129.514 38.632 129.667 38.7227 129.78 38.8535C129.893 38.9844 129.95 39.148 129.95 39.3443C129.95 39.5287 129.902 39.6893 129.807 39.8261C129.712 39.9629 129.58 40.0685 129.41 40.1428C129.241 40.2172 129.041 40.2544 128.812 40.2544C128.586 40.2544 128.387 40.2172 128.215 40.1428C128.045 40.0685 127.913 39.9629 127.817 39.8261C127.722 39.6893 127.675 39.5287 127.675 39.3443C127.675 39.145 127.731 38.9814 127.844 38.8535C127.96 38.7227 128.113 38.632 128.304 38.5814ZM129.504 37.9211C129.504 37.7367 129.441 37.6014 129.316 37.5151C129.195 37.4289 129.026 37.3858 128.812 37.3858C128.601 37.3858 128.433 37.4289 128.308 37.5151C128.183 37.5984 128.121 37.7352 128.121 37.9256C128.121 38.0951 128.183 38.2245 128.308 38.3137C128.433 38.4029 128.601 38.4476 128.812 38.4476C129.023 38.4476 129.192 38.4029 129.316 38.3137C129.441 38.2245 129.504 38.0936 129.504 37.9211ZM128.812 38.7465C128.667 38.7465 128.534 38.7658 128.415 38.8045C128.299 38.8431 128.207 38.9056 128.139 38.9918C128.07 39.0751 128.036 39.1896 128.036 39.3354C128.036 39.5287 128.104 39.6774 128.241 39.7815C128.378 39.8856 128.568 39.9376 128.812 39.9376C129.053 39.9376 129.242 39.8856 129.379 39.7815C129.519 39.6744 129.589 39.5257 129.589 39.3354C129.589 39.1926 129.554 39.0781 129.486 38.9918C129.418 38.9056 129.325 38.8431 129.209 38.8045C129.093 38.7658 128.961 38.7465 128.812 38.7465Z" fill="black"/>
</svg>
