<svg width="21" height="22" viewBox="0 0 21 22" fill="none" xmlns="http://www.w3.org/2000/svg">
<g clip-path="url(#clip0_59_615)">
<path d="M10.4806 1.67517C12.1841 1.67517 13.8179 2.3519 15.0225 3.55649C16.2271 4.76108 16.9038 6.39485 16.9038 8.0984C16.9038 15.2403 19.509 16.6477 20.2127 16.6477H0.748413C1.4671 16.6477 4.05735 15.2253 4.05735 8.0984C4.05735 6.39485 4.73408 4.76108 5.93867 3.55649C7.14326 2.3519 8.77703 1.67517 10.4806 1.67517V1.67517Z" stroke="#000001" stroke-width="1.49726" stroke-linecap="round" stroke-linejoin="round"/>
<path d="M8.23438 19.3877C8.3638 19.8848 8.65451 20.325 9.06094 20.6391C9.46737 20.9533 9.96656 21.1237 10.4803 21.1237C10.994 21.1237 11.4931 20.9533 11.8996 20.6391C12.306 20.325 12.5967 19.8848 12.7261 19.3877" stroke="#000001" stroke-width="1.49726" stroke-linecap="round" stroke-linejoin="round"/>
</g>
<defs>
<clipPath id="clip0_59_615">
<rect width="20.9616" height="20.9616" fill="white" transform="translate(0 0.926514)"/>
</clipPath>
</defs>
</svg>
