<svg width="67" height="67" viewBox="0 0 67 67" fill="none" xmlns="http://www.w3.org/2000/svg">
<circle cx="33.5" cy="33.3359" r="33" fill="#EDE6FF"/>
<path d="M41.0938 37.1355L44.8937 36.1855L45.8437 39.9855" stroke="#6D2FFF" stroke-width="1.2" stroke-linecap="round" stroke-linejoin="round"/>
<path d="M44.8973 36.1855C44.0533 38.5769 42.5204 40.665 40.4917 42.1865C38.463 43.708 36.0293 44.595 33.4973 44.7355C31.1567 44.736 28.8727 44.0159 26.9555 42.6732C25.0384 41.3305 23.5809 39.4303 22.7812 37.2305" stroke="#6D2FFF" stroke-width="1.2" stroke-linecap="round" stroke-linejoin="round"/>
<path d="M25.8984 29.5355L22.0984 30.4855L21.1484 26.6855" stroke="#6D2FFF" stroke-width="1.2" stroke-linecap="round" stroke-linejoin="round"/>
<path d="M22.0938 30.4855C23.6898 26.1155 28.5918 21.9355 33.4938 21.9355C35.8457 21.9422 38.1381 22.6761 40.0566 24.0367C41.9751 25.3973 43.4258 27.3181 44.2098 29.5355" stroke="#6D2FFF" stroke-width="1.2" stroke-linecap="round" stroke-linejoin="round"/>
</svg>
