<svg width="18" height="18" viewBox="0 0 18 18" fill="none" xmlns="http://www.w3.org/2000/svg">
<path d="M11.4374 16.7742C12.2147 17.2757 13.1409 17.4942 14.0603 17.393C14.9798 17.2919 15.8363 16.8773 16.486 16.2189L17.054 15.6635C17.303 15.4088 17.4424 15.0668 17.4424 14.7106C17.4424 14.3544 17.303 14.0123 17.054 13.7576L14.6433 11.3721C14.3907 11.1239 14.0508 10.9849 13.6967 10.9849C13.3425 10.9849 13.0026 11.1239 12.75 11.3721V11.3721C12.4953 11.6212 12.1533 11.7606 11.7971 11.7606C11.4409 11.7606 11.0989 11.6212 10.8442 11.3721L7.05767 7.58565C6.93135 7.46117 6.83104 7.31282 6.76258 7.14923C6.69411 6.98564 6.65886 6.81006 6.65886 6.63272C6.65886 6.45538 6.69411 6.2798 6.76258 6.11621C6.83104 5.95261 6.93135 5.80426 7.05767 5.67979V5.67979C7.30588 5.42722 7.44496 5.08728 7.44496 4.73316C7.44496 4.37905 7.30588 4.0391 7.05767 3.78654L4.65955 1.38843C4.40486 1.13942 4.06281 1 3.70662 1C3.35043 1 3.00838 1.13942 2.75369 1.38843L2.19833 1.9564C1.53992 2.60609 1.12529 3.46267 1.02415 4.38211C0.923008 5.30156 1.14153 6.22778 1.64298 7.00506C4.25572 10.8556 7.58012 14.1714 11.4374 16.7742V16.7742Z" stroke="#C8C8C8" stroke-linecap="round" stroke-linejoin="round"/>
</svg>
