<svg width="30" height="30" viewBox="0 0 30 30" fill="none" xmlns="http://www.w3.org/2000/svg">
<rect width="30" height="30" rx="5" fill="#F3EFFE"/>
<path d="M9.49219 14.0401L20.9922 8.81006" stroke="#5932F7" stroke-width="0.8" stroke-linecap="round" stroke-linejoin="round"/>
<path d="M18.8438 8L20.9937 8.81L20.1937 10.96" stroke="#5932F7" stroke-width="0.8" stroke-linecap="round" stroke-linejoin="round"/>
<path d="M21 21.25C21.4142 21.25 21.75 20.9142 21.75 20.5V14.01C21.75 13.8111 21.671 13.6203 21.5303 13.4797C21.3897 13.339 21.1989 13.26 21 13.26H19.5C19.3011 13.26 19.1103 13.339 18.9697 13.4797C18.829 13.6203 18.75 13.8111 18.75 14.01V20.5C18.75 20.9142 19.0858 21.25 19.5 21.25H21Z" fill="#5932F7" stroke="white" stroke-width="0.5" stroke-linecap="round" stroke-linejoin="round"/>
<path d="M16 21.2598C16.4142 21.2598 16.75 20.924 16.75 20.5098V15.5098C16.75 15.3109 16.671 15.1201 16.5303 14.9794C16.3897 14.8388 16.1989 14.7598 16 14.7598H14.5C14.3011 14.7598 14.1103 14.8388 13.9697 14.9794C13.829 15.1201 13.75 15.3109 13.75 15.5098V20.5098C13.75 20.924 14.0858 21.2598 14.5 21.2598H16Z" fill="#5932F7" stroke="white" stroke-width="0.5" stroke-linecap="round" stroke-linejoin="round"/>
<path d="M11 21.2598C11.4142 21.2598 11.75 20.924 11.75 20.5098V17.0098C11.75 16.8109 11.671 16.6201 11.5303 16.4794C11.3897 16.3388 11.1989 16.2598 11 16.2598H9.5C9.30109 16.2598 9.11032 16.3388 8.96967 16.4794C8.82902 16.6201 8.75 16.8109 8.75 17.0098V20.5098C8.75 20.924 9.08579 21.2598 9.5 21.2598H11Z" fill="#5932F7" stroke="white" stroke-width="0.5" stroke-linecap="round" stroke-linejoin="round"/>
</svg>
