<svg width="70" height="174" viewBox="0 0 70 174" fill="none" xmlns="http://www.w3.org/2000/svg">
<rect x="-8.14062" y="-31" width="98" height="6" transform="rotate(25 -8.14062 -31)" fill="#DCC9FF" fill-opacity="0.31"/>
<rect x="-8.14062" y="-19.1455" width="98" height="6" transform="rotate(25 -8.14062 -19.1455)" fill="#DCC9FF" fill-opacity="0.31"/>
<rect x="-8.14062" y="-7.29102" width="98" height="6" transform="rotate(25 -8.14062 -7.29102)" fill="#DCC9FF" fill-opacity="0.31"/>
<rect x="-8.14062" y="4.56348" width="98" height="6" transform="rotate(25 -8.14062 4.56348)" fill="#DCC9FF" fill-opacity="0.31"/>
<rect x="-8.14062" y="16.418" width="98" height="6" transform="rotate(25 -8.14062 16.418)" fill="#DCC9FF" fill-opacity="0.31"/>
<rect x="-8.14062" y="28.272" width="98" height="6" transform="rotate(25 -8.14062 28.272)" fill="#DCC9FF" fill-opacity="0.31"/>
<rect x="-8.14062" y="40.1265" width="98" height="6" transform="rotate(25 -8.14062 40.1265)" fill="#DCC9FF" fill-opacity="0.31"/>
<rect x="-8.14062" y="51.981" width="98" height="6" transform="rotate(25 -8.14062 51.981)" fill="#DCC9FF" fill-opacity="0.31"/>
<rect x="-8.14062" y="63.8354" width="98" height="6" transform="rotate(25 -8.14062 63.8354)" fill="#DCC9FF" fill-opacity="0.31"/>
<rect x="-8.14062" y="75.6899" width="98" height="6" transform="rotate(25 -8.14062 75.6899)" fill="#DCC9FF" fill-opacity="0.31"/>
<rect x="-8.14062" y="87.5444" width="98" height="6" transform="rotate(25 -8.14062 87.5444)" fill="#DCC9FF" fill-opacity="0.31"/>
<rect x="-8.14062" y="99.3989" width="98" height="6" transform="rotate(25 -8.14062 99.3989)" fill="#DCC9FF" fill-opacity="0.31"/>
<rect x="-8.14062" y="111.253" width="98" height="6" transform="rotate(25 -8.14062 111.253)" fill="#DCC9FF" fill-opacity="0.31"/>
<rect x="-8.14062" y="123.108" width="98" height="6" transform="rotate(25 -8.14062 123.108)" fill="#DCC9FF" fill-opacity="0.31"/>
<rect x="-8.14062" y="134.962" width="98" height="6" transform="rotate(25 -8.14062 134.962)" fill="#DCC9FF" fill-opacity="0.31"/>
<rect x="-8.14062" y="146.816" width="98" height="6" transform="rotate(25 -8.14062 146.816)" fill="#DCC9FF" fill-opacity="0.31"/>
<rect x="-8.14062" y="158.671" width="98" height="6" transform="rotate(25 -8.14062 158.671)" fill="#DCC9FF" fill-opacity="0.31"/>
</svg>
