<svg width="67" height="67" viewBox="0 0 67 67" fill="none" xmlns="http://www.w3.org/2000/svg">
<circle cx="33.5" cy="33.3359" r="33" fill="#EFF1F3"/>
<path d="M43.4603 38.8077C43.4603 39.2769 43.2739 39.7269 42.9421 40.0587C42.6103 40.3905 42.1603 40.5769 41.6911 40.5769H30.1911C29.7219 40.5769 29.2719 40.3905 28.9401 40.0587C28.6083 39.7269 28.4219 39.2769 28.4219 38.8077V23.7692C28.4219 23.3 28.6083 22.85 28.9401 22.5182C29.2719 22.1864 29.7219 22 30.1911 22H38.1526L43.4603 27.3077V38.8077Z" stroke="#C3CED8" stroke-width="1.2" stroke-linecap="round" stroke-linejoin="round"/>
<path d="M38.1538 45.0009H25.7692C25.3 45.0009 24.85 44.8145 24.5182 44.4827C24.1864 44.1509 24 43.7009 24 43.2317V27.3086" stroke="#C3CED8" stroke-width="1.2" stroke-linecap="round" stroke-linejoin="round"/>
<path d="M36.3828 28.1914V35.2683" stroke="#C3CED8" stroke-width="1.2" stroke-linecap="round" stroke-linejoin="round"/>
<path d="M39.9207 31.7305H32.8438" stroke="#C3CED8" stroke-width="1.2" stroke-linecap="round" stroke-linejoin="round"/>
</svg>
