<svg width="19" height="19" viewBox="0 0 19 19" fill="none" xmlns="http://www.w3.org/2000/svg">
<g filter="url(#filter0_b_257_37746)">
<rect width="19" height="19" rx="3.16667" fill="#FEFDFF"/>
<path d="M9.42083 11.576C11.2368 11.576 12.7088 10.1039 12.7088 8.28802C12.7088 6.4721 11.2368 5 9.42083 5C7.60491 5 6.13281 6.4721 6.13281 8.28802C6.13281 10.1039 7.60491 11.576 9.42083 11.576Z" stroke="#000001" stroke-width="0.730769" stroke-linecap="round" stroke-linejoin="round"/>
<path d="M9.42228 9.74934C10.2294 9.74934 10.8836 9.09508 10.8836 8.288C10.8836 7.48092 10.2294 6.82666 9.42228 6.82666C8.6152 6.82666 7.96094 7.48092 7.96094 8.288C7.96094 9.09508 8.6152 9.74934 9.42228 9.74934Z" stroke="#000001" stroke-width="0.730769" stroke-linecap="round" stroke-linejoin="round"/>
<path d="M8.78635 11.5175L8.14336 14.221C8.13064 14.2724 8.10711 14.3205 8.07436 14.362C8.0416 14.4036 8.00036 14.4377 7.95339 14.4621C7.90381 14.4837 7.85034 14.4948 7.79629 14.4948C7.74225 14.4948 7.68878 14.4837 7.6392 14.4621L5.21337 13.4027C5.16249 13.3786 5.11772 13.3433 5.08242 13.2995C5.04711 13.2557 5.0222 13.2044 5.00954 13.1496C4.99689 13.0947 4.99682 13.0377 5.00934 12.9829C5.02187 12.928 5.04666 12.8767 5.08185 12.8327L6.95968 10.48" stroke="#000001" stroke-width="0.730769" stroke-linecap="round" stroke-linejoin="round"/>
<path d="M10.25 11.4812L10.9076 14.2212C10.9207 14.2734 10.9451 14.3221 10.9793 14.3638C11.0134 14.4055 11.0563 14.4391 11.1049 14.4623C11.1531 14.4841 11.2054 14.4953 11.2583 14.4953C11.3112 14.4953 11.3635 14.4841 11.4118 14.4623L13.823 13.4028C13.8746 13.3791 13.92 13.3436 13.9555 13.2992C13.9911 13.2548 14.0157 13.2027 14.0276 13.1471C14.0414 13.0927 14.042 13.0358 14.0293 12.9811C14.0166 12.9264 13.9909 12.8756 13.9545 12.8329L11.9963 10.3413" stroke="#000001" stroke-width="0.730769" stroke-linecap="round" stroke-linejoin="round"/>
</g>
<defs>
<filter id="filter0_b_257_37746" x="-14.2" y="-14.2" width="47.4" height="47.4" filterUnits="userSpaceOnUse" color-interpolation-filters="sRGB">
<feFlood flood-opacity="0" result="BackgroundImageFix"/>
<feGaussianBlur in="BackgroundImageFix" stdDeviation="7.1"/>
<feComposite in2="SourceAlpha" operator="in" result="effect1_backgroundBlur_257_37746"/>
<feBlend mode="normal" in="SourceGraphic" in2="effect1_backgroundBlur_257_37746" result="shape"/>
</filter>
</defs>
</svg>
