<svg width="36" height="37" viewBox="0 0 36 37" fill="none" xmlns="http://www.w3.org/2000/svg">
<path d="M26.8795 35.0203C28.1368 35.0212 29.3747 34.7108 30.4828 34.1168C31.5908 33.5229 32.5346 32.6638 33.2298 31.6162C33.925 30.5687 34.3501 29.3654 34.467 28.1136C34.5839 26.8618 34.3891 25.6005 33.8999 24.4424C33.4107 23.2842 32.6423 22.2652 31.6634 21.4763C30.6845 20.6874 29.5255 20.1531 28.2899 19.9212C27.0542 19.6892 25.7803 19.7669 24.582 20.1471C23.3836 20.5274 22.2981 21.1984 21.4222 22.1003C20.9075 20.283 19.8961 18.6453 18.5016 17.3713C17.1072 16.0973 15.3851 15.2375 13.5288 14.8886C11.6725 14.5397 9.75568 14.7155 7.99383 15.3963C6.23198 16.077 4.69495 17.2357 3.55553 18.7421C2.41611 20.2485 1.71948 22.0429 1.54395 23.9235C1.36841 25.8041 1.72094 27.6964 2.5619 29.3877C3.40286 31.0789 4.6989 32.5021 6.30434 33.4971C7.90977 34.4921 9.76093 35.0196 11.6497 35.0203H26.8795Z" fill="#5932F7" stroke="#5932F7" stroke-width="2.5383" stroke-linecap="round" stroke-linejoin="round"/>
<path d="M26.8287 3.79823C24.0172 2.61144 20.9963 2 17.9446 2C14.8929 2 11.8721 2.61144 9.06055 3.79823" stroke="#5932F7" stroke-width="2.5383" stroke-linecap="round" stroke-linejoin="round"/>
<path d="M23.5284 9.28203C19.94 8.06354 16.0498 8.06354 12.4614 9.28203" stroke="#5932F7" stroke-width="2.5383" stroke-linecap="round" stroke-linejoin="round"/>
<path d="M17.9989 24.8448C17.9989 24.1439 18.5671 23.5757 19.2681 23.5757C19.969 23.5757 20.5372 24.1439 20.5372 24.8448H17.9989ZM20.5372 34.998V36.2672H17.9989V34.998H20.5372ZM20.5372 24.8448V34.998H17.9989V24.8448H20.5372Z" fill="#F8F8FD"/>
<path d="M14.1914 29.9214L19.268 24.8448L24.3446 29.9214" stroke="#F8F8FD" stroke-width="2.5383" stroke-linecap="round" stroke-linejoin="round"/>
</svg>
